{
.appVersion = "1296";
DisplayStrings = (
m,
"abcdefghi\012/_SlantedSteve v/_SlantedSteve n\012rstuylvwxyz\012jklmnopq\012giddy\012vegemite\012yello\012nnnnnnnn\012vestigle/space \012n\012ooooooooo\012"
);
classes = (
{
automatic = 1;
code = "iMatra-deva";
name = DevaIMatras;
},
{
automatic = 1;
code = "ka-deva kha-deva ga-deva gha-deva nga-deva ca-deva cha-deva ja-deva jha-deva nya-deva tta-deva ttha-deva dda-deva ddha-deva nna-deva ta-deva tha-deva da-deva dha-deva na-deva pa-deva pha-deva ba-deva bha-deva ma-deva ya-deva ra-deva rra-deva la-deva lla-deva va-deva sha-deva ssa-deva sa-deva ha-deva gga-deva jja-deva ddda-deva bba-deva ca-deva.001 pa-deva.001 lla-deva.001 va-deva.001 ca-deva.002 pa-deva.002 lla-deva.002 lla-deva.alt kha-deva.ss01 ga-deva.ss01 jha-deva.ss01 nna-deva.ss01 ta-deva.ss01 da-deva.ss01 na-deva.ss01 pa-deva.ss01 pha-deva.ss01 bha-deva.ss01 ra-deva.ss01 rra-deva.ss01 sha-deva.ss01 ssa-deva.ss01 sa-deva.ss01";
name = DevaFullforms;
},
{
code = "ka-deva\012kha-deva\012ga-deva\012gha-deva\012nga-deva\012ca-deva\012cha-deva\012ja-deva\012jha-deva\012nya-deva\012tta-deva\012ttha-deva\012dda-deva\012ddha-deva\012nna-deva\012ta-deva\012tha-deva\012da-deva\012dha-deva\012na-deva\012pa-deva\012pha-deva\012ba-deva\012bha-deva\012ma-deva\012ya-deva\012ra-deva\012rra-deva\012la-deva\012lla-deva\012va-deva\012sha-deva\012ssa-deva\012sa-deva\012ha-deva\012gga-deva\012jja-deva\012";
name = Devaspacing;
}
);
date = "2020-02-06 08:09:08 +0000";
familyName = Scaled;
featurePrefixes = (
{
automatic = 1;
code = "languagesystem DFLT dflt;\012\012languagesystem dev2 dflt;\012\012languagesystem deva dflt;\012\012languagesystem limb dflt;\012languagesystem limb LMB;\012";
name = Languagesystems;
}
);
features = (
{
automatic = 1;
code = "feature subs;\012feature sinf;\012feature case;\012feature onum;\012feature salt;\012feature ss01;\012feature ss03;\012feature calt;\012";
name = aalt;
},
{

glyphs = (
{
glyphname = A;
lastChange = "2020-02-19 17:48:43 +0000";
layers = (
{
layerId = "6B6AD122-EF8D-49FE-8C69-4BDE8C56BDD8";
paths = (
{
closed = 1;
nodes = (
"247 0 LINE",
"257 39 LINE",
"257 53 LINE",
"229 110 OFFCURVE",
"236 134 OFFCURVE",
"258 203 CURVE SMOOTH",
"310 369 LINE",
"669 369 LINE",
"727 203 LINE SMOOTH",
"751 134 OFFCURVE",
"747 114 OFFCURVE",
"727 59 CURVE",
"727 44 LINE",
"737 5 LINE",
"1093 0 LINE",
"1105 50 LINE",
"1105 64 LINE",
"1046 121 OFFCURVE",
"993 186 OFFCURVE",
"967 257 CURVE SMOOTH",
"619 1187 LINE",
"588 1196 LINE",
"407 1117 LINE",
"106 230 LINE SMOOTH",
"85 168 OFFCURVE",
"53 121 OFFCURVE",
"-5 61 CURVE",
"-5 47 LINE",
"8 0 LINE"
);
},
{
closed = 1;
nodes = (
"479 908 LINE",
"620 508 LINE",
"354 508 LINE"
);
}
);
width = 1100;
},
{
layerId = "34301EF7-A2BE-469F-9697-D6100B11FDFE";
paths = (
{
closed = 1;
nodes = (
"749 520 LINE",
"342 520 LINE",
"320 456 LINE",
"773 456 LINE"
);
},
{
closed = 1;
nodes = (
"892 138 LINE SMOOTH",
"916 77 OFFCURVE",
"871 49 OFFCURVE",
"761 38 CURVE",
"758 33 LINE",
"763 0 LINE",
"1149 0 LINE",
"1153 34 LINE",
"1150 38 LINE",
"1108 50 OFFCURVE",
"1055 84 OFFCURVE",
"1033 136 CURVE SMOOTH",
"596 1185 LINE",
"581 1191 LINE",
"503 1153 LINE",
"129 136 LINE SMOOTH",
"107 77 OFFCURVE",
"54 50 OFFCURVE",
"12 38 CURVE",
"10 34 LINE",
"14 0 LINE",
"333 0 LINE",
"338 34 LINE",
"335 38 LINE",
"228 49 OFFCURVE",
"182 77 OFFCURVE",
"204 138 CURVE SMOOTH",
"555 1090 LINE",
"521 1090 LINE"
);
}
);
width = 1163;
},
{
layerId = "CFF67ECA-3B2D-433B-B605-F38590C8F106";
paths = (
{
closed = 1;
nodes = (
"696 523 LINE",
"348 523 LINE",
"313 413 LINE",
"738 413 LINE"
);
},
{
closed = 1;
nodes = (
"601 1185 LINE",
"475 1185 LINE",
"503 992 LINE",
"827 188 LINE SMOOTH",
"857 113 OFFCURVE",
"830 80 OFFCURVE",
"747 50 CURVE",
"742 41 LINE",
"749 0 LINE",
"1129 0 LINE",
"1132 43 LINE",
"1128 52 LINE",
"1084 76 OFFCURVE",
"1033 122 OFFCURVE",
"1007 186 CURVE SMOOTH",
"602 1185 LINE"
);
},
{
closed = 1;
nodes = (
"475 1185 LINE",
"122 186 LINE SMOOTH",
"96 113 OFFCURVE",
"53 76 OFFCURVE",
"9 50 CURVE",
"5 41 LINE",
"9 0 LINE",
"329 0 LINE",
"333 41 LINE",
"330 48 LINE",
"245 79 OFFCURVE",
"221 112 OFFCURVE",
"247 188 CURVE SMOOTH",
"524 992 LINE"
);
}
);
width = 1137;
}
);
unicode = 0041;
},
{
glyphname = B;
lastChange = "2020-02-13 14:30:40 +0000";
layers = (
{
hints = (
{
origin = "{0, 14}";
scale = "{0.96, 0.96}";
type = Corner;
name = _corner.CapRightSerif;
},
{
origin = "{0, 15}";
scale = "{0.96, 0.96}";
type = Corner;
name = _corner.CapLeftSerif;
}
);
layerId = "6B6AD122-EF8D-49FE-8C69-4BDE8C56BDD8";
paths = (
{
closed = 1;
nodes = (
"587 0 LINE SMOOTH",
"868 0 OFFCURVE",
"1047 87 OFFCURVE",
"1047 289 CURVE SMOOTH",
"1047 407 OFFCURVE",
"988 530 OFFCURVE",
"771 587 CURVE",
"771 598 LINE",
"906 653 OFFCURVE",
"985 759 OFFCURVE",
"985 878 CURVE SMOOTH",
"985 1007 OFFCURVE",
"894 1152 OFFCURVE",
"649 1153 CURVE SMOOTH",
"161 1155 LINE",
"161 0 LINE"
);
},
{
closed = 1;
nodes = (
"424 141 OFFCURVE",
"403 166 OFFCURVE",
"403 242 CURVE SMOOTH",
"403 503 LINE",
"464 512 OFFCURVE",
"499 514 OFFCURVE",
"528 514 CURVE SMOOTH",
"699 514 OFFCURVE",
"787 439 OFFCURVE",
"787 315 CURVE SMOOTH",
"787 222 OFFCURVE",
"743 141 OFFCURVE",
"568 141 CURVE SMOOTH",
"465 141 LINE SMOOTH"
);
},
{
closed = 1;
nodes = (
"477 651 OFFCURVE",
"447 651 OFFCURVE",
"403 659 CURVE",
"403 1011 LINE",
"520 1011 LINE SMOOTH",
"684 1011 OFFCURVE",
"728 916 OFFCURVE",
"728 825 CURVE SMOOTH",
"728 744 OFFCURVE",
"698 651 OFFCURVE",
"541 651 CURVE SMOOTH"
);
}
);
width = 1132;
},
{
hints = (
{
origin = "{0, 14}";
scale = "{0.67479, 0.67479}";
type = Corner;
name = _corner.CapRightSerif;
},
{
origin = "{0, 15}";
scale = "{0.67479, 0.67479}";
type = Corner;
name = _corner.CapLeftSerif;
}
);
layerId = "34301EF7-A2BE-469F-9697-D6100B11FDFE";
paths = (
{
closed = 1;
nodes = (
"536 0 LINE SMOOTH",
"844 0 OFFCURVE",
"950 164 OFFCURVE",
"950 316 CURVE SMOOTH",
"950 444 OFFCURVE",
"873 569 OFFCURVE",
"664 592 CURVE",
"664 597 LINE",
"806 659 OFFCURVE",
"878 775 OFFCURVE",
"878 883 CURVE SMOOTH",
"878 1028 OFFCURVE",
"747 1155 OFFCURVE",
"539 1155 CURVE SMOOTH",
"210 1155 LINE",
"210 0 LINE"
);
},
{
closed = 1;
nodes = (
"375 60 OFFCURVE",
"329 86 OFFCURVE",
"329 174 CURVE SMOOTH",
"329 550 LINE",
"379 555 OFFCURVE",
"430 555 OFFCURVE",
"470 555 CURVE SMOOTH",
"763 555 OFFCURVE",
"815 424 OFFCURVE",
"815 312 CURVE SMOOTH",
"815 200 OFFCURVE",
"762 60 OFFCURVE",
"546 60 CURVE SMOOTH",
"417 60 LINE SMOOTH"
);
},
{
closed = 1;
nodes = (
"448 605 OFFCURVE",
"388 605 OFFCURVE",
"329 611 CURVE",
"329 1095 LINE",
"512 1095 LINE SMOOTH",
"693 1095 OFFCURVE",
"743 977 OFFCURVE",
"743 869 CURVE SMOOTH",
"743 753 OFFCURVE",
"683 605 OFFCURVE",
"477 605 CURVE SMOOTH"
);
}
);
width = 1035;
},
{
hints = (
{
origin = "{0, 15}";
type = Corner;
name = _corner.CapLeftSerif;
},
{
origin = "{0, 14}";
type = Corner;
name = _corner.CapRightSerif;
}
);
layerId = "CFF67ECA-3B2D-433B-B605-F38590C8F106";
paths = (
{
closed = 1;
nodes = (
"676 0 LINE SMOOTH",
"891 0 OFFCURVE",
"1040 142 OFFCURVE",
"1040 318 CURVE SMOOTH",
"1040 442 OFFCURVE",
"965 565 OFFCURVE",
"755 589 CURVE",
"755 595 LINE",
"895 650 OFFCURVE",
"977 765 OFFCURVE",
"977 889 CURVE SMOOTH",
"977 1027 OFFCURVE",
"880 1153 OFFCURVE",
"642 1154 CURVE SMOOTH",
"249 1155 LINE",
"249 0 LINE"
);
},
{
closed = 1;
nodes = (
"445 104 OFFCURVE",
"409 129 OFFCURVE",
"409 212 CURVE SMOOTH",
"409 529 LINE",
"459 534 OFFCURVE",
"518 534 OFFCURVE",
"528 534 CURVE SMOOTH",
"825 534 OFFCURVE",
"870 430 OFFCURVE",
"870 327 CURVE SMOOTH",
"870 225 OFFCURVE",
"826 104 OFFCURVE",
"590 104 CURVE SMOOTH",
"479 104 LINE SMOOTH"
);
},
{
closed = 1;
nodes = (
"552 636 OFFCURVE",
"480 635 OFFCURVE",
"409 646 CURVE",
"409 1051 LINE",
"573 1051 LINE SMOOTH",
"725 1051 OFFCURVE",
"812 983 OFFCURVE",
"812 851 CURVE SMOOTH",
"812 752 OFFCURVE",
"762 642 OFFCURVE",
"583 637 CURVE SMOOTH"
);
}
);
width = 1135;
}
);
leftMetricsKey = H;
unicode = 0042;
},
{
glyphname = C;
lastChange = "2020-02-13 14:30:57 +0000";
layers = (
{
layerId = "6B6AD122-EF8D-49FE-8C69-4BDE8C56BDD8";
paths = (
{
closed = 1;
nodes = (
"753 -30 OFFCURVE",
"890 -14 OFFCURVE",
"1031 21 CURVE",
"1043 296 LINE",
"941 300 LINE",
"897 214 OFFCURVE",
"819 120 OFFCURVE",
"680 120 CURVE SMOOTH",
"468 120 OFFCURVE",
"343 327 OFFCURVE",
"343 603 CURVE SMOOTH",
"343 875 OFFCURVE",
"458 1029 OFFCURVE",
"630 1029 CURVE SMOOTH",
"777 1029 OFFCURVE",
"859 919 OFFCURVE",
"894 843 CURVE",
"986 847 LINE",
"986 1137 LINE",
"879 1170 OFFCURVE",
"777 1185 OFFCURVE",
"703 1185 CURVE SMOOTH",
"397 1185 OFFCURVE",
"80 937 OFFCURVE",
"80 554 CURVE SMOOTH",
"80 206 OFFCURVE",
"323 -30 OFFCURVE",
"663 -30 CURVE SMOOTH"
);
}
);
width = 1148;
},
{
layerId = "34301EF7-A2BE-469F-9697-D6100B11FDFE";
paths = (
{
closed = 1;
nodes = (
"739 -30 OFFCURVE",
"889 5 OFFCURVE",
"980 53 CURVE",
"1023 390 LINE",
"982 390 LINE",
"917 73 OFFCURVE",
"749 31 OFFCURVE",
"634 31 CURVE SMOOTH",
"349 31 OFFCURVE",
"218 309 OFFCURVE",
"218 606 CURVE SMOOTH",
"218 900 OFFCURVE",
"377 1125 OFFCURVE",
"625 1125 CURVE SMOOTH",
"788 1125 OFFCURVE",
"880 1028 OFFCURVE",
"925 765 CURVE",
"967 765 LINE",
"967 1094 LINE",
"882 1158 OFFCURVE",
"766 1185 OFFCURVE",
"657 1185 CURVE SMOOTH",
"335 1185 OFFCURVE",
"80 950 OFFCURVE",
"80 576 CURVE SMOOTH",
"80 251 OFFCURVE",
"258 -30 OFFCURVE",
"612 -30 CURVE SMOOTH"
);
}
);
width = 1098;
},
{
layerId = "CFF67ECA-3B2D-433B-B605-F38590C8F106";
paths = (
{
closed = 1;
nodes = (
"752 -30 OFFCURVE",
"890 -6 OFFCURVE",
"1018 39 CURVE",
"1040 357 LINE",
"982 361 LINE",
"942 225 OFFCURVE",
"864 74 OFFCURVE",
"670 74 CURVE SMOOTH",
"418 74 OFFCURVE",
"270 317 OFFCURVE",
"270 613 CURVE SMOOTH",
"270 882 OFFCURVE",
"405 1076 OFFCURVE",
"630 1076 CURVE SMOOTH",
"816 1076 OFFCURVE",
"892 947 OFFCURVE",
"922 811 CURVE",
"978 815 LINE",
"978 1132 LINE",
"871 1167 OFFCURVE",
"759 1185 OFFCURVE",
"675 1185 CURVE SMOOTH",
"364 1185 OFFCURVE",
"98 948 OFFCURVE",
"98 572 CURVE SMOOTH",
"98 245 OFFCURVE",
"297 -30 OFFCURVE",
"647 -30 CURVE SMOOTH"
);
}
);
width = 1125;
}
);
leftMetricsKey = O;
unicode = 0043;
},
{
glyphname = D;
lastChange = "2020-02-19 09:07:42 +0000";
layers = (
{
hints = (
{
origin = "{0, 7}";
scale = "{0.96, 0.96}";
type = Corner;
name = _corner.CapRightSerif;
},
{
origin = "{0, 8}";
scale = "{0.96, 0.96}";
type = Corner;
name = _corner.CapLeftSerif;
}
);
layerId = "6B6AD122-EF8D-49FE-8C69-4BDE8C56BDD8";
paths = (
{
closed = 1;
nodes = (
"507 0 LINE SMOOTH",
"856 0 OFFCURVE",
"1109 248 OFFCURVE",
"1109 607 CURVE SMOOTH",
"1109 871 OFFCURVE",
"968 1155 OFFCURVE",
"540 1155 CURVE SMOOTH",
"161 1155 LINE",
"161 0 LINE"
);
},
{
closed = 1;
nodes = (
"424 141 OFFCURVE",
"403 166 OFFCURVE",
"403 242 CURVE SMOOTH",
"403 1013 LINE",
"477 1013 LINE SMOOTH",
"733 1013 OFFCURVE",
"841 789 OFFCURVE",
"841 539 CURVE SMOOTH",
"841 279 OFFCURVE",
"719 141 OFFCURVE",
"550 141 CURVE SMOOTH",
"465 141 LINE SMOOTH"
);
}
);
width = 1189;
},
{
hints = (
{
origin = "{0, 7}";
scale = "{0.74227, 0.74227}";
type = Corner;
name = _corner.CapRightSerif;
},
{
origin = "{0, 8}";
scale = "{0.74227, 0.74227}";
type = Corner;
name = _corner.CapLeftSerif;
}
);
layerId = "34301EF7-A2BE-469F-9697-D6100B11FDFE";
paths = (
{
closed = 1;
nodes = (
"553 0 LINE SMOOTH",
"915 0 OFFCURVE",
"1134 257 OFFCURVE",
"1134 594 CURVE SMOOTH",
"1134 925 OFFCURVE",
"922 1155 OFFCURVE",
"567 1155 CURVE SMOOTH",
"225 1155 LINE",
"225 0 LINE"
);
},
{
closed = 1;
nodes = (
"414 63 OFFCURVE",
"344 77 OFFCURVE",
"344 159 CURVE SMOOTH",
"344 1092 LINE",
"527 1092 LINE SMOOTH",
"858 1092 OFFCURVE",
"999 840 OFFCURVE",
"999 573 CURVE SMOOTH",
"999 294 OFFCURVE",
"838 63 OFFCURVE",
"580 63 CURVE SMOOTH",
"456 63 LINE SMOOTH"
);
}
);
width = 1214;
},
{
hints = (
{
origin = "{0, 8}";
type = Corner;
name = _corner.CapLeftSerif;
},
{
origin = "{0, 7}";
type = Corner;
name = _corner.CapRightSerif;
}
);
layerId = "CFF67ECA-3B2D-433B-B605-F38590C8F106";
paths = (
{
closed = 1;
nodes = (
"595 0 LINE SMOOTH",
"941 0 OFFCURVE",
"1173 271 OFFCURVE",
"1173 606 CURVE SMOOTH",
"1173 909 OFFCURVE",
"1001 1155 OFFCURVE",
"651 1155 CURVE SMOOTH",
"249 1155 LINE",
"249 0 LINE"
);
},
{
closed = 1;
nodes = (
"453 103 OFFCURVE",
"417 127 OFFCURVE",
"417 210 CURVE SMOOTH",
"417 1052 LINE",
"589 1052 LINE SMOOTH",
"884 1052 OFFCURVE",
"997 814 OFFCURVE",
"997 565 CURVE SMOOTH",
"997 283 OFFCURVE",
"845 103 OFFCURVE",
"604 103 CURVE SMOOTH",
"487 103 LINE SMOOTH"
);
}
);
width = 1271;
}
);
leftMetricsKey = H;
rightMetricsKey = O;
unicode = 0044;
},
{
glyphname = E;
lastChange = "2020-02-21 10:34:06 +0000";
layers = (
{
hints = (
{
origin = "{0, 20}";
type = Corner;
name = _corner.CapRightSerif;
},
{
origin = "{0, 21}";
type = Corner;
name = _corner.CapLeftSerif;
},
{
origin = "{0, 9}";
scale = "{1.5, 1}";
type = Corner;
name = _corner.CapLeftSerif;
},
{
origin = "{0, 10}";
scale = "{1.5, 1}";
type = Corner;
name = _corner.CapRightSerif;
}
);
layerId = "6B6AD122-EF8D-49FE-8C69-4BDE8C56BDD8";
paths = (
{
closed = 1;
nodes = (
"929 0 LINE",
"959 237 LINE",
"890 274 LINE",
"879 274 LINE",
"757 170 OFFCURVE",
"620 144 OFFCURVE",
"521 144 CURVE SMOOTH",
"405 144 LINE",
"405 515 LINE",
"754 515 LINE",
"754 654 LINE",
"405 654 LINE",
"405 1011 LINE",
"513 1011 LINE SMOOTH",
"604 1011 OFFCURVE",
"724 988 OFFCURVE",
"813 876 CURVE",
"824 876 LINE",
"889 899 LINE",
"889 1155 LINE",
"163 1155 LINE",
"163 0 LINE"
);
}
);
width = 1049;
},
{
hints = (
{
origin = "{0, 9}";
scale = "{0.74227, 0.74227}";
type = Corner;
name = _corner.CapLeftSerif;
},
{
origin = "{0, 10}";
scale = "{0.74227, 0.74227}";
type = Corner;
name = _corner.CapRightSerif;
},
{
origin = "{0, 20}";
scale = "{0.74227, 0.74227}";
type = Corner;
name = _corner.CapRightSerif;
},
{
origin = "{0, 21}";
scale = "{0.74227, 0.74227}";
type = Corner;
name = _corner.CapLeftSerif;
}
);
layerId = "34301EF7-A2BE-469F-9697-D6100B11FDFE";
paths = (
{
closed = 1;
nodes = (
"880 0 LINE",
"966 381 LINE",
"934 392 LINE",
"926 389 LINE",
"862 166 OFFCURVE",
"793 64 OFFCURVE",
"650 64 CURVE SMOOTH",
"345 64 LINE",
"345 530 LINE",
"694 530 LINE",
"694 594 LINE",
"345 594 LINE",
"345 1091 LINE",
"620 1091 LINE SMOOTH",
"762 1091 OFFCURVE",
"795 1027 OFFCURVE",
"825 769 CURVE",
"832 763 LINE",
"866 768 LINE",
"866 1155 LINE",
"225 1155 LINE",
"225 0 LINE"
);
}
);
width = 1066;
},
{
background = {
hints = (
{
origin = "{0, 0}";
type = Corner;
name = _corner.CapRightSerif;
},
{
origin = "{0, 1}";
type = Corner;
name = _corner.CapLeftSerif;
},
{
origin = "{0, 2}";
type = Corner;
name = _corner.CapRightSerif;
},
{
origin = "{0, 3}";
type = Corner;
name = _corner.CapLeftSerif;
},
{
origin = "{1, 0}";
type = Corner;
name = _corner.CapRightSerif;
},
{
origin = "{1, 1}";
type = Corner;
name = _corner.CapLeftSerif;
},
{
origin = "{1, 2}";
type = Corner;
name = _corner.CapRightSerif;
},
{
origin = "{1, 3}";
type = Corner;
name = _corner.CapLeftSerif;
}
);
paths = (
{
closed = 1;
nodes = (
"1174 0 LINE",
"1174 1155 LINE",
"1014 1155 LINE",
"1014 0 LINE"
);
},
{
closed = 1;
nodes = (
"409 0 LINE",
"409 1155 LINE",
"249 1155 LINE",
"249 0 LINE"
);
},
{
closed = 1;
nodes = (
"1038 528 LINE",
"1038 643 LINE",
"373 643 LINE",
"373 528 LINE"
);
}
);
};
hints = (
{
origin = "{0, 1}";
type = Corner;
name = _corner.CapRightSerif;
},
{
origin = "{0, 12}";
type = Corner;
name = _corner.CapLeftSerif;
},
{
origin = "{0, 13}";
type = Corner;
name = _corner.CapRightSerif;
},
{
origin = "{0, 2}";
type = Corner;
name = _corner.CapLeftSerif;
}
);
layerId = "CFF67ECA-3B2D-433B-B605-F38590C8F106";
paths = (
{
closed = 1;
nodes = (
"909 1155 LINE",
"249 1155 LINE",
"249 0 LINE {GSCorner = {name = _corner.CapLeftSerif;};}",
"939 0 LINE",
"989 362 LINE",
"939 373 LINE",
"931 369 LINE",
"856 163 OFFCURVE",
"767 107 OFFCURVE",
"661 107 CURVE SMOOTH",
"409 106 LINE",
"409 526 LINE",
"790 526 LINE",
"790 628 LINE",
"409 628 LINE",
"409 1049 LINE",
"723 1049 LINE SMOOTH",
"788 1049 OFFCURVE",
"839 1002 OFFCURVE",
"861 840 CURVE",
"868 836 LINE",
"920 843 LINE",
"920 1145 LINE"
);
}
);
width = 1052;
}
);
leftMetricsKey = H;
unicode = 0045;
},
{
glyphname = F;
lastChange = "2020-02-19 12:04:24 +0000";
layers = (
{
hints = (
{
origin = "{0, 14}";
type = Corner;
name = _corner.CapLeftSerif;
},
{
origin = "{0, 0}";
type = Corner;
name = _corner.CapRightSerif;
},
{
origin = "{0, 2}";
scale = "{1.5, 1}";
type = Corner;
name = _corner.CapLeftSerif;
},
{
origin = "{0, 3}";
scale = "{1.5, 1}";
type = Corner;
name = _corner.CapRightSerif;
},
{
origin = "{0, 13}";
type = Corner;
name = _corner.CapRightSerif;
}
);
layerId = "6B6AD122-EF8D-49FE-8C69-4BDE8C56BDD8";
paths = (
{
closed = 1;
nodes = (
"405 0 LINE",
"405 490 LINE",
"764 490 LINE",
"764 629 LINE",
"405 629 LINE",
"405 1011 LINE",
"513 1011 LINE SMOOTH",
"604 1011 OFFCURVE",
"734 988 OFFCURVE",
"823 866 CURVE",
"834 866 LINE",
"899 889 LINE",
"899 1155 LINE",
"163 1155 LINE",
"163 0 LINE"
);
}
);
width = 974;
},
{
hints = (
{
origin = "{0, 0}";
scale = "{0.81649, 0.74227}";
type = Corner;
name = _corner.CapRightSerif;
},
{
origin = "{0, 2}";
scale = "{0.74227, 0.74227}";
type = Corner;
name = _corner.CapLeftSerif;
},
{
origin = "{0, 3}";
scale = "{0.74227, 0.74227}";
type = Corner;
name = _corner.CapRightSerif;
},
{
origin = "{0, 14}";
scale = "{0.74227, 0.74227}";
type = Corner;
name = _corner.CapLeftSerif;
},
{
origin = "{0, 13}";
scale = "{0.74227, 0.74227}";
type = Corner;
name = _corner.CapRightSerif;
}
);
layerId = "34301EF7-A2BE-469F-9697-D6100B11FDFE";
paths = (
{
closed = 1;
nodes = (
"345 0 LINE",
"345 520 LINE",
"710 520 LINE",
"710 588 LINE",
"345 588 LINE",
"345 1091 LINE",
"640 1091 LINE SMOOTH",
"782 1091 OFFCURVE",
"798 1032 OFFCURVE",
"835 769 CURVE",
"842 763 LINE",
"876 768 LINE",
"876 1155 LINE",
"225 1155 LINE",
"225 0 LINE"
);
}
);
width = 976;
},
{
hints = (
{
origin = "{0, 5}";
type = Corner;
name = _corner.CapLeftSerif;
},
{
origin = "{0, 6}";
type = Corner;
name = _corner.CapRightSerif;
},
{
origin = "{0, 3}";
scale = "{1.2, 1}";
type = Corner;
name = _corner.CapRightSerif;
},
{
origin = "{0, 2}";
type = Corner;
name = _corner.CapLeftSerif;
},
{
origin = "{0, 1}";
type = Corner;
name = _corner.CapRightSerif;
}
);
layerId = "CFF67ECA-3B2D-433B-B605-F38590C8F106";
paths = (
{
closed = 1;
nodes = (
"919 1155 LINE",
"249 1155 LINE",
"249 0 LINE",
"409 0 LINE",
"409 530 LINE",
"791 530 LINE",
"791 632 LINE",
"409 632 LINE",
"409 1049 LINE",
"733 1049 LINE SMOOTH",
"798 1049 OFFCURVE",
"849 1002 OFFCURVE",
"871 840 CURVE",
"878 836 LINE",
"930 844 LINE",
"930 1145 LINE"
);
}
);
width = 1010;
}
);
leftMetricsKey = H;
unicode = 0046;
},
{
glyphname = G;
lastChange = "2020-02-19 18:07:24 +0000";
layers = (
{
hints = (
{
origin = "{0, 4}";
scale = "{1.4, 1}";
type = Corner;
name = _corner.CapRightSerif;
},
{
origin = "{0, 3}";
type = Corner;
name = _corner.CapLeftSerif;
}
);
layerId = "6B6AD122-EF8D-49FE-8C69-4BDE8C56BDD8";
paths = (
{
closed = 1;
nodes = (
"788 -41 OFFCURVE",
"938 -3 OFFCURVE",
"1064 41 CURVE",
"1064 558 LINE",
"825 559 LINE",
"825 146 LINE",
"788 125 OFFCURVE",
"746 111 OFFCURVE",
"696 111 CURVE SMOOTH",
"492 111 OFFCURVE",
"345 335 OFFCURVE",
"345 615 CURVE SMOOTH",
"345 871 OFFCURVE",
"460 1029 OFFCURVE",
"635 1029 CURVE SMOOTH",
"783 1029 OFFCURVE",
"865 919 OFFCURVE",
"900 843 CURVE",
"992 847 LINE",
"992 1136 LINE",
"885 1169 OFFCURVE",
"783 1185 OFFCURVE",
"703 1185 CURVE SMOOTH",
"399 1185 OFFCURVE",
"80 945 OFFCURVE",
"80 552 CURVE SMOOTH",
"80 255 OFFCURVE",
"251 -41 OFFCURVE",
"648 -41 CURVE SMOOTH"
);
}
);
width = 1227;
},
{
hints = (
{
origin = "{0, 3}";
scale = "{0.51959, 0.74227}";
type = Corner;
name = _corner.CapLeftSerif;
},
{
origin = "{0, 4}";
scale = "{0.74227, 0.74227}";
type = Corner;
name = _corner.CapRightSerif;
}
);
layerId = "34301EF7-A2BE-469F-9697-D6100B11FDFE";
paths = (
{
closed = 1;
nodes = (
"738 -41 OFFCURVE",
"864 -10 OFFCURVE",
"990 56 CURVE",
"990 538 LINE",
"869 538 LINE",
"869 96 LINE",
"813 49 OFFCURVE",
"726 15 OFFCURVE",
"632 15 CURVE SMOOTH",
"354 15 OFFCURVE",
"218 319 OFFCURVE",
"218 606 CURVE SMOOTH",
"218 900 OFFCURVE",
"374 1125 OFFCURVE",
"622 1125 CURVE SMOOTH",
"785 1125 OFFCURVE",
"877 1028 OFFCURVE",
"922 765 CURVE",
"964 765 LINE",
"964 1094 LINE",
"879 1158 OFFCURVE",
"763 1185 OFFCURVE",
"654 1185 CURVE SMOOTH",
"332 1185 OFFCURVE",
"80 950 OFFCURVE",
"80 564 CURVE SMOOTH",
"80 239 OFFCURVE",
"289 -41 OFFCURVE",
"618 -41 CURVE SMOOTH"
);
}
);
width = 1151;
},
{
hints = (
{
origin = "{0, 4}";
type = Corner;
name = _corner.CapRightSerif;
},
{
origin = "{0, 3}";
scale = "{0.7, 1}";
type = Corner;
name = _corner.CapLeftSerif;
}
);
layerId = "CFF67ECA-3B2D-433B-B605-F38590C8F106";
paths = (
{
closed = 1;
nodes = (
"766 -30 OFFCURVE",
"903 0 OFFCURVE",
"1038 61 CURVE",
"1038 557 LINE",
"878 557 LINE",
"878 122 LINE",
"826 87 OFFCURVE",
"752 61 OFFCURVE",
"676 61 CURVE SMOOTH",
"430 61 OFFCURVE",
"270 337 OFFCURVE",
"270 613 CURVE SMOOTH",
"270 882 OFFCURVE",
"405 1076 OFFCURVE",
"630 1076 CURVE SMOOTH",
"816 1076 OFFCURVE",
"896 947 OFFCURVE",
"926 811 CURVE",
"986 815 LINE",
"986 1132 LINE",
"875 1167 OFFCURVE",
"769 1185 OFFCURVE",
"682 1185 CURVE SMOOTH",
"364 1185 OFFCURVE",
"98 948 OFFCURVE",
"98 574 CURVE SMOOTH",
"98 256 OFFCURVE",
"294 -30 OFFCURVE",
"645 -30 CURVE SMOOTH"
);
}
);
width = 1242;
}
);
leftMetricsKey = O;
unicode = 0047;
},
{
glyphname = H;
lastChange = "2020-02-21 10:34:18 +0000";
layers = (
{
hints = (
{
origin = "{0, 0}";
type = Corner;
name = _corner.CapRightSerif;
},
{
origin = "{0, 2}";
type = Corner;
name = _corner.CapRightSerif;
},
{
origin = "{1, 0}";
type = Corner;
name = _corner.CapRightSerif;
},
{
origin = "{1, 2}";
type = Corner;
name = _corner.CapRightSerif;
},
{
origin = "{0, 3}";
type = Corner;
name = _corner.CapLeftSerif;
},
{
origin = "{0, 1}";
type = Corner;
name = _corner.CapLeftSerif;
},
{
origin = "{1, 3}";
type = Corner;
name = _corner.CapLeftSerif;
},
{
origin = "{1, 1}";
type = Corner;
name = _corner.CapLeftSerif;
}
);
layerId = "6B6AD122-EF8D-49FE-8C69-4BDE8C56BDD8";
paths = (
{
closed = 1;
nodes = (
"1118 0 LINE",
"1118 1155 LINE",
"877 1155 LINE",
"877 0 LINE"
);
},
{
closed = 1;
nodes = (
"405 0 LINE",
"405 1155 LINE",
"163 1155 LINE",
"163 0 LINE"
);
},
{
closed = 1;
nodes = (
"944 520 LINE",
"944 666 LINE",
"303 666 LINE",
"303 520 LINE"
);
}
);
width = 1281;
},
{
hints = (
{
origin = "{0, 0}";
scale = "{0.74227, 0.74227}";
type = Corner;
name = _corner.CapRightSerif;
},
{
origin = "{0, 1}";
scale = "{0.74227, 0.74227}";
type = Corner;
name = _corner.CapLeftSerif;
},
{
origin = "{0, 2}";
scale = "{0.74227, 0.74227}";
type = Corner;
name = _corner.CapRightSerif;
},
{
origin = "{0, 3}";
scale = "{0.74227, 0.74227}";
type = Corner;
name = _corner.CapLeftSerif;
},
{
origin = "{1, 0}";
scale = "{0.74227, 0.74227}";
type = Corner;
name = _corner.CapRightSerif;
},
{
origin = "{1, 1}";
scale = "{0.74227, 0.74227}";
type = Corner;
name = _corner.CapLeftSerif;
},
{
origin = "{1, 2}";
scale = "{0.74227, 0.74227}";
type = Corner;
name = _corner.CapRightSerif;
},
{
origin = "{1, 3}";
scale = "{0.74227, 0.74227}";
type = Corner;
name = _corner.CapLeftSerif;
}
);
layerId = "34301EF7-A2BE-469F-9697-D6100B11FDFE";
paths = (
{
closed = 1;
nodes = (
"1088 0 LINE",
"1088 1155 LINE",
"968 1155 LINE",
"968 0 LINE"
);
},
{
closed = 1;
nodes = (
"345 0 LINE",
"345 1155 LINE",
"225 1155 LINE",
"225 0 LINE"
);
},
{
closed = 1;
nodes = (
"983 573 LINE",
"983 637 LINE",
"326 637 LINE",
"326 573 LINE"
);
}
);
width = 1313;
},
{
hints = (
{
origin = "{1, 0}";
type = Corner;
name = _corner.CapRightSerif;
},
{
origin = "{1, 1}";
type = Corner;
name = _corner.CapLeftSerif;
},
{
origin = "{1, 2}";
type = Corner;
name = _corner.CapRightSerif;
},
{
origin = "{1, 3}";
type = Corner;
name = _corner.CapLeftSerif;
},
{
origin = "{0, 0}";
type = Corner;
name = _corner.CapRightSerif;
},
{
origin = "{0, 1}";
type = Corner;
name = _corner.CapLeftSerif;
},
{
origin = "{0, 2}";
type = Corner;
name = _corner.CapRightSerif;
},
{
origin = "{0, 3}";
type = Corner;
name = _corner.CapLeftSerif;
}
);
layerId = "CFF67ECA-3B2D-433B-B605-F38590C8F106";
paths = (
{
closed = 1;
nodes = (
"1174 0 LINE",
"1174 1155 LINE",
"1014 1155 LINE",
"1014 0 LINE"
);
},
{
closed = 1;
nodes = (
"409 0 LINE",
"409 1155 LINE",
"249 1155 LINE",
"249 0 LINE"
);
},
{
closed = 1;
nodes = (
"1038 528 LINE",
"1038 643 LINE",
"373 643 LINE",
"373 528 LINE"
);
}
);
width = 1423;
}
);
unicode = 0048;
},
{
glyphname = I;
lastChange = "2020-02-19 08:23:52 +0000";
layers = (
{
hints = (
{
origin = "{0, 0}";
type = Corner;
name = _corner.CapRightSerif;
},
{
origin = "{0, 2}";
type = Corner;
name = _corner.CapRightSerif;
},
{
origin = "{0, 3}";
type = Corner;
name = _corner.CapLeftSerif;
},
{
origin = "{0, 1}";
type = Corner;
name = _corner.CapLeftSerif;
}
);
layerId = "6B6AD122-EF8D-49FE-8C69-4BDE8C56BDD8";
paths = (
{
closed = 1;
nodes = (
"405 0 LINE",
"405 1155 LINE",
"163 1155 LINE",
"163 0 LINE"
);
}
);
width = 568;
},
{
hints = (
{
origin = "{0, 0}";
scale = "{0.74227, 0.74227}";
type = Corner;
name = _corner.CapRightSerif;
},
{
origin = "{0, 1}";
scale = "{0.74227, 0.74227}";
type = Corner;
name = _corner.CapLeftSerif;
},
{
origin = "{0, 2}";
scale = "{0.74227, 0.74227}";
type = Corner;
name = _corner.CapRightSerif;
},
{
origin = "{0, 3}";
scale = "{0.74227, 0.74227}";
type = Corner;
name = _corner.CapLeftSerif;
}
);
layerId = "34301EF7-A2BE-469F-9697-D6100B11FDFE";
paths = (
{
closed = 1;
nodes = (
"345 0 LINE",
"345 1155 LINE",
"225 1155 LINE",
"225 0 LINE"
);
}
);
width = 570;
},
{
hints = (
{
origin = "{0, 0}";
type = Corner;
name = _corner.CapRightSerif;
},
{
origin = "{0, 2}";
type = Corner;
name = _corner.CapRightSerif;
},
{
origin = "{0, 3}";
type = Corner;
name = _corner.CapLeftSerif;
},
{
origin = "{0, 1}";
type = Corner;
name = _corner.CapLeftSerif;
}
);
layerId = "CFF67ECA-3B2D-433B-B605-F38590C8F106";
paths = (
{
closed = 1;
nodes = (
"409 0 LINE",
"409 1155 LINE",
"249 1155 LINE",
"249 0 LINE"
);
}
);
width = 658;
}
);
leftMetricsKey = H;
rightMetricsKey = H;
unicode = 0049;
},
{
glyphname = J;
lastChange = "2020-02-13 14:31:57 +0000";
layers = (
{
hints = (
{
origin = "{0, 3}";
type = Corner;
name = _corner.CapLeftSerif;
},
{
origin = "{0, 4}";
type = Corner;
name = _corner.CapRightSerif;
}
);
layerId = "6B6AD122-EF8D-49FE-8C69-4BDE8C56BDD8";
paths = (
{
closed = 1;
nodes = (
"504 -30 OFFCURVE",
"695 62 OFFCURVE",
"695 264 CURVE SMOOTH",
"695 1186 LINE",
"453 1186 LINE",
"453 221 LINE SMOOTH",
"453 157 OFFCURVE",
"434 111 OFFCURVE",
"369 111 CURVE SMOOTH",
"308 111 OFFCURVE",
"272 154 OFFCURVE",
"272 209 CURVE SMOOTH",
"272 235 OFFCURVE",
"280 265 OFFCURVE",
"291 295 CURVE",
"289 309 LINE",
"246 341 OFFCURVE",
"203 354 OFFCURVE",
"165 354 CURVE SMOOTH",
"73 354 OFFCURVE",
"10 281 OFFCURVE",
"10 191 CURVE SMOOTH",
"10 67 OFFCURVE",
"119 -30 OFFCURVE",
"312 -30 CURVE SMOOTH"
);
}
);
width = 858;
},
{
hints = (
{
origin = "{0, 3}";
scale = "{0.74227, 0.74227}";
type = Corner;
name = _corner.CapLeftSerif;
},
{
origin = "{0, 4}";
scale = "{0.74227, 0.74227}";
type = Corner;
name = _corner.CapRightSerif;
}
);
layerId = "34301EF7-A2BE-469F-9697-D6100B11FDFE";
paths = (
{
closed = 1;
nodes = (
"463 -30 OFFCURVE",
"595 44 OFFCURVE",
"595 244 CURVE SMOOTH",
"595 1155 LINE",
"475 1155 LINE",
"475 238 LINE SMOOTH",
"475 138 OFFCURVE",
"440 27 OFFCURVE",
"325 27 CURVE SMOOTH",
"258 27 OFFCURVE",
"202 64 OFFCURVE",
"202 128 CURVE SMOOTH",
"202 164 OFFCURVE",
"219 195 OFFCURVE",
"243 214 CURVE",
"248 227 LINE",
"231 249 OFFCURVE",
"208 256 OFFCURVE",
"188 256 CURVE SMOOTH",
"127 256 OFFCURVE",
"80 201 OFFCURVE",
"80 134 CURVE SMOOTH",
"80 48 OFFCURVE",
"158 -30 OFFCURVE",
"322 -30 CURVE SMOOTH"
);
}
);
width = 819;
},
{
hints = (
{
origin = "{0, 4}";
type = Corner;
name = _corner.CapRightSerif;
},
{
origin = "{0, 3}";
type = Corner;
name = _corner.CapLeftSerif;
}
);
layerId = "CFF67ECA-3B2D-433B-B605-F38590C8F106";
paths = (
{
closed = 1;
nodes = (
"417 -30 OFFCURVE",
"583 23 OFFCURVE",
"583 294 CURVE SMOOTH",
"583 1155 LINE",
"422 1155 LINE",
"422 306 LINE SMOOTH",
"422 161 OFFCURVE",
"372 70 OFFCURVE",
"277 70 CURVE SMOOTH",
"235 70 OFFCURVE",
"182 88 OFFCURVE",
"182 151 CURVE SMOOTH",
"182 182 OFFCURVE",
"195 209 OFFCURVE",
"214 232 CURVE",
"214 246 LINE",
"190 269 OFFCURVE",
"165 277 OFFCURVE",
"142 277 CURVE SMOOTH",
"75 277 OFFCURVE",
"20 212 OFFCURVE",
"20 138 CURVE SMOOTH",
"20 51 OFFCURVE",
"98 -30 OFFCURVE",
"271 -30 CURVE SMOOTH"
);
}
);
width = 832;
}
);
rightMetricsKey = H;
unicode = 004A;
},
{
glyphname = K;
lastChange = "2020-02-19 12:09:14 +0000";
layers = (
{
hints = (
{
origin = "{1, 0}";
scale = "{0.96, 0.96}";
type = Corner;
name = _corner.CapRightSerif;
},
{
origin = "{1, 2}";
scale = "{0.96, 0.96}";
type = Corner;
name = _corner.CapRightSerif;
},
{
origin = "{1, 3}";
scale = "{0.96, 0.96}";
type = Corner;
name = _corner.CapLeftSerif;
},
{
origin = "{1, 1}";
scale = "{0.96, 0.96}";
type = Corner;
name = _corner.CapLeftSerif;
}
);
layerId = "6B6AD122-EF8D-49FE-8C69-4BDE8C56BDD8";
paths = (
{
closed = 1;
nodes = (
"940 988 LINE SMOOTH",
"984 1029 OFFCURVE",
"1043 1069 OFFCURVE",
"1116 1095 CURVE",
"1116 1106 LINE",
"1106 1155 LINE",
"772 1155 LINE",
"739 1109 LINE",
"739 1099 LINE",
"759 1060 OFFCURVE",
"756 1009 OFFCURVE",
"677 934 CURVE SMOOTH",
"382 653 LINE",
"377 461 LINE"
);
},
{
closed = 1;
nodes = (
"403 0 LINE",
"403 1155 LINE",
"161 1155 LINE",
"161 0 LINE"
);
},
{
closed = 1;
nodes = (
"1113 0 LINE",
"1126 48 LINE",
"1126 62 LINE",
"1092 80 OFFCURVE",
"1025 117 OFFCURVE",
"983 188 CURVE SMOOTH",
"642 766 LINE",
"490 596 LINE",
"698 197 LINE SMOOTH",
"739 119 OFFCURVE",
"748 86 OFFCURVE",
"711 55 CURVE",
"711 44 LINE",
"733 0 LINE"
);
}
);
width = 1131;
},
{
hints = (
{
origin = "{1, 0}";
scale = "{0.74227, 0.74227}";
type = Corner;
name = _corner.CapRightSerif;
},
{
origin = "{1, 1}";
scale = "{0.74227, 0.74227}";
type = Corner;
name = _corner.CapLeftSerif;
},
{
origin = "{1, 2}";
scale = "{0.74227, 0.74227}";
type = Corner;
name = _corner.CapRightSerif;
},
{
origin = "{1, 3}";
scale = "{0.74227, 0.74227}";
type = Corner;
name = _corner.CapLeftSerif;
}
);
layerId = "34301EF7-A2BE-469F-9697-D6100B11FDFE";
paths = (
{
closed = 1;
nodes = (
"885 980 LINE SMOOTH",
"991 1075 OFFCURVE",
"1072 1108 OFFCURVE",
"1107 1117 CURVE",
"1111 1122 LINE",
"1105 1155 LINE",
"741 1155 LINE",
"738 1122 LINE",
"742 1117 LINE",
"846 1101 OFFCURVE",
"866 1051 OFFCURVE",
"790 983 CURVE SMOOTH",
"295 538 LINE",
"295 449 LINE"
);
},
{
closed = 1;
nodes = (
"345 0 LINE",
"345 1155 LINE",
"225 1155 LINE",
"225 0 LINE"
);
},
{
closed = 1;
nodes = (
"1127 0 LINE",
"1134 32 LINE",
"1131 38 LINE",
"1085 49 OFFCURVE",
"1025 86 OFFCURVE",
"956 186 CURVE SMOOTH",
"580 731 LINE",
"494 641 LINE",
"832 146 LINE SMOOTH",
"884 70 OFFCURVE",
"863 53 OFFCURVE",
"744 38 CURVE",
"740 33 LINE",
"743 0 LINE"
);
}
);
width = 1104;
},
{
hints = (
{
origin = "{1, 0}";
type = Corner;
name = _corner.CapRightSerif;
},
{
origin = "{1, 1}";
type = Corner;
name = _corner.CapLeftSerif;
},
{
origin = "{1, 2}";
type = Corner;
name = _corner.CapRightSerif;
},
{
origin = "{1, 3}";
type = Corner;
name = _corner.CapLeftSerif;
}
);
layerId = "CFF67ECA-3B2D-433B-B605-F38590C8F106";
paths = (
{
closed = 1;
nodes = (
"954 979 LINE SMOOTH",
"1028 1050 OFFCURVE",
"1079 1078 OFFCURVE",
"1149 1103 CURVE",
"1155 1111 LINE",
"1150 1155 LINE",
"744 1155 LINE",
"740 1112 LINE",
"745 1105 LINE",
"880 1080 OFFCURVE",
"878 1048 OFFCURVE",
"801 972 CURVE SMOOTH",
"398 577 LINE",
"398 442 LINE"
);
},
{
closed = 1;
nodes = (
"409 0 LINE",
"409 1155 LINE",
"249 1155 LINE",
"249 0 LINE"
);
},
{
closed = 1;
nodes = (
"1174 0 LINE",
"1178 49 LINE",
"1173 56 LINE",
"1113 71 OFFCURVE",
"1033 116 OFFCURVE",
"977 196 CURVE SMOOTH",
"624 703 LINE",
"501 590 LINE",
"799 156 LINE SMOOTH",
"844 90 OFFCURVE",
"835 72 OFFCURVE",
"733 51 CURVE",
"728 44 LINE",
"733 0 LINE"
);
}
);
width = 1188;
}
);
leftMetricsKey = H;
unicode = 004B;
},
{
glyphname = L;
lastChange = "2020-02-13 14:32:20 +0000";
layers = (
{
hints = (
{
origin = "{0, 9}";
scale = "{0.96, 0.96}";
type = Corner;
name = _corner.CapRightSerif;
},
{
origin = "{0, 10}";
scale = "{0.96, 0.96}";
type = Corner;
name = _corner.CapLeftSerif;
},
{
origin = "{0, 8}";
scale = "{0.96, 0.96}";
type = Corner;
name = _corner.CapLeftSerif;
}
);
layerId = "6B6AD122-EF8D-49FE-8C69-4BDE8C56BDD8";
paths = (
{
closed = 1;
nodes = (
"892 -2 LINE",
"946 299 LINE",
"874 344 LINE",
"861 344 LINE",
"758 240 OFFCURVE",
"645 140 OFFCURVE",
"481 140 CURVE SMOOTH",
"403 140 LINE",
"403 1155 LINE",
"161 1155 LINE",
"161 -2 LINE"
);
}
);
width = 996;
},
{
hints = (
{
origin = "{0, 8}";
scale = "{0.74227, 0.74227}";
type = Corner;
name = _corner.CapLeftSerif;
},
{
origin = "{0, 9}";
scale = "{0.74227, 0.74227}";
type = Corner;
name = _corner.CapRightSerif;
},
{
origin = "{0, 10}";
scale = "{0.74227, 0.74227}";
type = Corner;
name = _corner.CapLeftSerif;
}
);
layerId = "34301EF7-A2BE-469F-9697-D6100B11FDFE";
paths = (
{
closed = 1;
nodes = (
"927 0 LINE",
"1013 411 LINE",
"981 422 LINE",
"973 419 LINE",
"885 188 OFFCURVE",
"820 64 OFFCURVE",
"677 64 CURVE SMOOTH",
"345 64 LINE",
"345 1155 LINE",
"225 1155 LINE",
"225 0 LINE"
);
}
);
width = 1053;
},
{
hints = (
{
origin = "{0, 10}";
type = Corner;
name = _corner.CapLeftSerif;
},
{
origin = "{0, 8}";
type = Corner;
name = _corner.CapLeftSerif;
},
{
origin = "{0, 9}";
type = Corner;
name = _corner.CapRightSerif;
}
);
layerId = "CFF67ECA-3B2D-433B-B605-F38590C8F106";
paths = (
{
closed = 1;
nodes = (
"939 0 LINE",
"989 361 LINE",
"939 372 LINE",
"931 368 LINE",
"856 162 OFFCURVE",
"767 106 OFFCURVE",
"661 106 CURVE SMOOTH",
"409 106 LINE",
"409 1155 LINE",
"249 1155 LINE",
"249 0 LINE"
);
}
);
width = 991;
}
);
leftMetricsKey = H;
unicode = 004C;
},
{
glyphname = M;
lastChange = "2020-02-19 12:03:46 +0000";
layers = (
{
hints = (
{
origin = "{0, 5}";
type = Corner;
name = _corner.CapLeftSerif;
},
{
origin = "{0, 12}";
type = Corner;
name = _corner.CapLeftSerif;
},
{
origin = "{0, 6}";
type = Corner;
name = _corner.CapRightSerif;
},
{
origin = "{0, 0}";
type = Corner;
name = _corner.CapRightSerif;
},
{
origin = "{0, 11}";
type = Corner;
name = _corner.CapRightSerif;
},
{
origin = "{0, 7}";
type = Corner;
name = _corner.CapLeftSerif;
}
);
layerId = "6B6AD122-EF8D-49FE-8C69-4BDE8C56BDD8";
paths = (
{
closed = 1;
nodes = (
"315 0 LINE",
"315 793 LINE",
"617 0 LINE",
"798 0 LINE",
"1074 833 LINE",
"1074 0 LINE",
"1315 0 LINE",
"1315 1155 LINE",
"1033 1155 LINE",
"752 304 LINE",
"441 1155 LINE",
"163 1155 LINE",
"163 0 LINE"
);
}
);
width = 1478;
},
{
hints = (
{
origin = "{0, 0}";
scale = "{0.74227, 0.74227}";
type = Corner;
name = _corner.CapRightSerif;
},
{
origin = "{0, 11}";
scale = "{0.74227, 0.74227}";
type = Corner;
name = _corner.CapRightSerif;
},
{
origin = "{0, 12}";
scale = "{0.74227, 0.74227}";
type = Corner;
name = _corner.CapLeftSerif;
},
{
origin = "{0, 6}";
scale = "{0.74227, 0.74227}";
type = Corner;
name = _corner.CapRightSerif;
},
{
origin = "{0, 7}";
scale = "{0.74227, 0.74227}";
type = Corner;
name = _corner.CapLeftSerif;
},
{
origin = "{0, 5}";
scale = "{0.74227, 0.74227}";
type = Corner;
name = _corner.CapLeftSerif;
}
);
layerId = "34301EF7-A2BE-469F-9697-D6100B11FDFE";
paths = (
{
closed = 1;
nodes = (
"296 0 LINE",
"296 996 LINE",
"730 0 LINE",
"796 0 LINE",
"1208 979 LINE",
"1208 0 LINE",
"1328 0 LINE",
"1328 1155 LINE",
"1208 1155 LINE",
"800 164 LINE",
"374 1155 LINE",
"225 1155 LINE",
"225 0 LINE"
);
}
);
width = 1553;
},
{
hints = (
{
origin = "{0, 3}";
type = Corner;
name = _corner.CapRightSerif;
},
{
origin = "{0, 8}";
type = Corner;
name = _corner.CapRightSerif;
},
{
origin = "{0, 10}";
type = Corner;
name = _corner.CapRightSerif;
},
{
origin = "{0, 4}";
type = Corner;
name = _corner.CapLeftSerif;
},
{
origin = "{0, 9}";
type = Corner;
name = _corner.CapLeftSerif;
},
{
origin = "{0, 2}";
type = Corner;
name = _corner.CapLeftSerif;
},
{
origin = "{0, 2}";
type = Corner;
name = _corner.CapLeftSerif;
},
{
origin = "{0, 3}";
type = Corner;
name = _corner.CapRightSerif;
},
{
origin = "{0, 4}";
type = Corner;
name = _corner.CapLeftSerif;
},
{
origin = "{0, 8}";
type = Corner;
name = _corner.CapRightSerif;
},
{
origin = "{0, 9}";
type = Corner;
name = _corner.CapLeftSerif;
},
{
origin = "{0, 10}";
type = Corner;
name = _corner.CapRightSerif;
}
);
layerId = "CFF67ECA-3B2D-433B-B605-F38590C8F106";
paths = (
{
closed = 1;
nodes = (
"1186 938 LINE",
"1175 778 LINE",
"1175 0 LINE",
"1333 0 LINE",
"1333 1155 LINE",
"1146 1155 LINE",
"810 228 LINE",
"445 1155 LINE",
"249 1155 LINE",
"249 0 LINE",
"363 0 LINE",
"363 920 LINE",
"371 920 LINE",
"405 793 LINE",
"726 0 LINE",
"840 0 LINE",
"1179 938 LINE"
);
}
);
width = 1582;
}
);
leftMetricsKey = H;
rightMetricsKey = H;
unicode = 004D;
},
{
glyphname = N;
lastChange = "2020-02-19 17:17:52 +0000";
layers = (
{
hints = (
{
origin = "{0, 0}";
type = Corner;
name = _corner.CapRightSerif;
},
{
origin = "{0, 8}";
type = Corner;
name = _corner.CapRightSerif;
},
{
origin = "{0, 9}";
type = Corner;
name = _corner.CapLeftSerif;
},
{
origin = "{0, 5}";
type = Corner;
name = _corner.CapRightSerif;
},
{
origin = "{0, 4}";
type = Corner;
name = _corner.CapLeftSerif;
}
);
layerId = "6B6AD122-EF8D-49FE-8C69-4BDE8C56BDD8";
paths = (
{
closed = 1;
nodes = (
"315 0 LINE",
"315 855 LINE",
"886 0 LINE",
"1049 0 LINE",
"1049 1155 LINE",
"897 1155 LINE",
"897 427 LINE",
"424 1155 LINE",
"163 1155 LINE",
"163 0 LINE"
);
}
);
width = 1212;
},
{
hints = (
{
origin = "{0, 0}";
scale = "{0.74227, 0.74227}";
type = Corner;
name = _corner.CapRightSerif;
},
{
origin = "{0, 8}";
scale = "{0.74227, 0.74227}";
type = Corner;
name = _corner.CapRightSerif;
},
{
origin = "{0, 9}";
scale = "{0.74227, 0.74227}";
type = Corner;
name = _corner.CapLeftSerif;
},
{
origin = "{0, 5}";
scale = "{0.74227, 0.74227}";
type = Corner;
name = _corner.CapRightSerif;
},
{
origin = "{0, 4}";
scale = "{0.74227, 0.74227}";
type = Corner;
name = _corner.CapLeftSerif;
}
);
layerId = "34301EF7-A2BE-469F-9697-D6100B11FDFE";
paths = (
{
closed = 1;
nodes = (
"296 0 LINE",
"296 972 LINE",
"1031 0 LINE",
"1072 0 LINE",
"1072 1155 LINE",
"1001 1155 LINE",
"1001 239 LINE",
"313 1155 LINE",
"225 1155 LINE",
"225 0 LINE"
);
}
);
width = 1296;
},
{
hints = (
{
origin = "{0, 11}";
type = Corner;
name = _corner.CapLeftSerif;
},
{
origin = "{0, 4}";
type = Corner;
name = _corner.CapLeftSerif;
},
{
origin = "{0, 12}";
type = Corner;
name = _corner.CapRightSerif;
},
{
origin = "{0, 3}";
type = Corner;
name = _corner.CapRightSerif;
},
{
origin = "{0, 5}";
type = Corner;
name = _corner.CapRightSerif;
}
);
layerId = "CFF67ECA-3B2D-433B-B605-F38590C8F106";
paths = (
{
closed = 1;
nodes = (
"997 293 LINE",
"960 374 LINE",
"410 1155 LINE",
"249 1155 LINE",
"249 0 LINE",
"363 0 LINE",
"363 936 LINE",
"370 936 LINE",
"411 851 LINE",
"1025 0 LINE",
"1118 0 LINE",
"1118 1155 LINE",
"1004 1155 LINE",
"1004 293 LINE"
);
}
);
width = 1367;
}
);
leftMetricsKey = H;
rightMetricsKey = H;
unicode = 004E;
},
{
glyphname = O;
lastChange = "2020-02-13 14:30:14 +0000";
layers = (
{
layerId = "6B6AD122-EF8D-49FE-8C69-4BDE8C56BDD8";
paths = (
{
closed = 1;
nodes = (
"913 -33 OFFCURVE",
"1138 197 OFFCURVE",
"1138 575 CURVE SMOOTH",
"1138 941 OFFCURVE",
"913 1183 OFFCURVE",
"610 1183 CURVE SMOOTH",
"308 1183 OFFCURVE",
"80 941 OFFCURVE",
"80 575 CURVE SMOOTH",
"80 197 OFFCURVE",
"308 -33 OFFCURVE",
"610 -33 CURVE SMOOTH"
);
},
{
closed = 1;
nodes = (
"450 114 OFFCURVE",
"343 403 OFFCURVE",
"343 641 CURVE SMOOTH",
"343 873 OFFCURVE",
"438 1037 OFFCURVE",
"579 1037 CURVE SMOOTH",
"769 1037 OFFCURVE",
"875 747 OFFCURVE",
"875 507 CURVE SMOOTH",
"875 276 OFFCURVE",
"781 114 OFFCURVE",
"640 114 CURVE SMOOTH"
);
}
);
width = 1218;
},
{
layerId = "34301EF7-A2BE-469F-9697-D6100B11FDFE";
paths = (
{
closed = 1;
nodes = (
"883 -30 OFFCURVE",
"1114 212 OFFCURVE",
"1114 578 CURVE SMOOTH",
"1114 933 OFFCURVE",
"883 1185 OFFCURVE",
"598 1185 CURVE SMOOTH",
"313 1185 OFFCURVE",
"80 933 OFFCURVE",
"80 578 CURVE SMOOTH",
"80 212 OFFCURVE",
"313 -30 OFFCURVE",
"598 -30 CURVE SMOOTH"
);
},
{
closed = 1;
nodes = (
"388 33 OFFCURVE",
"218 249 OFFCURVE",
"218 578 CURVE SMOOTH",
"218 916 OFFCURVE",
"388 1122 OFFCURVE",
"598 1122 CURVE SMOOTH",
"807 1122 OFFCURVE",
"976 916 OFFCURVE",
"976 578 CURVE SMOOTH",
"976 249 OFFCURVE",
"807 33 OFFCURVE",
"598 33 CURVE SMOOTH"
);
}
);
width = 1194;
},
{
layerId = "CFF67ECA-3B2D-433B-B605-F38590C8F106";
paths = (
{
closed = 1;
nodes = (
"931 -33 OFFCURVE",
"1156 219 OFFCURVE",
"1156 575 CURVE SMOOTH",
"1156 931 OFFCURVE",
"931 1183 OFFCURVE",
"628 1183 CURVE SMOOTH",
"326 1183 OFFCURVE",
"98 931 OFFCURVE",
"98 575 CURVE SMOOTH",
"98 219 OFFCURVE",
"326 -33 OFFCURVE",
"628 -33 CURVE SMOOTH"
);
},
{
closed = 1;
nodes = (
"407 73 OFFCURVE",
"269 337 OFFCURVE",
"269 609 CURVE SMOOTH",
"269 883 OFFCURVE",
"413 1077 OFFCURVE",
"613 1077 CURVE SMOOTH",
"848 1077 OFFCURVE",
"985 813 OFFCURVE",
"985 541 CURVE SMOOTH",
"985 267 OFFCURVE",
"842 73 OFFCURVE",
"643 73 CURVE SMOOTH"
);
}
);
width = 1254;
}
);
note = "Remeber to Make out side circle round and tilt inner";
unicode = 004F;
},
{
glyphname = P;
lastChange = "2020-02-13 14:32:41 +0000";
layers = (
{
hints = (
{
origin = "{0, 0}";
scale = "{1.35, 1}";
type = Corner;
name = _corner.CapRightSerif;
},
{
origin = "{0, 11}";
scale = "{0.96, 1}";
type = Corner;
name = _corner.CapRightSerif;
},
{
origin = "{0, 12}";
scale = "{0.96, 1}";
type = Corner;
name = _corner.CapLeftSerif;
}
);
layerId = "6B6AD122-EF8D-49FE-8C69-4BDE8C56BDD8";
paths = (
{
closed = 1;
nodes = (
"403 0 LINE",
"403 411 LINE",
"453 399 OFFCURVE",
"503 395 OFFCURVE",
"546 395 CURVE SMOOTH",
"778 395 OFFCURVE",
"963 545 OFFCURVE",
"963 775 CURVE SMOOTH",
"963 941 OFFCURVE",
"862 1155 OFFCURVE",
"572 1155 CURVE SMOOTH",
"161 1155 LINE",
"161 0 LINE"
);
},
{
closed = 1;
nodes = (
"503 519 OFFCURVE",
"462 532 OFFCURVE",
"403 548 CURVE",
"403 1013 LINE",
"477 1013 LINE SMOOTH",
"638 1013 OFFCURVE",
"717 903 OFFCURVE",
"717 746 CURVE SMOOTH",
"717 634 OFFCURVE",
"676 519 OFFCURVE",
"550 519 CURVE SMOOTH"
);
}
);
width = 1038;
},
{
hints = (
{
origin = "{0, 0}";
scale = "{0.81649, 0.74227}";
type = Corner;
name = _corner.CapRightSerif;
},
{
origin = "{0, 11}";
scale = "{0.74227, 0.74227}";
type = Corner;
name = _corner.CapRightSerif;
},
{
origin = "{0, 12}";
scale = "{0.74227, 0.74227}";
type = Corner;
name = _corner.CapLeftSerif;
}
);
layerId = "34301EF7-A2BE-469F-9697-D6100B11FDFE";
paths = (
{
closed = 1;
nodes = (
"345 0 LINE",
"345 448 LINE",
"411 431 OFFCURVE",
"475 426 OFFCURVE",
"520 426 CURVE SMOOTH",
"797 426 OFFCURVE",
"921 616 OFFCURVE",
"921 798 CURVE SMOOTH",
"921 974 OFFCURVE",
"807 1155 OFFCURVE",
"535 1155 CURVE SMOOTH",
"225 1155 LINE",
"225 0 LINE"
);
},
{
closed = 1;
nodes = (
"486 486 OFFCURVE",
"414 498 OFFCURVE",
"345 523 CURVE",
"345 1095 LINE",
"504 1095 LINE SMOOTH",
"751 1095 OFFCURVE",
"793 918 OFFCURVE",
"793 789 CURVE SMOOTH",
"793 646 OFFCURVE",
"740 486 OFFCURVE",
"541 486 CURVE SMOOTH"
);
}
);
width = 986;
},
{
hints = (
{
origin = "{0, 11}";
type = Corner;
name = _corner.CapRightSerif;
},
{
origin = "{0, 0}";
type = Corner;
name = _corner.CapRightSerif;
},
{
origin = "{0, 12}";
type = Corner;
name = _corner.CapLeftSerif;
}
);
layerId = "CFF67ECA-3B2D-433B-B605-F38590C8F106";
paths = (
{
closed = 1;
nodes = (
"409 0 LINE",
"409 433 LINE",
"470 419 OFFCURVE",
"525 414 OFFCURVE",
"569 414 CURVE SMOOTH",
"816 414 OFFCURVE",
"969 588 OFFCURVE",
"969 791 CURVE SMOOTH",
"969 961 OFFCURVE",
"866 1155 OFFCURVE",
"610 1155 CURVE SMOOTH",
"249 1155 LINE",
"249 0 LINE"
);
},
{
closed = 1;
nodes = (
"542 514 OFFCURVE",
"476 527 OFFCURVE",
"409 548 CURVE",
"409 1050 LINE",
"511 1050 LINE SMOOTH",
"732 1050 OFFCURVE",
"805 922 OFFCURVE",
"805 776 CURVE SMOOTH",
"805 651 OFFCURVE",
"751 514 OFFCURVE",
"593 514 CURVE SMOOTH"
);
}
);
width = 1029;
}
);
leftMetricsKey = H;
unicode = 0050;
},
{
glyphname = Q;
lastChange = "2020-02-13 14:33:42 +0000";
layers = (
{
components = (
{
name = O;
}
);
layerId = "6B6AD122-EF8D-49FE-8C69-4BDE8C56BDD8";
paths = (
{
closed = 1;
nodes = (
"1245 -158 LINE",
"1243 -93 LINE",
"1217 -90 OFFCURVE",
"1191 -87 OFFCURVE",
"1167 -82 CURVE SMOOTH",
"1039 -57 OFFCURVE",
"937 0 OFFCURVE",
"895 118 CURVE",
"660 8 LINE",
"779 -207 OFFCURVE",
"960 -256 OFFCURVE",
"1048 -256 CURVE"
);
}
);
width = 1198;
},
{
components = (
{
name = O;
}
);
layerId = "34301EF7-A2BE-469F-9697-D6100B11FDFE";
paths = (
{
closed = 1;
nodes = (
"1316 -102 LINE",
"1299 -76 LINE",
"1261 -90 OFFCURVE",
"1228 -95 OFFCURVE",
"1177 -95 CURVE SMOOTH",
"1040 -95 OFFCURVE",
"959 -27 OFFCURVE",
"874 81 CURVE",
"788 51 LINE",
"900 -151 OFFCURVE",
"1041 -210 OFFCURVE",
"1189 -210 CURVE"
);
}
);
width = 1196;
},
{
components = (
{
name = O;
}
);
layerId = "CFF67ECA-3B2D-433B-B605-F38590C8F106";
paths = (
{
closed = 1;
nodes = (
"1245 -188 LINE",
"1243 -127 LINE",
"1220 -127 OFFCURVE",
"1198 -126 OFFCURVE",
"1176 -124 CURVE SMOOTH",
"1044 -113 OFFCURVE",
"938 -63 OFFCURVE",
"895 58 CURVE",
"710 -2 LINE",
"839 -217 OFFCURVE",
"960 -256 OFFCURVE",
"1098 -256 CURVE"
);
}
);
width = 1225;
}
);
leftMetricsKey = O;
unicode = 0051;
},
{
glyphname = R;
lastChange = "2020-02-19 12:11:24 +0000";
layers = (
{
hints = (
{
origin = "{0, 0}";
scale = "{1.152, 1}";
type = Corner;
name = _corner.CapRightSerif;
},
{
origin = "{0, 24}";
type = Corner;
name = _corner.CapRightSerif;
},
{
origin = "{0, 25}";
type = Corner;
name = _corner.CapLeftSerif;
}
);
layerId = "6B6AD122-EF8D-49FE-8C69-4BDE8C56BDD8";
paths = (
{
closed = 1;
nodes = (
"405 0 LINE",
"405 464 LINE",
"450 463 OFFCURVE",
"481 461 OFFCURVE",
"510 461 CURVE SMOOTH",
"598 461 OFFCURVE",
"632 400 OFFCURVE",
"651 343 CURVE SMOOTH",
"763 0 LINE",
"1063 0 LINE",
"1074 56 LINE",
"1072 64 LINE",
"1008 100 LINE",
"901 349 LINE SMOOTH",
"864 435 OFFCURVE",
"809 479 OFFCURVE",
"744 501 CURVE",
"744 508 LINE",
"894 572 OFFCURVE",
"964 694 OFFCURVE",
"964 832 CURVE SMOOTH",
"964 990 OFFCURVE",
"874 1155 OFFCURVE",
"563 1155 CURVE SMOOTH",
"163 1155 LINE",
"163 0 LINE"
);
},
{
closed = 1;
nodes = (
"498 593 OFFCURVE",
"459 593 OFFCURVE",
"405 598 CURVE",
"405 1012 LINE",
"469 1012 LINE SMOOTH",
"649 1012 OFFCURVE",
"723 936 OFFCURVE",
"723 810 CURVE SMOOTH",
"723 700 OFFCURVE",
"668 593 OFFCURVE",
"533 593 CURVE SMOOTH"
);
}
);
width = 1122;
},
{
hints = (
{
origin = "{0, 0}";
scale = "{0.81649, 0.74227}";
type = Corner;
name = _corner.CapRightSerif;
},
{
origin = "{0, 24}";
scale = "{0.74227, 0.74227}";
type = Corner;
name = _corner.CapRightSerif;
},
{
origin = "{0, 25}";
scale = "{0.74227, 0.74227}";
type = Corner;
name = _corner.CapLeftSerif;
}
);
layerId = "34301EF7-A2BE-469F-9697-D6100B11FDFE";
paths = (
{
closed = 1;
nodes = (
"344 0 LINE",
"344 562 LINE",
"395 553 OFFCURVE",
"441 551 OFFCURVE",
"476 551 CURVE SMOOTH",
"570 551 OFFCURVE",
"644 504 OFFCURVE",
"685 399 CURVE SMOOTH",
"842 0 LINE",
"1040 0 LINE",
"1049 42 LINE",
"1046 47 LINE",
"946 75 LINE",
"813 402 LINE SMOOTH",
"762 528 OFFCURVE",
"688 549 OFFCURVE",
"608 567 CURVE",
"608 570 LINE",
"753 612 OFFCURVE",
"846 725 OFFCURVE",
"846 858 CURVE SMOOTH",
"846 1015 OFFCURVE",
"713 1155 OFFCURVE",
"518 1155 CURVE SMOOTH",
"225 1155 LINE",
"225 0 LINE"
);
},
{
closed = 1;
nodes = (
"443 607 OFFCURVE",
"395 615 OFFCURVE",
"344 630 CURVE",
"344 1095 LINE",
"497 1095 LINE SMOOTH",
"656 1095 OFFCURVE",
"717 984 OFFCURVE",
"717 852 CURVE SMOOTH",
"717 744 OFFCURVE",
"675 601 OFFCURVE",
"494 606 CURVE SMOOTH"
);
}
);
width = 1101;
},
{
hints = (
{
origin = "{0, 0}";
type = Corner;
name = _corner.CapRightSerif;
},
{
origin = "{0, 24}";
type = Corner;
name = _corner.CapRightSerif;
options = 2;
},
{
origin = "{0, 25}";
type = Corner;
name = _corner.CapLeftSerif;
}
);
layerId = "CFF67ECA-3B2D-433B-B605-F38590C8F106";
paths = (
{
closed = 1;
nodes = (
"409 0 LINE",
"409 509 LINE",
"467 505 OFFCURVE",
"525 503 OFFCURVE",
"592 503 CURVE SMOOTH",
"675 503 OFFCURVE",
"702 461 OFFCURVE",
"725 398 CURVE SMOOTH",
"872 0 LINE",
"1119 0 LINE",
"1127 42 LINE",
"1123 52 LINE",
"1020 87 LINE",
"897 401 LINE SMOOTH",
"859 500 OFFCURVE",
"807 532 OFFCURVE",
"737 541 CURVE",
"737 546 LINE",
"864 595 OFFCURVE",
"975 712 OFFCURVE",
"975 862 CURVE SMOOTH",
"975 996 OFFCURVE",
"885 1155 OFFCURVE",
"628 1155 CURVE SMOOTH",
"249 1155 LINE",
"249 0 LINE"
);
},
{
closed = 1;
nodes = (
"526 605 OFFCURVE",
"467 605 OFFCURVE",
"409 612 CURVE",
"409 1047 LINE",
"511 1047 LINE SMOOTH",
"752 1047 OFFCURVE",
"809 940 OFFCURVE",
"809 834 CURVE SMOOTH",
"809 710 OFFCURVE",
"731 605 OFFCURVE",
"584 605 CURVE SMOOTH"
);
}
);
width = 1176;
}
);
leftMetricsKey = H;
unicode = 0052;
},
{
glyphname = S;
lastChange = "2020-02-19 12:12:36 +0000";
layers = (
{
layerId = "6B6AD122-EF8D-49FE-8C69-4BDE8C56BDD8";
paths = (
{
closed = 1;
nodes = (
"701 -30 OFFCURVE",
"871 92 OFFCURVE",
"871 315 CURVE SMOOTH",
"871 716 OFFCURVE",
"303 648 OFFCURVE",
"303 886 CURVE SMOOTH",
"303 963 OFFCURVE",
"362 1026 OFFCURVE",
"456 1026 CURVE SMOOTH",
"595 1026 OFFCURVE",
"687 892 OFFCURVE",
"713 840 CURVE",
"799 857 LINE",
"799 1143 LINE",
"746 1164 OFFCURVE",
"651 1185 OFFCURVE",
"551 1185 CURVE SMOOTH",
"287 1185 OFFCURVE",
"90 1064 OFFCURVE",
"90 819 CURVE SMOOTH",
"90 428 OFFCURVE",
"626 530 OFFCURVE",
"637 251 CURVE SMOOTH",
"641 153 OFFCURVE",
"573 117 OFFCURVE",
"500 117 CURVE SMOOTH",
"355 117 OFFCURVE",
"270 255 OFFCURVE",
"193 366 CURVE",
"99 347 LINE",
"129 19 LINE",
"181 3 OFFCURVE",
"298 -30 OFFCURVE",
"432 -30 CURVE SMOOTH"
);
}
);
width = 951;
},
{
layerId = "34301EF7-A2BE-469F-9697-D6100B11FDFE";
paths = (
{
closed = 1;
nodes = (
"603 -41 OFFCURVE",
"746 91 OFFCURVE",
"746 277 CURVE SMOOTH",
"746 660 OFFCURVE",
"155 568 OFFCURVE",
"155 897 CURVE SMOOTH",
"155 1030 OFFCURVE",
"248 1117 OFFCURVE",
"390 1117 CURVE SMOOTH",
"514 1117 OFFCURVE",
"614 1045 OFFCURVE",
"643 751 CURVE",
"686 755 LINE",
"680 1089 LINE",
"591 1155 OFFCURVE",
"496 1175 OFFCURVE",
"421 1175 CURVE SMOOTH",
"231 1175 OFFCURVE",
"53 1053 OFFCURVE",
"53 848 CURVE SMOOTH",
"53 467 OFFCURVE",
"642 555 OFFCURVE",
"642 222 CURVE SMOOTH",
"642 60 OFFCURVE",
"500 17 OFFCURVE",
"392 17 CURVE SMOOTH",
"253 17 OFFCURVE",
"154 89 OFFCURVE",
"82 382 CURVE",
"40 378 LINE",
"88 29 LINE",
"178 -19 OFFCURVE",
"271 -41 OFFCURVE",
"366 -41 CURVE SMOOTH"
);
}
);
width = 786;
},
{
layerId = "CFF67ECA-3B2D-433B-B605-F38590C8F106";
paths = (
{
closed = 1;
nodes = (
"682 -37 OFFCURVE",
"834 107 OFFCURVE",
"834 302 CURVE SMOOTH",
"834 697 OFFCURVE",
"248 588 OFFCURVE",
"248 883 CURVE SMOOTH",
"248 992 OFFCURVE",
"332 1070 OFFCURVE",
"465 1070 CURVE SMOOTH",
"595 1070 OFFCURVE",
"689 995 OFFCURVE",
"718 797 CURVE",
"780 805 LINE",
"780 1114 LINE",
"700 1160 OFFCURVE",
"598 1179 OFFCURVE",
"515 1179 CURVE SMOOTH",
"292 1179 OFFCURVE",
"107 1051 OFFCURVE",
"107 835 CURVE SMOOTH",
"107 446 OFFCURVE",
"676 556 OFFCURVE",
"676 253 CURVE SMOOTH",
"676 115 OFFCURVE",
"554 72 OFFCURVE",
"451 72 CURVE SMOOTH",
"313 72 OFFCURVE",
"210 148 OFFCURVE",
"141 356 CURVE",
"80 348 LINE",
"123 15 LINE",
"218 -17 OFFCURVE",
"320 -37 OFFCURVE",
"418 -37 CURVE SMOOTH"
);
}
);
width = 914;
}
);
unicode = 0053;
},
{
glyphname = T;
lastChange = "2020-02-21 10:34:23 +0000";
layers = (
{
hints = (
{
origin = "{0, 0}";
scale = "{0.96, 0.96}";
type = Corner;
name = _corner.CapRightSerif;
},
{
origin = "{0, 3}";
scale = "{0.96, 0.96}";
type = Corner;
name = _corner.CapLeftSerif;
}
);
layerId = "6B6AD122-EF8D-49FE-8C69-4BDE8C56BDD8";
paths = (
{
closed = 1;
nodes = (
"618 0 LINE",
"618 1155 LINE",
"377 1155 LINE",
"377 0 LINE"
);
},
{
closed = 1;
nodes = (
"109 844 LINE",
"211 976 OFFCURVE",
"272 1013 OFFCURVE",
"357 1013 CURVE SMOOTH",
"638 1013 LINE SMOOTH",
"723 1013 OFFCURVE",
"784 976 OFFCURVE",
"886 844 CURVE",
"893 840 LINE",
"965 847 LINE",
"965 1148 LINE",
"931 1169 LINE",
"884 1164 OFFCURVE",
"836 1160 OFFCURVE",
"789 1155 CURVE",
"206 1155 LINE",
"159 1160 OFFCURVE",
"111 1164 OFFCURVE",
"64 1169 CURVE",
"30 1148 LINE",
"30 847 LINE",
"102 840 LINE"
);
}
);
width = 995;
},
{
hints = (
{
origin = "{0, 0}";
scale = "{0.74227, 0.74227}";
type = Corner;
name = _corner.CapRightSerif;
},
{
origin = "{0, 3}";
scale = "{0.74227, 0.74227}";
type = Corner;
name = _corner.CapLeftSerif;
}
);
layerId = "34301EF7-A2BE-469F-9697-D6100B11FDFE";
paths = (
{
closed = 1;
nodes = (
"567 0 LINE",
"567 1155 LINE",
"447 1155 LINE",
"447 0 LINE"
);
},
{
closed = 1;
nodes = (
"39 772 LINE",
"81 1024 OFFCURVE",
"132 1091 OFFCURVE",
"217 1091 CURVE SMOOTH",
"798 1091 LINE SMOOTH",
"883 1091 OFFCURVE",
"934 1024 OFFCURVE",
"976 772 CURVE",
"983 768 LINE",
"1015 775 LINE",
"1015 1178 LINE",
"1001 1189 LINE",
"968 1182 OFFCURVE",
"908 1155 OFFCURVE",
"839 1155 CURVE SMOOTH",
"176 1155 LINE SMOOTH",
"107 1155 OFFCURVE",
"47 1182 OFFCURVE",
"14 1189 CURVE",
"0 1178 LINE",
"0 775 LINE",
"32 768 LINE"
);
}
);
width = 1015;
},
{
hints = (
{
origin = "{0, 0}";
type = Corner;
name = _corner.CapRightSerif;
},
{
origin = "{0, 3}";
type = Corner;
name = _corner.CapLeftSerif;
}
);
layerId = "CFF67ECA-3B2D-433B-B605-F38590C8F106";
paths = (
{
closed = 1;
nodes = (
"573 10 LINE",
"573 1155 LINE",
"413 1155 LINE",
"413 10 LINE"
);
},
{
closed = 1;
nodes = (
"44 766 LINE",
"96 998 OFFCURVE",
"147 1049 OFFCURVE",
"212 1049 CURVE SMOOTH",
"773 1049 LINE SMOOTH",
"838 1049 OFFCURVE",
"889 998 OFFCURVE",
"941 766 CURVE",
"948 762 LINE",
"1000 769 LINE",
"970 1178 LINE",
"956 1189 LINE",
"923 1182 OFFCURVE",
"813 1155 OFFCURVE",
"794 1155 CURVE SMOOTH",
"191 1155 LINE SMOOTH",
"172 1155 OFFCURVE",
"62 1182 OFFCURVE",
"29 1189 CURVE",
"15 1178 LINE",
"-15 769 LINE",
"37 762 LINE"
);
}
);
width = 985;
}
);
unicode = 0054;
},
{
glyphname = U;
lastChange = "2020-02-19 10:00:48 +0000";
layers = (
{
hints = (
{
origin = "{0, 10}";
type = Corner;
name = _corner.CapRightSerif;
},
{
origin = "{0, 9}";
type = Corner;
name = _corner.CapLeftSerif;
},
{
origin = "{0, 1}";
type = Corner;
name = _corner.CapRightSerif;
},
{
origin = "{0, 0}";
type = Corner;
name = _corner.CapLeftSerif;
}
);
layerId = "6B6AD122-EF8D-49FE-8C69-4BDE8C56BDD8";
paths = (
{
closed = 1;
nodes = (
"405 1157 LINE",
"163 1157 LINE",
"163 371 LINE SMOOTH",
"163 120 OFFCURVE",
"334 -30 OFFCURVE",
"600 -30 CURVE SMOOTH",
"824 -30 OFFCURVE",
"1054 89 OFFCURVE",
"1054 387 CURVE SMOOTH",
"1054 1157 LINE",
"902 1157 LINE",
"902 377 LINE SMOOTH",
"902 217 OFFCURVE",
"793 127 OFFCURVE",
"648 127 CURVE SMOOTH",
"501 127 OFFCURVE",
"405 216 OFFCURVE",
"405 411 CURVE SMOOTH"
);
}
);
width = 1217;
},
{
hints = (
{
origin = "{0, 0}";
scale = "{0.74227, 0.74227}";
type = Corner;
name = _corner.CapLeftSerif;
},
{
origin = "{0, 1}";
scale = "{0.74227, 0.74227}";
type = Corner;
name = _corner.CapRightSerif;
},
{
origin = "{0, 9}";
scale = "{0.74227, 0.74227}";
type = Corner;
name = _corner.CapLeftSerif;
},
{
origin = "{0, 10}";
scale = "{0.74227, 0.74227}";
type = Corner;
name = _corner.CapRightSerif;
}
);
layerId = "34301EF7-A2BE-469F-9697-D6100B11FDFE";
paths = (
{
closed = 1;
nodes = (
"345 1155 LINE",
"225 1155 LINE",
"225 351 LINE SMOOTH",
"225 121 OFFCURVE",
"377 -30 OFFCURVE",
"634 -30 CURVE SMOOTH",
"866 -30 OFFCURVE",
"1067 94 OFFCURVE",
"1067 397 CURVE SMOOTH",
"1067 1155 LINE",
"995 1155 LINE",
"995 389 LINE SMOOTH",
"995 156 OFFCURVE",
"840 47 OFFCURVE",
"659 47 CURVE SMOOTH",
"505 47 OFFCURVE",
"345 126 OFFCURVE",
"345 381 CURVE SMOOTH"
);
}
);
width = 1291;
},
{
hints = (
{
origin = "{0, 1}";
type = Corner;
name = _corner.CapRightSerif;
},
{
origin = "{0, 10}";
type = Corner;
name = _corner.CapRightSerif;
},
{
origin = "{0, 0}";
type = Corner;
name = _corner.CapLeftSerif;
},
{
origin = "{0, 9}";
type = Corner;
name = _corner.CapLeftSerif;
}
);
layerId = "CFF67ECA-3B2D-433B-B605-F38590C8F106";
paths = (
{
closed = 1;
nodes = (
"413 1155 LINE",
"249 1155 LINE",
"249 343 LINE SMOOTH",
"249 113 OFFCURVE",
"404 -38 OFFCURVE",
"675 -38 CURVE SMOOTH",
"914 -38 OFFCURVE",
"1130 80 OFFCURVE",
"1130 377 CURVE SMOOTH",
"1130 1155 LINE",
"1008 1155 LINE",
"1008 371 LINE SMOOTH",
"1008 165 OFFCURVE",
"872 74 OFFCURVE",
"704 74 CURVE SMOOTH",
"556 74 OFFCURVE",
"413 142 OFFCURVE",
"413 373 CURVE SMOOTH"
);
}
);
width = 1379;
}
);
leftMetricsKey = H;
rightMetricsKey = H;
unicode = 0055;
},
{
glyphname = V;
lastChange = "2020-02-19 13:51:54 +0000";
layers = (
{
layerId = "6B6AD122-EF8D-49FE-8C69-4BDE8C56BDD8";
paths = (
{
closed = 1;
nodes = (
"637 0 LINE",
"657 97 LINE",
"393 909 LINE SMOOTH",
"370 980 OFFCURVE",
"363 1042 OFFCURVE",
"423 1100 CURVE",
"423 1111 LINE",
"411 1155 LINE",
"12 1155 LINE",
"0 1111 LINE",
"0 1100 LINE",
"47 1073 OFFCURVE",
"68 1035 OFFCURVE",
"97 957 CURVE SMOOTH",
"448 0 LINE"
);
},
{
closed = 1;
nodes = (
"648 0 LINE",
"936 897 LINE SMOOTH",
"966 989 OFFCURVE",
"1011 1064 OFFCURVE",
"1066 1095 CURVE",
"1066 1106 LINE",
"1053 1155 LINE",
"773 1155 LINE",
"758 1111 LINE",
"758 1100 LINE",
"812 1047 OFFCURVE",
"800 975 OFFCURVE",
"783 921 CURVE SMOOTH",
"497 0 LINE"
);
}
);
width = 1066;
},
{
layerId = "34301EF7-A2BE-469F-9697-D6100B11FDFE";
paths = (
{
closed = 1;
nodes = (
"586 0 LINE",
"616 95 LINE",
"273 986 LINE SMOOTH",
"238 1078 OFFCURVE",
"287 1106 OFFCURVE",
"409 1117 CURVE",
"414 1123 LINE",
"412 1155 LINE",
"3 1155 LINE",
"0 1119 LINE",
"5 1113 LINE",
"37 1107 OFFCURVE",
"96 1093 OFFCURVE",
"139 980 CURVE SMOOTH",
"514 0 LINE"
);
},
{
closed = 1;
nodes = (
"608 0 LINE",
"981 993 LINE SMOOTH",
"1019 1093 OFFCURVE",
"1075 1108 OFFCURVE",
"1118 1114 CURVE",
"1124 1121 LINE",
"1120 1155 LINE",
"762 1155 LINE",
"759 1122 LINE",
"764 1116 LINE",
"902 1104 OFFCURVE",
"940 1091 OFFCURVE",
"901 986 CURVE SMOOTH",
"534 0 LINE"
);
}
);
width = 1128;
},
{
layerId = "CFF67ECA-3B2D-433B-B605-F38590C8F106";
paths = (
{
closed = 1;
nodes = (
"612 0 LINE",
"623 131 LINE",
"308 952 LINE SMOOTH",
"277 1034 OFFCURVE",
"298 1073 OFFCURVE",
"429 1103 CURVE",
"434 1112 LINE",
"429 1155 LINE",
"10 1155 LINE",
"5 1110 LINE",
"10 1101 LINE",
"43 1087 OFFCURVE",
"85 1059 OFFCURVE",
"117 976 CURVE SMOOTH",
"493 0 LINE"
);
},
{
closed = 1;
nodes = (
"650 0 LINE",
"994 980 LINE SMOOTH",
"1021 1058 OFFCURVE",
"1064 1084 OFFCURVE",
"1102 1101 CURVE",
"1106 1107 LINE",
"1101 1155 LINE",
"746 1155 LINE",
"740 1111 LINE",
"745 1104 LINE",
"882 1075 OFFCURVE",
"895 1044 OFFCURVE",
"863 953 CURVE SMOOTH",
"529 0 LINE"
);
}
);
width = 1101;
}
);
unicode = 0056;
},
{
glyphname = W;
lastChange = "2020-02-19 17:46:46 +0000";
layers = (
{
layerId = "6B6AD122-EF8D-49FE-8C69-4BDE8C56BDD8";
paths = (
{
closed = 1;
nodes = (
"637 0 LINE",
"657 97 LINE",
"393 909 LINE SMOOTH",
"370 980 OFFCURVE",
"363 1042 OFFCURVE",
"423 1100 CURVE",
"423 1111 LINE",
"411 1155 LINE",
"12 1155 LINE",
"0 1111 LINE",
"0 1100 LINE",
"47 1073 OFFCURVE",
"68 1035 OFFCURVE",
"97 957 CURVE SMOOTH",
"448 0 LINE"
);
},
{
closed = 1;
nodes = (
"648 0 LINE",
"872 697 LINE",
"770 867 LINE",
"501 0 LINE"
);
},
{
closed = 1;
nodes = (
"1237 0 LINE",
"1257 97 LINE",
"993 909 LINE SMOOTH",
"970 980 OFFCURVE",
"963 1042 OFFCURVE",
"1023 1100 CURVE",
"1023 1111 LINE",
"1011 1155 LINE",
"612 1155 LINE",
"600 1111 LINE",
"600 1100 LINE",
"647 1073 OFFCURVE",
"668 1035 OFFCURVE",
"697 957 CURVE SMOOTH",
"1048 0 LINE"
);
},
{
closed = 1;
nodes = (
"1248 0 LINE",
"1516 897 LINE SMOOTH",
"1544 989 OFFCURVE",
"1591 1069 OFFCURVE",
"1636 1100 CURVE",
"1636 1111 LINE",
"1623 1155 LINE",
"1349 1155 LINE",
"1334 1111 LINE",
"1334 1100 LINE",
"1388 1047 OFFCURVE",
"1375 975 OFFCURVE",
"1359 921 CURVE SMOOTH",
"1093 0 LINE"
);
}
);
width = 1636;
},
{
layerId = "34301EF7-A2BE-469F-9697-D6100B11FDFE";
paths = (
{
closed = 1;
nodes = (
"536 0 LINE",
"566 95 LINE",
"273 986 LINE SMOOTH",
"243 1078 OFFCURVE",
"287 1106 OFFCURVE",
"409 1117 CURVE",
"414 1123 LINE",
"412 1155 LINE",
"3 1155 LINE",
"0 1119 LINE",
"5 1113 LINE",
"37 1107 OFFCURVE",
"101 1093 OFFCURVE",
"139 980 CURVE SMOOTH",
"464 0 LINE"
);
},
{
closed = 1;
nodes = (
"555 0 LINE",
"887 1065 LINE",
"880 1169 LINE",
"841 1169 LINE",
"479 0 LINE"
);
},
{
closed = 1;
nodes = (
"1186 0 LINE",
"1221 95 LINE",
"883 1169 LINE",
"841 1169 LINE",
"806 977 LINE",
"1114 0 LINE"
);
},
{
closed = 1;
nodes = (
"1208 0 LINE",
"1531 993 LINE SMOOTH",
"1564 1093 OFFCURVE",
"1625 1108 OFFCURVE",
"1668 1114 CURVE",
"1674 1121 LINE",
"1670 1155 LINE",
"1312 1155 LINE",
"1309 1122 LINE",
"1314 1116 LINE",
"1452 1104 OFFCURVE",
"1485 1091 OFFCURVE",
"1451 986 CURVE SMOOTH",
"1131 0 LINE"
);
}
);
width = 1678;
},
{
layerId = "CFF67ECA-3B2D-433B-B605-F38590C8F106";
paths = (
{
closed = 1;
nodes = (
"535 0 LINE",
"552 131 LINE",
"308 952 LINE SMOOTH",
"284 1034 OFFCURVE",
"298 1073 OFFCURVE",
"439 1103 CURVE",
"444 1112 LINE",
"439 1155 LINE",
"10 1155 LINE",
"5 1111 LINE",
"10 1102 LINE",
"43 1087 OFFCURVE",
"92 1059 OFFCURVE",
"117 976 CURVE SMOOTH",
"416 0 LINE"
);
},
{
closed = 1;
nodes = (
"573 0 LINE",
"892 1034 LINE",
"872 1174 LINE",
"811 1174 LINE",
"452 0 LINE"
);
},
{
closed = 1;
nodes = (
"1205 0 LINE",
"1216 142 LINE",
"872 1174 LINE",
"811 1174 LINE",
"776 923 LINE",
"1086 0 LINE"
);
},
{
closed = 1;
nodes = (
"1243 0 LINE",
"1497 980 LINE SMOOTH",
"1517 1058 OFFCURVE",
"1567 1084 OFFCURVE",
"1605 1102 CURVE",
"1609 1108 LINE",
"1604 1155 LINE",
"1239 1155 LINE",
"1233 1111 LINE",
"1238 1104 LINE",
"1385 1075 OFFCURVE",
"1389 1044 OFFCURVE",
"1366 953 CURVE SMOOTH",
"1122 0 LINE"
);
}
);
width = 1604;
}
);
leftMetricsKey = V;
rightMetricsKey = V;
unicode = 0057;
},
{
glyphname = X;
lastChange = "2020-02-19 14:03:18 +0000";
layers = (
{
layerId = "6B6AD122-EF8D-49FE-8C69-4BDE8C56BDD8";
paths = (
{
closed = 1;
nodes = (
"1054 0 LINE",
"1066 44 LINE",
"1066 55 LINE",
"1019 82 OFFCURVE",
"978 126 OFFCURVE",
"929 198 CURVE SMOOTH",
"446 909 LINE SMOOTH",
"399 978 OFFCURVE",
"416 1044 OFFCURVE",
"453 1102 CURVE",
"453 1113 LINE",
"434 1155 LINE",
"30 1155 LINE",
"18 1111 LINE",
"18 1100 LINE",
"65 1073 OFFCURVE",
"96 1029 OFFCURVE",
"145 957 CURVE SMOOTH",
"628 246 LINE SMOOTH",
"675 177 OFFCURVE",
"658 111 OFFCURVE",
"618 53 CURVE",
"618 42 LINE",
"638 0 LINE"
);
},
{
closed = 1;
nodes = (
"343 0 LINE",
"361 42 LINE",
"361 53 LINE",
"337 90 OFFCURVE",
"331 155 OFFCURVE",
"371 223 CURVE SMOOTH",
"615 634 LINE",
"508 699 LINE",
"221 258 LINE SMOOTH",
"169 178 OFFCURVE",
"95 91 OFFCURVE",
"30 60 CURVE",
"30 49 LINE",
"43 0 LINE"
);
},
{
closed = 1;
nodes = (
"858 897 LINE SMOOTH",
"910 977 OFFCURVE",
"980 1064 OFFCURVE",
"1042 1095 CURVE",
"1042 1106 LINE",
"1029 1155 LINE",
"729 1155 LINE",
"709 1113 LINE",
"709 1102 LINE",
"734 1029 OFFCURVE",
"714 951 OFFCURVE",
"680 892 CURVE SMOOTH",
"464 521 LINE",
"571 456 LINE"
);
}
);
width = 1076;
},
{
layerId = "CFF67ECA-3B2D-433B-B605-F38590C8F106";
paths = (
{
closed = 1;
nodes = (
"1085 0 LINE",
"1090 44 LINE",
"1085 54 LINE",
"1018 79 OFFCURVE",
"959 115 OFFCURVE",
"919 183 CURVE SMOOTH",
"438 1000 LINE SMOOTH",
"408 1051 OFFCURVE",
"405 1079 OFFCURVE",
"505 1104 CURVE",
"511 1112 LINE",
"503 1155 LINE",
"98 1155 LINE",
"92 1114 LINE",
"97 1104 LINE",
"168 1076 OFFCURVE",
"221 1041 OFFCURVE",
"261 973 CURVE SMOOTH",
"742 155 LINE SMOOTH",
"777 95 OFFCURVE",
"771 74 OFFCURVE",
"671 54 CURVE",
"667 44 LINE",
"675 0 LINE"
);
},
{
closed = 1;
nodes = (
"436 0 LINE",
"442 44 LINE",
"438 54 LINE",
"341 82 OFFCURVE",
"354 94 OFFCURVE",
"387 155 CURVE SMOOTH",
"575 499 LINE",
"516 583 LINE",
"249 165 LINE SMOOTH",
"216 113 OFFCURVE",
"168 79 OFFCURVE",
"86 54 CURVE",
"80 44 LINE",
"86 0 LINE"
);
},
{
closed = 1;
nodes = (
"912 991 LINE SMOOTH",
"948 1047 OFFCURVE",
"1001 1080 OFFCURVE",
"1084 1104 CURVE",
"1088 1114 LINE",
"1084 1155 LINE",
"729 1155 LINE",
"722 1111 LINE",
"728 1104 LINE",
"826 1073 OFFCURVE",
"810 1049 OFFCURVE",
"782 1000 CURVE SMOOTH",
"571 626 LINE",
"666 606 LINE"
);
}
);
width = 1170;
},
{
layerId = "34301EF7-A2BE-469F-9697-D6100B11FDFE";
paths = (
{
closed = 1;
nodes = (
"1004 0 LINE",
"1005 32 LINE",
"999 41 LINE",
"955 50 OFFCURVE",
"905 97 OFFCURVE",
"853 175 CURVE SMOOTH",
"312 986 LINE SMOOTH",
"258 1067 OFFCURVE",
"323 1105 OFFCURVE",
"420 1116 CURVE",
"427 1125 LINE",
"425 1155 LINE",
"24 1155 LINE",
"23 1121 LINE",
"29 1114 LINE",
"67 1104 OFFCURVE",
"112 1065 OFFCURVE",
"169 980 CURVE SMOOTH",
"710 169 LINE SMOOTH",
"764 88 OFFCURVE",
"700 50 OFFCURVE",
"605 39 CURVE",
"595 29 LINE",
"597 0 LINE"
);
},
{
closed = 1;
nodes = (
"372 0 LINE",
"374 32 LINE",
"368 39 LINE",
"257 52 OFFCURVE",
"201 79 OFFCURVE",
"259 169 CURVE SMOOTH",
"500 545 LINE",
"484 641 LINE",
"180 162 LINE SMOOTH",
"134 89 OFFCURVE",
"85 50 OFFCURVE",
"41 41 CURVE",
"36 33 LINE",
"38 0 LINE"
);
},
{
closed = 1;
nodes = (
"837 993 LINE SMOOTH",
"884 1067 OFFCURVE",
"933 1105 OFFCURVE",
"975 1114 CURVE",
"981 1123 LINE",
"979 1155 LINE",
"647 1155 LINE",
"645 1125 LINE",
"652 1116 LINE",
"762 1103 OFFCURVE",
"800 1055 OFFCURVE",
"756 986 CURVE SMOOTH",
"517 608 LINE",
"537 520 LINE"
);
}
);
width = 1022;
}
);
unicode = 0058;
},
{
glyphname = Y;
lastChange = "2020-02-19 14:00:30 +0000";
layers = (
{
hints = (
{
origin = "{0, 0}";
scale = "{0.96, 0.96}";
type = Corner;
name = _corner.CapRightSerif;
},
{
origin = "{0, 28}";
scale = "{0.96, 0.96}";
type = Corner;
name = _corner.CapLeftSerif;
}
);
layerId = "6B6AD122-EF8D-49FE-8C69-4BDE8C56BDD8";
paths = (
{
closed = 1;
nodes = (
"648 0 LINE",
"648 453 LINE",
"870 870 LINE SMOOTH",
"940 1002 OFFCURVE",
"1018 1073 OFFCURVE",
"1053 1098 CURVE",
"1053 1109 LINE",
"1037 1155 LINE",
"733 1155 LINE",
"721 1110 LINE",
"721 1100 LINE",
"755 1071 OFFCURVE",
"752 1008 OFFCURVE",
"718 935 CURVE SMOOTH",
"565 610 LINE",
"383 956 LINE SMOOTH",
"354 1011 OFFCURVE",
"364 1071 OFFCURVE",
"400 1100 CURVE",
"400 1110 LINE",
"388 1155 LINE",
"17 1155 LINE",
"0 1111 LINE",
"0 1100 LINE",
"26 1084 OFFCURVE",
"102 1007 OFFCURVE",
"158 905 CURVE SMOOTH",
"406 455 LINE",
"406 0 LINE"
);
}
);
width = 1053;
},
{
hints = (
{
origin = "{0, 6}";
type = Corner;
name = _corner.CapRightSerif;
},
{
origin = "{0, 5}";
type = Corner;
name = _corner.CapLeftSerif;
}
);
layerId = "CFF67ECA-3B2D-433B-B605-F38590C8F106";
paths = (
{
closed = 1;
nodes = (
"10 1103 LINE",
"41 1088 OFFCURVE",
"72 1067 OFFCURVE",
"109 1000 CURVE SMOOTH",
"407 460 LINE",
"407 0 LINE",
"567 0 LINE",
"567 494 LINE",
"855 995 LINE SMOOTH",
"897 1069 OFFCURVE",
"925 1089 OFFCURVE",
"965 1103 CURVE",
"970 1109 LINE",
"964 1155 LINE",
"628 1155 LINE",
"622 1110 LINE",
"626 1103 LINE",
"757 1080 OFFCURVE",
"760 1048 OFFCURVE",
"726 987 CURVE SMOOTH",
"508 601 LINE",
"308 965 LINE SMOOTH",
"264 1046 OFFCURVE",
"266 1076 OFFCURVE",
"391 1103 CURVE",
"395 1110 LINE",
"389 1155 LINE",
"12 1155 LINE",
"5 1109 LINE"
);
}
);
width = 965;
},
{
hints = (
{
origin = "{0, 0}";
scale = "{0.74227, 0.74227}";
type = Corner;
name = _corner.CapRightSerif;
},
{
origin = "{0, 29}";
scale = "{0.74227, 0.74227}";
type = Corner;
name = _corner.CapLeftSerif;
}
);
layerId = "34301EF7-A2BE-469F-9697-D6100B11FDFE";
paths = (
{
closed = 1;
nodes = (
"534 0 LINE",
"534 464 LINE",
"808 1033 LINE SMOOTH",
"837 1094 OFFCURVE",
"885 1105 OFFCURVE",
"926 1114 CURVE",
"929 1120 LINE",
"925 1155 LINE",
"612 1155 LINE",
"609 1122 LINE",
"612 1117 LINE",
"752 1106 OFFCURVE",
"764 1094 OFFCURVE",
"739 1043 CURVE SMOOTH",
"468 485 LINE",
"531 485 LINE",
"249 1043 LINE SMOOTH",
"224 1093 OFFCURVE",
"243 1109 OFFCURVE",
"369 1117 CURVE",
"372 1122 LINE",
"369 1155 LINE",
"4 1155 LINE",
"0 1122 LINE",
"5 1116 LINE",
"30 1108 OFFCURVE",
"84 1093 OFFCURVE",
"114 1033 CURVE SMOOTH",
"414 439 LINE",
"414 0 LINE"
);
}
);
width = 933;
}
);
leftMetricsKey = V;
rightMetricsKey = V;
unicode = 0059;
},
{
glyphname = Z;
lastChange = "2020-02-13 14:34:41 +0000";
layers = (
{
layerId = "6B6AD122-EF8D-49FE-8C69-4BDE8C56BDD8";
paths = (
{
closed = 1;
nodes = (
"99 0 LINE",
"900 0 LINE",
"954 321 LINE",
"882 366 LINE",
"869 366 LINE",
"766 262 OFFCURVE",
"663 142 OFFCURVE",
"499 142 CURVE SMOOTH",
"419 142 LINE",
"928 1104 LINE",
"905 1155 LINE",
"109 1155 LINE",
"109 822 LINE",
"198 818 LINE",
"277 930 OFFCURVE",
"381 1013 OFFCURVE",
"532 1013 CURVE SMOOTH",
"607 1013 LINE",
"95 52 LINE"
);
}
);
width = 1044;
},
{
layerId = "34301EF7-A2BE-469F-9697-D6100B11FDFE";
paths = (
{
closed = 1;
nodes = (
"67 0 LINE",
"837 0 LINE",
"906 404 LINE",
"870 416 LINE",
"863 413 LINE",
"779 119 OFFCURVE",
"699 64 OFFCURVE",
"547 64 CURVE SMOOTH",
"237 64 LINE",
"861 1145 LINE",
"857 1155 LINE",
"95 1155 LINE",
"95 759 LINE",
"136 756 LINE",
"173 1047 OFFCURVE",
"234 1093 OFFCURVE",
"382 1093 CURVE SMOOTH",
"686 1093 LINE",
"60 12 LINE"
);
}
);
width = 976;
},
{
layerId = "CFF67ECA-3B2D-433B-B605-F38590C8F106";
paths = (
{
closed = 1;
nodes = (
"103 0 LINE",
"847 0 LINE",
"897 361 LINE",
"847 372 LINE",
"839 368 LINE",
"764 162 OFFCURVE",
"675 106 OFFCURVE",
"569 106 CURVE SMOOTH",
"317 106 LINE",
"887 1118 LINE",
"870 1155 LINE",
"118 1155 LINE",
"118 808 LINE",
"168 805 LINE",
"222 1000 OFFCURVE",
"292 1053 OFFCURVE",
"441 1053 CURVE SMOOTH",
"663 1053 LINE",
"89 38 LINE"
);
}
);
width = 1011;
}
);
unicode = 005A;
},
{
glyphname = a;
lastChange = "2020-02-26 11:20:11 +0000";
layers = (
{
layerId = "6B6AD122-EF8D-49FE-8C69-4BDE8C56BDD8";
paths = (
{
closed = 1;
nodes = (
"800 861 LINE",
"619 776 LINE",
"486 149 LINE SMOOTH",
"462 37 OFFCURVE",
"524 -30 OFFCURVE",
"589 -30 CURVE SMOOTH",
"696 -30 OFFCURVE",
"870 150 OFFCURVE",
"936 235 CURVE",
"884 310 LINE",
"875 310 LINE",
"794 235 OFFCURVE",
"743 200 OFFCURVE",
"722 200 CURVE SMOOTH",
"714 200 OFFCURVE",
"710 205 OFFCURVE",
"710 214 CURVE SMOOTH",
"710 219 OFFCURVE",
"711 224 OFFCURVE",
"712 230 CURVE SMOOTH",
"838 826 LINE"
);
},
{
closed = 1;
nodes = (
"379 -30 OFFCURVE",
"526 136 OFFCURVE",
"601 248 CURVE",
"589 309 LINE",
"509 207 OFFCURVE",
"441 153 OFFCURVE",
"366 153 CURVE SMOOTH",
"274 153 OFFCURVE",
"237 235 OFFCURVE",
"237 371 CURVE SMOOTH",
"237 504 OFFCURVE",
"277 699 OFFCURVE",
"392 699 CURVE SMOOTH",
"445 699 OFFCURVE",
"519 657 OFFCURVE",
"613 509 CURVE",
"703 721 LINE",
"577 851 OFFCURVE",
"501 861 OFFCURVE",
"465 861 CURVE SMOOTH",
"252 861 OFFCURVE",
"22 558 OFFCURVE",
"22 258 CURVE SMOOTH",
"22 110 OFFCURVE",
"75 -30 OFFCURVE",
"226 -30 CURVE SMOOTH"
);
}
);
width = 897;
},
{
background = {
paths = (
{
closed = 1;
nodes = (
"815 63 LINE",
"810 86 LINE",
"806 88 LINE",
"771 75 OFFCURVE",
"740 67 OFFCURVE",
"712 67 CURVE SMOOTH",
"650 67 OFFCURVE",
"608 105 OFFCURVE",
"609 187 CURVE SMOOTH",
"612 503 LINE SMOOTH",
"614 669 OFFCURVE",
"560 780 OFFCURVE",
"353 780 CURVE SMOOTH",
"247 780 OFFCURVE",
"143 750 OFFCURVE",
"57 701 CURVE",
"57 621 LINE",
"71 611 LINE",
"140 638 OFFCURVE",
"235 677 OFFCURVE",
"338 677 CURVE SMOOTH",
"391 677 OFFCURVE",
"526 669 OFFCURVE",
"524 500 CURVE SMOOTH",
"520 99 LINE SMOOTH",
"519 16 OFFCURVE",
"584 -30 OFFCURVE",
"659 -30 CURVE"
);
},
{
closed = 1;
nodes = (
"351 -30 OFFCURVE",
"432 19 OFFCURVE",
"520 99 CURVE",
"524 150 LINE",
"460 99 OFFCURVE",
"367 40 OFFCURVE",
"296 40 CURVE SMOOTH",
"236 40 OFFCURVE",
"172 82 OFFCURVE",
"172 180 CURVE SMOOTH",
"172 269 OFFCURVE",
"224 341 OFFCURVE",
"549 490 CURVE",
"529 544 LINE",
"444 501 LINE SMOOTH",
"142 348 OFFCURVE",
"63 256 OFFCURVE",
"63 147 CURVE SMOOTH",
"63 38 OFFCURVE",
"145 -30 OFFCURVE",
"256 -30 CURVE SMOOTH"
);
}
);
};
layerId = "34301EF7-A2BE-469F-9697-D6100B11FDFE";
paths = (
{
closed = 1;
nodes = (
"700 724 LINE",
"611 705 LINE",
"490 133 LINE SMOOTH",
"464 11 OFFCURVE",
"513 -30 OFFCURVE",
"550 -30 CURVE SMOOTH",
"551 -30 LINE SMOOTH",
"591 -30 OFFCURVE",
"658 30 OFFCURVE",
"815 195 CURVE",
"779 235 LINE",
"770 235 LINE",
"669 142 OFFCURVE",
"573 54 OFFCURVE",
"573 89 CURVE SMOOTH",
"573 94 OFFCURVE",
"574 99 OFFCURVE",
"575 105 CURVE SMOOTH",
"704 717 LINE"
);
},
{
closed = 1;
nodes = (
"265 -30 OFFCURVE",
"495 266 OFFCURVE",
"617 528 CURVE",
"595 639 LINE",
"519 377 OFFCURVE",
"288 89 OFFCURVE",
"192 89 CURVE SMOOTH",
"180 89 OFFCURVE",
"161 104 OFFCURVE",
"161 117 CURVE SMOOTH",
"161 230 OFFCURVE",
"229 475 OFFCURVE",
"283 618 CURVE SMOOTH",
"294 647 OFFCURVE",
"322 678 OFFCURVE",
"361 678 CURVE SMOOTH",
"445 678 OFFCURVE",
"533 662 OFFCURVE",
"627 632 CURVE",
"700 724 LINE",
"574 753 OFFCURVE",
"511 764 OFFCURVE",
"445 764 CURVE SMOOTH",
"315 764 OFFCURVE",
"203 638 OFFCURVE",
"163 523 CURVE SMOOTH",
"110 371 OFFCURVE",
"65 201 OFFCURVE",
"65 91 CURVE SMOOTH",
"65 12 OFFCURVE",
"111 -30 OFFCURVE",
"161 -30 CURVE SMOOTH"
);
}
);
width = 834;
},
{
background = {
paths = (
{
closed = 1;
nodes = (
"855 59 LINE",
"855 97 LINE",
"847 104 LINE",
"807 107 OFFCURVE",
"773 114 OFFCURVE",
"746 128 CURVE SMOOTH",
"710 146 OFFCURVE",
"690 178 OFFCURVE",
"690 231 CURVE SMOOTH",
"693 592 LINE SMOOTH",
"694 735 OFFCURVE",
"613 851 OFFCURVE",
"405 851 CURVE SMOOTH",
"309 851 OFFCURVE",
"201 827 OFFCURVE",
"108 783 CURVE",
"108 657 LINE",
"124 647 LINE",
"189 678 OFFCURVE",
"285 706 OFFCURVE",
"368 706 CURVE SMOOTH",
"449 706 OFFCURVE",
"560 679 OFFCURVE",
"557 528 CURVE SMOOTH",
"550 162 LINE SMOOTH",
"548 39 OFFCURVE",
"649 -30 OFFCURVE",
"735 -30 CURVE"
);
},
{
closed = 1;
nodes = (
"383 -30 OFFCURVE",
"474 13 OFFCURVE",
"567 125 CURVE",
"565 209 LINE",
"507 145 OFFCURVE",
"421 75 OFFCURVE",
"337 75 CURVE SMOOTH",
"283 75 OFFCURVE",
"236 101 OFFCURVE",
"236 177 CURVE SMOOTH",
"236 262 OFFCURVE",
"296 357 OFFCURVE",
"584 476 CURVE",
"568 569 LINE",
"405 495 LINE SMOOTH",
"167 387 OFFCURVE",
"85 266 OFFCURVE",
"85 154 CURVE SMOOTH",
"85 48 OFFCURVE",
"152 -30 OFFCURVE",
"284 -30 CURVE SMOOTH"
);
}
);
};
layerId = "CFF67ECA-3B2D-433B-B605-F38590C8F106";
paths = (
{
closed = 1;
nodes = (
"334 -30 OFFCURVE",
"507 176 OFFCURVE",
"629 478 CURVE",
"607 639 LINE",
"524 250 OFFCURVE",
"297 99 OFFCURVE",
"233 99 CURVE SMOOTH",
"190 99 OFFCURVE",
"179 205 OFFCURVE",
"179 266 CURVE SMOOTH",
"179 434 OFFCURVE",
"271 732 OFFCURVE",
"442 732 CURVE SMOOTH",
"494 732 OFFCURVE",
"553 697 OFFCURVE",
"647 619 CURVE",
"681 761 LINE",
"605 821 OFFCURVE",
"549 851 OFFCURVE",
"479 851 CURVE SMOOTH",
"247 851 OFFCURVE",
"45 487 OFFCURVE",
"45 198 CURVE SMOOTH",
"45 80 OFFCURVE",
"80 -30 OFFCURVE",
"189 -30 CURVE SMOOTH"
);
},
{
closed = 1;
nodes = (
"887 319 LINE",
"854 355 LINE",
"845 355 LINE",
"714 170 OFFCURVE",
"663 135 OFFCURVE",
"642 135 CURVE SMOOTH",
"634 135 OFFCURVE",
"630 140 OFFCURVE",
"630 149 CURVE SMOOTH",
"630 154 OFFCURVE",
"631 159 OFFCURVE",
"632 165 CURVE SMOOTH",
"772 821 LINE",
"736 851 LINE",
"638 787 LINE",
"492 97 LINE SMOOTH",
"475 19 OFFCURVE",
"539 -30 OFFCURVE",
"587 -30 CURVE SMOOTH",
"656 -30 OFFCURVE",
"781 127 OFFCURVE",
"887 312 CURVE"
);
}
);
width = 873;
}
);
leftMetricsKey = o;
rightMetricsKey = d;
unicode = 0061;
},
{
glyphname = b;
lastChange = "2020-02-26 11:20:11 +0000";
layers = (
{
layerId = "6B6AD122-EF8D-49FE-8C69-4BDE8C56BDD8";
paths = (
{
closed = 1;
nodes = (
"737 -30 OFFCURVE",
"938 188 OFFCURVE",
"938 473 CURVE SMOOTH",
"938 674 OFFCURVE",
"833 861 OFFCURVE",
"636 861 CURVE SMOOTH",
"494 861 OFFCURVE",
"404 763 OFFCURVE",
"339 705 CURVE",
"370 638 LINE",
"399 664 OFFCURVE",
"425 691 OFFCURVE",
"483 691 CURVE SMOOTH",
"626 691 OFFCURVE",
"707 535 OFFCURVE",
"707 352 CURVE SMOOTH",
"707 201 OFFCURVE",
"660 115 OFFCURVE",
"532 115 CURVE SMOOTH",
"446 115 OFFCURVE",
"395 153 OFFCURVE",
"371 179 CURVE",
"160 28 LINE",
"266 -7 OFFCURVE",
"380 -30 OFFCURVE",
"467 -30 CURVE SMOOTH"
);
},
{
closed = 1;
nodes = (
"371 179 LINE",
"371 1249 LINE",
"353 1266 LINE",
"85 1159 LINE",
"85 1108 LINE",
"136 1031 LINE",
"136 54 LINE",
"160 28 LINE"
);
}
);
width = 993;
},
{
layerId = "34301EF7-A2BE-469F-9697-D6100B11FDFE";
paths = (
{
closed = 1;
nodes = (
"771 -30 OFFCURVE",
"932 131 OFFCURVE",
"932 380 CURVE SMOOTH",
"932 623 OFFCURVE",
"817 780 OFFCURVE",
"623 780 CURVE SMOOTH",
"477 780 OFFCURVE",
"360 683 OFFCURVE",
"311 563 CURVE",
"337 520 LINE",
"382 633 OFFCURVE",
"482 725 OFFCURVE",
"591 725 CURVE SMOOTH",
"740 725 OFFCURVE",
"815 553 OFFCURVE",
"815 367 CURVE SMOOTH",
"815 156 OFFCURVE",
"712 25 OFFCURVE",
"556 25 CURVE SMOOTH",
"471 25 OFFCURVE",
"389 63 OFFCURVE",
"337 92 CURVE",
"234 28 LINE",
"337 -9 OFFCURVE",
"470 -30 OFFCURVE",
"546 -30 CURVE SMOOTH"
);
},
{
closed = 1;
nodes = (
"337 92 LINE",
"337 1258 LINE",
"326 1266 LINE",
"60 1191 LINE",
"60 1169 LINE",
"223 1147 LINE",
"223 41 LINE",
"234 28 LINE"
);
}
);
width = 1002;
},
{
background = {
paths = (
{
closed = 1;
nodes = (
"686 -30 OFFCURVE",
"874 171 OFFCURVE",
"874 438 CURVE SMOOTH",
"874 664 OFFCURVE",
"738 851 OFFCURVE",
"544 851 CURVE SMOOTH",
"423 851 OFFCURVE",
"338 776 OFFCURVE",
"261 715 CURVE",
"265 612 LINE",
"328 667 OFFCURVE",
"396 722 OFFCURVE",
"483 722 CURVE SMOOTH",
"617 722 OFFCURVE",
"709 589 OFFCURVE",
"709 384 CURVE SMOOTH",
"709 173 OFFCURVE",
"604 75 OFFCURVE",
"472 75 CURVE SMOOTH",
"396 75 OFFCURVE",
"335 107 OFFCURVE",
"278 138 CURVE",
"138 29 LINE",
"244 -8 OFFCURVE",
"361 -30 OFFCURVE",
"440 -30 CURVE SMOOTH"
);
},
{
closed = 1;
nodes = (
"278 138 LINE",
"278 1254 LINE",
"254 1266 LINE",
"6 1178 LINE",
"6 1129 LINE",
"124 1085 LINE",
"124 46 LINE",
"138 29 LINE"
);
}
);
};
layerId = "CFF67ECA-3B2D-433B-B605-F38590C8F106";
paths = (
{
closed = 1;
nodes = (
"272 115 OFFCURVE",
"272 181 CURVE SMOOTH",
"272 186 OFFCURVE",
"273 191 OFFCURVE",
"274 197 CURVE SMOOTH",
"503 1236 LINE",
"467 1266 LINE",
"136 1141 LINE",
"130 1081 LINE",
"146 1067 LINE",
"400 1126 LINE",
"357 1143 LINE",
"149 166 LINE SMOOTH",
"124 48 OFFCURVE",
"266 -30 OFFCURVE",
"374 -30 CURVE SMOOTH",
"670 -30 OFFCURVE",
"842 324 OFFCURVE",
"842 613 CURVE SMOOTH",
"842 731 OFFCURVE",
"807 851 OFFCURVE",
"698 851 CURVE SMOOTH",
"553 851 OFFCURVE",
"380 645 OFFCURVE",
"258 343 CURVE",
"277 214 LINE",
"360 563 OFFCURVE",
"590 722 OFFCURVE",
"654 722 CURVE SMOOTH",
"697 722 OFFCURVE",
"708 616 OFFCURVE",
"708 555 CURVE SMOOTH",
"708 387 OFFCURVE",
"605 81 OFFCURVE",
"434 81 CURVE SMOOTH",
"333 81 OFFCURVE"
);
}
);
width = 892;
}
);
leftMetricsKey = n;
rightMetricsKey = o;
unicode = 0062;
},
{
glyphname = c;
lastChange = "2020-02-26 11:12:02 +0000";
layers = (
{
layerId = "6B6AD122-EF8D-49FE-8C69-4BDE8C56BDD8";
paths = (
{
closed = 1;
nodes = (
"562 -30 OFFCURVE",
"675 45 OFFCURVE",
"745 102 CURVE",
"712 190 LINE",
"668 175 OFFCURVE",
"612 163 OFFCURVE",
"565 163 CURVE SMOOTH",
"383 163 OFFCURVE",
"241 309 OFFCURVE",
"241 484 CURVE SMOOTH",
"241 606 OFFCURVE",
"316 662 OFFCURVE",
"414 662 CURVE SMOOTH",
"487 662 OFFCURVE",
"565 635 OFFCURVE",
"635 551 CURVE",
"697 563 LINE",
"697 834 LINE",
"671 844 OFFCURVE",
"621 861 OFFCURVE",
"551 861 CURVE SMOOTH",
"308 861 OFFCURVE",
"55 665 OFFCURVE",
"55 384 CURVE SMOOTH",
"55 173 OFFCURVE",
"202 -30 OFFCURVE",
"426 -30 CURVE SMOOTH"
);
}
);
width = 820;
},
{
layerId = "34301EF7-A2BE-469F-9697-D6100B11FDFE";
paths = (
{
closed = 1;
nodes = (
"548 -30 OFFCURVE",
"624 46 OFFCURVE",
"700 143 CURVE",
"673 164 LINE",
"619 86 OFFCURVE",
"539 22 OFFCURVE",
"435 22 CURVE SMOOTH",
"257 22 OFFCURVE",
"187 209 OFFCURVE",
"187 381 CURVE SMOOTH",
"187 572 OFFCURVE",
"277 725 OFFCURVE",
"433 725 CURVE SMOOTH",
"591 725 OFFCURVE",
"606 571 OFFCURVE",
"630 468 CURVE",
"666 468 LINE",
"666 719 LINE",
"608 763 OFFCURVE",
"538 780 OFFCURVE",
"467 780 CURVE SMOOTH",
"241 780 OFFCURVE",
"70 603 OFFCURVE",
"70 361 CURVE SMOOTH",
"70 151 OFFCURVE",
"205 -30 OFFCURVE",
"411 -30 CURVE SMOOTH"
);
}
);
width = 790;
},
{
layerId = "CFF67ECA-3B2D-433B-B605-F38590C8F106";
paths = (
{
closed = 1;
nodes = (
"580 636 LINE",
"659 735 LINE",
"659 751 LINE",
"573 841 OFFCURVE",
"497 851 OFFCURVE",
"457 851 CURVE SMOOTH",
"225 851 OFFCURVE",
"56 509 OFFCURVE",
"56 250 CURVE SMOOTH",
"56 82 OFFCURVE",
"133 -30 OFFCURVE",
"276 -30 CURVE SMOOTH",
"413 -30 OFFCURVE",
"518 73 OFFCURVE",
"612 165 CURVE",
"612 178 LINE",
"582 226 LINE",
"571 228 LINE",
"470 142 OFFCURVE",
"382 94 OFFCURVE",
"316 94 CURVE SMOOTH",
"213 94 OFFCURVE",
"190 225 OFFCURVE",
"190 313 CURVE SMOOTH",
"190 454 OFFCURVE",
"249 723 OFFCURVE",
"395 723 CURVE SMOOTH",
"441 723 OFFCURVE",
"505 698 OFFCURVE",
"564 636 CURVE"
);
}
);
width = 695;
}
);
leftMetricsKey = o;
unicode = 0063;
},
{
glyphname = d;
lastChange = "2020-02-26 11:13:49 +0000";
layers = (
{
background = {
paths = (
{
closed = 1;
nodes = (
"391 -30 OFFCURVE",
"475 79 OFFCURVE",
"541 147 CURVE",
"509 236 LINE",
"509 207 OFFCURVE",
"454 145 OFFCURVE",
"376 145 CURVE SMOOTH",
"262 145 OFFCURVE",
"162 279 OFFCURVE",
"162 482 CURVE SMOOTH",
"162 653 OFFCURVE",
"226 719 OFFCURVE",
"315 719 CURVE SMOOTH",
"392 719 OFFCURVE",
"470 669 OFFCURVE",
"508 605 CURVE",
"610 730 LINE",
"534 800 OFFCURVE",
"475 861 OFFCURVE",
"364 861 CURVE SMOOTH",
"188 861 OFFCURVE",
"-63 726 OFFCURVE",
"-63 390 CURVE SMOOTH",
"-63 126 OFFCURVE",
"91 -30 OFFCURVE",
"255 -30 CURVE SMOOTH"
);
},
{
closed = 1;
nodes = (
"814 81 LINE",
"814 130 LINE",
"790 141 OFFCURVE",
"742 167 OFFCURVE",
"742 231 CURVE SMOOTH",
"742 1230 LINE",
"725 1247 LINE",
"457 1141 LINE",
"457 1091 LINE",
"508 1012 LINE",
"508 125 LINE",
"561 -13 LINE",
"587 -31 LINE"
);
}
);
};
layerId = "6B6AD122-EF8D-49FE-8C69-4BDE8C56BDD8";
paths = (
{
closed = 1;
nodes = (
"878 310 LINE",
"797 235 OFFCURVE",
"746 200 OFFCURVE",
"725 200 CURVE SMOOTH",
"717 200 OFFCURVE",
"713 205 OFFCURVE",
"713 214 CURVE SMOOTH",
"713 219 OFFCURVE",
"714 224 OFFCURVE",
"715 230 CURVE SMOOTH",
"931 1254 LINE",
"908 1266 LINE",
"546 1121 LINE",
"528 1029 LINE",
"750 1029 LINE",
"699 1143 LINE",
"489 149 LINE SMOOTH",
"465 37 OFFCURVE",
"527 -30 OFFCURVE",
"592 -30 CURVE SMOOTH",
"699 -30 OFFCURVE",
"873 150 OFFCURVE",
"939 235 CURVE",
"887 310 LINE"
);
},
{
closed = 1;
nodes = (
"379 -30 OFFCURVE",
"526 136 OFFCURVE",
"601 248 CURVE",
"589 309 LINE",
"509 207 OFFCURVE",
"441 153 OFFCURVE",
"366 153 CURVE SMOOTH",
"274 153 OFFCURVE",
"237 235 OFFCURVE",
"237 371 CURVE SMOOTH",
"237 504 OFFCURVE",
"277 699 OFFCURVE",
"392 699 CURVE SMOOTH",
"445 699 OFFCURVE",
"519 657 OFFCURVE",
"613 539 CURVE",
"653 771 LINE",
"577 851 OFFCURVE",
"501 861 OFFCURVE",
"465 861 CURVE SMOOTH",
"252 861 OFFCURVE",
"22 558 OFFCURVE",
"22 258 CURVE SMOOTH",
"22 110 OFFCURVE",
"75 -30 OFFCURVE",
"226 -30 CURVE SMOOTH"
);
}
);
width = 982;
},
{
background = {
paths = (
{
closed = 1;
nodes = (
"470 -30 OFFCURVE",
"583 67 OFFCURVE",
"614 129 CURVE",
"606 176 LINE",
"561 102 OFFCURVE",
"465 33 OFFCURVE",
"363 33 CURVE SMOOTH",
"207 33 OFFCURVE",
"116 194 OFFCURVE",
"116 378 CURVE SMOOTH",
"116 599 OFFCURVE",
"224 725 OFFCURVE",
"368 725 CURVE SMOOTH",
"471 725 OFFCURVE",
"564 661 OFFCURVE",
"606 553 CURVE",
"643 661 LINE",
"612 713 OFFCURVE",
"508 780 OFFCURVE",
"382 780 CURVE SMOOTH",
"186 780 OFFCURVE",
"3 628 OFFCURVE",
"3 364 CURVE SMOOTH",
"3 136 OFFCURVE",
"144 -30 OFFCURVE",
"328 -30 CURVE SMOOTH"
);
},
{
closed = 1;
nodes = (
"882 37 LINE",
"882 61 LINE",
"767 65 OFFCURVE",
"720 79 OFFCURVE",
"720 119 CURVE SMOOTH",
"720 1257 LINE",
"710 1266 LINE",
"444 1191 LINE",
"444 1169 LINE",
"606 1147 LINE",
"606 116 LINE",
"626 -31 LINE",
"637 -39 LINE"
);
}
);
};
layerId = "34301EF7-A2BE-469F-9697-D6100B11FDFE";
paths = (
{
closed = 1;
nodes = (
"216 -30 OFFCURVE",
"446 266 OFFCURVE",
"568 528 CURVE",
"546 639 LINE",
"470 377 OFFCURVE",
"239 89 OFFCURVE",
"143 89 CURVE SMOOTH",
"131 89 OFFCURVE",
"112 104 OFFCURVE",
"112 117 CURVE SMOOTH",
"112 230 OFFCURVE",
"180 475 OFFCURVE",
"234 618 CURVE SMOOTH",
"245 647 OFFCURVE",
"273 678 OFFCURVE",
"312 678 CURVE SMOOTH",
"396 678 OFFCURVE",
"484 662 OFFCURVE",
"578 632 CURVE",
"604 730 LINE",
"528 753 OFFCURVE",
"462 764 OFFCURVE",
"396 764 CURVE SMOOTH",
"266 764 OFFCURVE",
"154 638 OFFCURVE",
"114 523 CURVE SMOOTH",
"61 371 OFFCURVE",
"16 201 OFFCURVE",
"16 91 CURVE SMOOTH",
"16 12 OFFCURVE",
"62 -30 OFFCURVE",
"112 -30 CURVE SMOOTH"
);
},
{
closed = 1;
nodes = (
"699 245 LINE",
"624 156 OFFCURVE",
"542 81 OFFCURVE",
"518 81 CURVE SMOOTH",
"514 81 OFFCURVE",
"512 84 OFFCURVE",
"512 89 CURVE SMOOTH",
"512 94 OFFCURVE",
"513 99 OFFCURVE",
"514 105 CURVE SMOOTH",
"756 1254 LINE",
"733 1266 LINE",
"490 1201 LINE",
"482 1153 LINE",
"694 1153 LINE",
"652 1187 LINE",
"429 133 LINE SMOOTH",
"407 31 OFFCURVE",
"422 -30 OFFCURVE",
"475 -30 CURVE SMOOTH",
"476 -30 LINE SMOOTH",
"529 -30 OFFCURVE",
"597 30 OFFCURVE",
"740 215 CURVE",
"708 245 LINE"
);
}
);
width = 752;
},
{
background = {
paths = (
{
closed = 1;
nodes = (
"425 -30 OFFCURVE",
"518 62 OFFCURVE",
"569 115 CURVE",
"566 231 LINE",
"545 187 OFFCURVE",
"448 80 OFFCURVE",
"340 80 CURVE SMOOTH",
"211 80 OFFCURVE",
"116 214 OFFCURVE",
"116 428 CURVE SMOOTH",
"116 650 OFFCURVE",
"226 735 OFFCURVE",
"358 735 CURVE SMOOTH",
"461 735 OFFCURVE",
"534 684 OFFCURVE",
"567 616 CURVE",
"572 785 LINE",
"526 817 OFFCURVE",
"459 851 OFFCURVE",
"365 851 CURVE SMOOTH",
"155 851 OFFCURVE",
"-47 678 OFFCURVE",
"-47 384 CURVE SMOOTH",
"-47 128 OFFCURVE",
"96 -30 OFFCURVE",
"288 -30 CURVE SMOOTH"
);
},
{
closed = 1;
nodes = (
"444 1171 LINE",
"444 1122 LINE",
"561 1077 LINE",
"561 149 LINE",
"603 -26 LINE",
"623 -36 LINE",
"838 35 LINE",
"838 83 LINE",
"760 110 OFFCURVE",
"712 129 OFFCURVE",
"712 178 CURVE SMOOTH",
"712 1254 LINE",
"688 1266 LINE"
);
}
);
};
layerId = "CFF67ECA-3B2D-433B-B605-F38590C8F106";
paths = (
{
closed = 1;
nodes = (
"334 -30 OFFCURVE",
"507 176 OFFCURVE",
"629 478 CURVE",
"607 639 LINE",
"524 250 OFFCURVE",
"297 99 OFFCURVE",
"233 99 CURVE SMOOTH",
"190 99 OFFCURVE",
"179 205 OFFCURVE",
"179 266 CURVE SMOOTH",
"179 434 OFFCURVE",
"271 732 OFFCURVE",
"442 732 CURVE SMOOTH",
"494 732 OFFCURVE",
"553 697 OFFCURVE",
"647 619 CURVE",
"681 761 LINE",
"605 821 OFFCURVE",
"549 851 OFFCURVE",
"479 851 CURVE SMOOTH",
"247 851 OFFCURVE",
"45 487 OFFCURVE",
"45 198 CURVE SMOOTH",
"45 80 OFFCURVE",
"80 -30 OFFCURVE",
"189 -30 CURVE SMOOTH"
);
},
{
closed = 1;
nodes = (
"889 316 LINE",
"856 355 LINE",
"847 355 LINE",
"716 170 OFFCURVE",
"665 135 OFFCURVE",
"644 135 CURVE SMOOTH",
"636 135 OFFCURVE",
"632 140 OFFCURVE",
"632 149 CURVE SMOOTH",
"632 154 OFFCURVE",
"633 159 OFFCURVE",
"634 165 CURVE SMOOTH",
"860 1236 LINE",
"824 1266 LINE",
"493 1141 LINE",
"487 1081 LINE",
"503 1067 LINE",
"757 1126 LINE",
"714 1143 LINE",
"492 97 LINE SMOOTH",
"477 28 OFFCURVE",
"537 -30 OFFCURVE",
"595 -30 CURVE SMOOTH",
"664 -30 OFFCURVE",
"794 125 OFFCURVE",
"889 308 CURVE"
);
}
);
width = 876;
}
);
leftMetricsKey = o;
note = "Fix foot to have cut in it!!";
unicode = 0064;
},
{
glyphname = e;
lastChange = "2020-02-26 11:54:11 +0000";
layers = (
{
layerId = "6B6AD122-EF8D-49FE-8C69-4BDE8C56BDD8";
paths = (
{
closed = 1;
nodes = (
"562 -30 OFFCURVE",
"675 45 OFFCURVE",
"745 102 CURVE",
"712 190 LINE",
"668 175 OFFCURVE",
"612 163 OFFCURVE",
"565 163 CURVE SMOOTH",
"383 163 OFFCURVE",
"229 300 OFFCURVE",
"229 509 CURVE SMOOTH",
"229 640 OFFCURVE",
"291 692 OFFCURVE",
"366 692 CURVE SMOOTH",
"424 692 OFFCURVE",
"493 661 OFFCURVE",
"530 546 CURVE",
"720 527 LINE",
"750 553 LINE",
"707 772 OFFCURVE",
"586 861 OFFCURVE",
"449 861 CURVE SMOOTH",
"247 861 OFFCURVE",
"55 663 OFFCURVE",
"55 407 CURVE SMOOTH",
"55 183 OFFCURVE",
"202 -30 OFFCURVE",
"426 -30 CURVE SMOOTH"
);
},
{
closed = 1;
nodes = (
"720 478 LINE",
"750 553 LINE",
"605 580 LINE",
"140 472 LINE",
"140 346 LINE"
);
}
);
width = 840;
},
{
layerId = "34301EF7-A2BE-469F-9697-D6100B11FDFE";
paths = (
{
closed = 1;
nodes = (
"560 -30 OFFCURVE",
"636 46 OFFCURVE",
"712 143 CURVE",
"685 164 LINE",
"631 86 OFFCURVE",
"551 22 OFFCURVE",
"444 22 CURVE SMOOTH",
"260 22 OFFCURVE",
"187 209 OFFCURVE",
"187 387 CURVE SMOOTH",
"187 556 OFFCURVE",
"254 727 OFFCURVE",
"403 727 CURVE SMOOTH",
"535 727 OFFCURVE",
"588 592 OFFCURVE",
"588 465 CURVE",
"600 462 LINE",
"701 445 LINE",
"701 698 OFFCURVE",
"548 780 OFFCURVE",
"409 780 CURVE SMOOTH",
"218 780 OFFCURVE",
"70 625 OFFCURVE",
"70 368 CURVE SMOOTH",
"70 121 OFFCURVE",
"208 -30 OFFCURVE",
"414 -30 CURVE SMOOTH"
);
},
{
closed = 1;
nodes = (
"682 424 LINE",
"701 445 LINE",
"590 465 LINE",
"145 465 LINE",
"145 424 LINE"
);
}
);
width = 773;
},
{
background = {
paths = (
{
closed = 1;
nodes = (
"172 424 LINE",
"658 500 LINE",
"677 544 LINE",
"697 712 OFFCURVE",
"623 851 OFFCURVE",
"471 851 CURVE SMOOTH",
"223 851 OFFCURVE",
"54 509 OFFCURVE",
"54 250 CURVE SMOOTH",
"54 82 OFFCURVE",
"131 -30 OFFCURVE",
"274 -30 CURVE SMOOTH",
"411 -30 OFFCURVE",
"516 73 OFFCURVE",
"610 175 CURVE",
"610 188 LINE",
"580 236 LINE",
"569 238 LINE",
"468 142 OFFCURVE",
"380 94 OFFCURVE",
"314 94 CURVE SMOOTH",
"211 94 OFFCURVE",
"188 225 OFFCURVE",
"188 313 CURVE SMOOTH",
"188 503 OFFCURVE",
"268 736 OFFCURVE",
"417 736 CURVE SMOOTH",
"510 736 OFFCURVE",
"556 642 OFFCURVE",
"542 510 CURVE",
"611 581 LINE",
"172 513 LINE"
);
}
);
};
layerId = "CFF67ECA-3B2D-433B-B605-F38590C8F106";
paths = (
{
closed = 1;
nodes = (
"162 427 LINE",
"489 496 OFFCURVE",
"655 559 OFFCURVE",
"655 694 CURVE SMOOTH",
"655 787 OFFCURVE",
"574 851 OFFCURVE",
"475 851 CURVE SMOOTH",
"243 851 OFFCURVE",
"51 495 OFFCURVE",
"51 236 CURVE SMOOTH",
"51 68 OFFCURVE",
"131 -30 OFFCURVE",
"260 -30 CURVE SMOOTH",
"381 -30 OFFCURVE",
"513 53 OFFCURVE",
"620 128 CURVE",
"620 141 LINE",
"590 189 LINE",
"579 191 LINE",
"468 132 OFFCURVE",
"380 94 OFFCURVE",
"312 94 CURVE SMOOTH",
"211 94 OFFCURVE",
"188 205 OFFCURVE",
"188 293 CURVE SMOOTH",
"188 503 OFFCURVE",
"318 755 OFFCURVE",
"451 755 CURVE SMOOTH",
"503 755 OFFCURVE",
"527 717 OFFCURVE",
"527 684 CURVE SMOOTH",
"527 601 OFFCURVE",
"371 562 OFFCURVE",
"162 502 CURVE"
);
}
);
width = 737;
}
);
leftMetricsKey = o;
unicode = 0065;
},
{
glyphname = f;
lastChange = "2020-02-26 11:12:24 +0000";
layers = (
{
hints = (
{
origin = "{0, 0}";
scale = "{1.344, 0.96}";
type = Corner;
name = _corner.RightSerif;
},
{
origin = "{0, 26}";
scale = "{0.96, 0.96}";
type = Corner;
name = _corner.LeftSerif;
}
);
layerId = "6B6AD122-EF8D-49FE-8C69-4BDE8C56BDD8";
paths = (
{
closed = 1;
nodes = (
"400 0 LINE",
"401 699 LINE",
"618 699 LINE",
"618 831 LINE",
"401 831 LINE",
"390 911 OFFCURVE",
"354 947 OFFCURVE",
"354 1008 CURVE SMOOTH",
"354 1091 OFFCURVE",
"418 1113 OFFCURVE",
"459 1113 CURVE SMOOTH",
"517 1113 OFFCURVE",
"577 1072 OFFCURVE",
"618 983 CURVE",
"678 994 LINE",
"678 1239 LINE",
"652 1250 OFFCURVE",
"603 1266 OFFCURVE",
"541 1266 CURVE SMOOTH",
"375 1266 OFFCURVE",
"165 1152 OFFCURVE",
"165 897 CURVE SMOOTH",
"165 833 LINE",
"50 812 LINE",
"50 700 LINE",
"165 689 LINE",
"165 0 LINE"
);
}
);
width = 613;
},
{
hints = (
{
origin = "{0, 0}";
scale = "{0.96495, 0.74227}";
type = Corner;
name = _corner.RightSerif;
},
{
origin = "{0, 26}";
scale = "{0.74227, 0.74227}";
type = Corner;
name = _corner.LeftSerif;
}
);
layerId = "34301EF7-A2BE-469F-9697-D6100B11FDFE";
paths = (
{
closed = 1;
nodes = (
"307 0 LINE",
"307 692 LINE",
"555 692 LINE",
"555 750 LINE",
"307 750 LINE",
"306 834 OFFCURVE",
"306 919 OFFCURVE",
"307 1040 CURVE SMOOTH",
"308 1171 OFFCURVE",
"364 1213 OFFCURVE",
"429 1213 CURVE SMOOTH",
"554 1213 OFFCURVE",
"592 1057 OFFCURVE",
"595 973 CURVE",
"633 973 LINE",
"633 1221 LINE",
"585 1253 OFFCURVE",
"522 1266 OFFCURVE",
"471 1266 CURVE SMOOTH",
"347 1266 OFFCURVE",
"194 1194 OFFCURVE",
"194 970 CURVE SMOOTH",
"194 750 LINE",
"20 729 LINE",
"20 704 LINE",
"194 686 LINE",
"194 0 LINE"
);
}
);
width = 578;
},
{
background = {
hints = (
{
origin = "{0, 0}";
scale = "{1.4, 1.1}";
type = Corner;
name = _corner.RightSerif;
},
{
origin = "{0, 26}";
type = Corner;
name = _corner.LeftSerif;
}
);
paths = (
{
closed = 1;
nodes = (
"337 0 LINE",
"338 731 LINE",
"573 731 LINE",
"573 821 LINE",
"337 821 LINE",
"331 888 OFFCURVE",
"305 952 OFFCURVE",
"305 1012 CURVE SMOOTH",
"305 1113 OFFCURVE",
"371 1154 OFFCURVE",
"430 1154 CURVE SMOOTH",
"514 1154 OFFCURVE",
"559 1071 OFFCURVE",
"587 991 CURVE",
"639 995 LINE",
"639 1238 LINE",
"594 1255 OFFCURVE",
"551 1266 OFFCURVE",
"506 1266 CURVE SMOOTH",
"361 1266 OFFCURVE",
"181 1153 OFFCURVE",
"181 923 CURVE SMOOTH",
"181 837 LINE",
"36 800 LINE",
"36 735 LINE",
"186 715 LINE",
"186 0 LINE"
);
}
);
};
layerId = "CFF67ECA-3B2D-433B-B605-F38590C8F106";
paths = (
{
closed = 1;
nodes = (
"348 1145 OFFCURVE",
"482 1266 OFFCURVE",
"608 1266 CURVE SMOOTH",
"672 1266 OFFCURVE",
"749 1239 OFFCURVE",
"786 1156 CURVE",
"744 1055 LINE",
"714 1055 LINE",
"683 1108 OFFCURVE",
"628 1145 OFFCURVE",
"572 1145 CURVE SMOOTH",
"486 1145 OFFCURVE",
"433 1070 OFFCURVE",
"403 815 CURVE",
"641 840 LINE",
"650 828 LINE",
"624 731 LINE",
"398 731 LINE",
"265 -77 LINE SMOOTH",
"224 -324 OFFCURVE",
"90 -424 OFFCURVE",
"-36 -424 CURVE SMOOTH",
"-100 -424 OFFCURVE",
"-154 -412 OFFCURVE",
"-191 -359 CURVE",
"-149 -258 LINE",
"-119 -258 LINE",
"-88 -281 OFFCURVE",
"-56 -303 OFFCURVE",
"0 -303 CURVE SMOOTH",
"71 -303 OFFCURVE",
"109 -243 OFFCURVE",
"119 -183 CURVE SMOOTH",
"274 735 LINE",
"122 735 LINE",
"136 800 LINE",
"291 827 LINE",
"304 899 LINE SMOOTH"
);
}
);
width = 571;
}
);
unicode = 0066;
},
{
glyphname = g;
lastChange = "2020-02-26 11:10:52 +0000";
layers = (
{
background = {
paths = (
{
closed = 1;
nodes = (
"557 291 OFFCURVE",
"691 416 OFFCURVE",
"691 571 CURVE SMOOTH",
"691 732 OFFCURVE",
"547 851 OFFCURVE",
"381 851 CURVE SMOOTH",
"206 851 OFFCURVE",
"63 725 OFFCURVE",
"63 571 CURVE SMOOTH",
"63 409 OFFCURVE",
"215 291 OFFCURVE",
"381 291 CURVE SMOOTH"
);
},
{
closed = 1;
nodes = (
"279 383 OFFCURVE",
"221 496 OFFCURVE",
"221 600 CURVE SMOOTH",
"221 688 OFFCURVE",
"267 759 OFFCURVE",
"366 759 CURVE SMOOTH",
"488 759 OFFCURVE",
"543 647 OFFCURVE",
"543 545 CURVE SMOOTH",
"543 457 OFFCURVE",
"500 383 OFFCURVE",
"398 383 CURVE SMOOTH"
);
},
{
closed = 1;
nodes = (
"824 711 LINE",
"824 835 LINE",
"807 851 LINE",
"530 808 LINE",
"542 711 LINE"
);
},
{
closed = 1;
nodes = (
"289 82 LINE",
"158 -11 LINE SMOOTH",
"53 -86 OFFCURVE",
"10 -154 OFFCURVE",
"10 -232 CURVE SMOOTH",
"10 -347 OFFCURVE",
"106 -424 OFFCURVE",
"337 -424 CURVE SMOOTH",
"610 -424 OFFCURVE",
"774 -318 OFFCURVE",
"774 -158 CURVE SMOOTH",
"774 -47 OFFCURVE",
"696 20 OFFCURVE",
"565 64 CURVE SMOOTH",
"412 116 LINE SMOOTH",
"368 131 OFFCURVE",
"341 140 OFFCURVE",
"341 175 CURVE SMOOTH",
"341 192 OFFCURVE",
"347 214 OFFCURVE",
"405 299 CURVE",
"334 332 LINE",
"247 231 OFFCURVE",
"199 171 OFFCURVE",
"199 108 CURVE SMOOTH",
"199 60 OFFCURVE",
"229 -3 OFFCURVE",
"316 -30 CURVE SMOOTH",
"436 -67 LINE SMOOTH",
"592 -115 OFFCURVE",
"633 -146 OFFCURVE",
"633 -191 CURVE SMOOTH",
"633 -262 OFFCURVE",
"528 -322 OFFCURVE",
"354 -322 CURVE SMOOTH",
"194 -322 OFFCURVE",
"147 -269 OFFCURVE",
"147 -200 CURVE SMOOTH",
"147 -131 OFFCURVE",
"191 -62 OFFCURVE",
"345 27 CURVE"
);
}
);
};
layerId = "6B6AD122-EF8D-49FE-8C69-4BDE8C56BDD8";
paths = (
{
closed = 1;
nodes = (
"672 -424 OFFCURVE",
"813 -294 OFFCURVE",
"813 -125 CURVE SMOOTH",
"813 32 OFFCURVE",
"686 91 OFFCURVE",
"388 175 CURVE SMOOTH",
"328 192 OFFCURVE",
"311 205 OFFCURVE",
"311 227 CURVE SMOOTH",
"311 238 OFFCURVE",
"316 278 OFFCURVE",
"373 333 CURVE",
"305 375 LINE",
"172 250 OFFCURVE",
"129 169 OFFCURVE",
"129 98 CURVE SMOOTH",
"129 23 OFFCURVE",
"178 -19 OFFCURVE",
"249 -38 CURVE SMOOTH",
"562 -122 OFFCURVE",
"633 -145 OFFCURVE",
"633 -208 CURVE SMOOTH",
"633 -266 OFFCURVE",
"573 -292 OFFCURVE",
"436 -292 CURVE SMOOTH",
"303 -292 OFFCURVE",
"192 -268 OFFCURVE",
"192 -169 CURVE SMOOTH",
"192 -115 OFFCURVE",
"227 -16 OFFCURVE",
"281 27 CURVE",
"242 79 LINE",
"143 4 LINE SMOOTH",
"63 -57 OFFCURVE",
"0 -133 OFFCURVE",
"0 -225 CURVE SMOOTH",
"0 -377 OFFCURVE",
"171 -424 OFFCURVE",
"363 -424 CURVE SMOOTH"
);
},
{
closed = 1;
nodes = (
"595 283 OFFCURVE",
"750 412 OFFCURVE",
"750 571 CURVE SMOOTH",
"750 731 OFFCURVE",
"595 861 OFFCURVE",
"403 861 CURVE SMOOTH",
"211 861 OFFCURVE",
"56 731 OFFCURVE",
"56 571 CURVE SMOOTH",
"56 412 OFFCURVE",
"211 283 OFFCURVE",
"403 283 CURVE SMOOTH"
);
},
{
closed = 1;
nodes = (
"348 401 OFFCURVE",
"255 535 OFFCURVE",
"255 638 CURVE SMOOTH",
"255 701 OFFCURVE",
"290 742 OFFCURVE",
"352 742 CURVE SMOOTH",
"460 742 OFFCURVE",
"554 613 OFFCURVE",
"554 508 CURVE SMOOTH",
"554 445 OFFCURVE",
"519 401 OFFCURVE",
"456 401 CURVE SMOOTH"
);
},
{
closed = 1;
nodes = (
"880 668 LINE",
"880 842 LINE",
"846 861 LINE",
"566 765 LINE",
"578 668 LINE"
);
}
);
width = 935;
},
{
layerId = "34301EF7-A2BE-469F-9697-D6100B11FDFE";
paths = (
{
closed = 1;
nodes = (
"651 -424 OFFCURVE",
"797 -301 OFFCURVE",
"797 -166 CURVE SMOOTH",
"797 -41 OFFCURVE",
"678 57 OFFCURVE",
"361 83 CURVE SMOOTH",
"267 91 OFFCURVE",
"255 126 OFFCURVE",
"255 149 CURVE SMOOTH",
"255 209 OFFCURVE",
"334 247 OFFCURVE",
"390 253 CURVE",
"349 286 LINE",
"305 286 OFFCURVE",
"152 230 OFFCURVE",
"152 118 CURVE SMOOTH",
"152 85 OFFCURVE",
"166 2 OFFCURVE",
"296 -14 CURVE SMOOTH",
"598 -50 OFFCURVE",
"696 -115 OFFCURVE",
"696 -204 CURVE SMOOTH",
"696 -286 OFFCURVE",
"610 -365 OFFCURVE",
"434 -365 CURVE SMOOTH",
"237 -365 OFFCURVE",
"137 -285 OFFCURVE",
"137 -164 CURVE SMOOTH",
"137 -84 OFFCURVE",
"189 -4 OFFCURVE",
"257 -1 CURVE",
"246 20 LINE",
"183 42 OFFCURVE",
"20 -40 OFFCURVE",
"20 -174 CURVE SMOOTH",
"20 -305 OFFCURVE",
"172 -424 OFFCURVE",
"405 -424 CURVE SMOOTH"
);
},
{
closed = 1;
nodes = (
"556 253 OFFCURVE",
"692 376 OFFCURVE",
"692 512 CURVE SMOOTH",
"692 646 OFFCURVE",
"556 780 OFFCURVE",
"390 780 CURVE SMOOTH",
"226 780 OFFCURVE",
"91 646 OFFCURVE",
"91 512 CURVE SMOOTH",
"91 376 OFFCURVE",
"226 253 OFFCURVE",
"390 253 CURVE SMOOTH"
);
},
{
closed = 1;
nodes = (
"291 307 OFFCURVE",
"209 389 OFFCURVE",
"209 517 CURVE SMOOTH",
"209 644 OFFCURVE",
"291 726 OFFCURVE",
"391 726 CURVE SMOOTH",
"490 726 OFFCURVE",
"574 644 OFFCURVE",
"574 517 CURVE SMOOTH",
"574 389 OFFCURVE",
"490 307 OFFCURVE",
"391 307 CURVE SMOOTH"
);
},
{
closed = 1;
nodes = (
"825 680 LINE",
"825 767 LINE",
"808 780 LINE",
"531 727 LINE",
"543 680 LINE"
);
}
);
width = 861;
},
{
background = {
paths = (
{
closed = 1;
nodes = (
"536 291 OFFCURVE",
"691 410 OFFCURVE",
"722 558 CURVE SMOOTH",
"758 726 OFFCURVE",
"636 851 OFFCURVE",
"465 851 CURVE SMOOTH",
"295 851 OFFCURVE",
"131 731 OFFCURVE",
"100 584 CURVE SMOOTH",
"64 415 OFFCURVE",
"194 291 OFFCURVE",
"365 291 CURVE SMOOTH"
);
},
{
closed = 1;
nodes = (
"268 383 OFFCURVE",
"238 490 OFFCURVE",
"259 587 CURVE SMOOTH",
"279 682 OFFCURVE",
"346 759 OFFCURVE",
"450 759 CURVE SMOOTH",
"567 759 OFFCURVE",
"595 653 OFFCURVE",
"574 558 CURVE SMOOTH",
"554 463 OFFCURVE",
"489 383 OFFCURVE",
"383 383 CURVE SMOOTH"
);
},
{
closed = 1;
nodes = (
"888 711 LINE",
"913 835 LINE",
"899 851 LINE",
"615 808 LINE",
"606 711 LINE"
);
},
{
closed = 1;
nodes = (
"216 82 LINE",
"64 -7 LINE SMOOTH",
"-56 -82 OFFCURVE",
"-109 -148 OFFCURVE",
"-124 -219 CURVE SMOOTH",
"-150 -341 OFFCURVE",
"-67 -424 OFFCURVE",
"169 -424 CURVE SMOOTH",
"437 -424 OFFCURVE",
"618 -324 OFFCURVE",
"650 -171 CURVE SMOOTH",
"675 -53 OFFCURVE",
"608 18 OFFCURVE",
"486 62 CURVE SMOOTH",
"344 114 LINE SMOOTH",
"304 129 OFFCURVE",
"282 134 OFFCURVE",
"288 162 CURVE SMOOTH",
"293 186 OFFCURVE",
"307 209 OFFCURVE",
"383 294 CURVE",
"314 337 LINE",
"207 236 OFFCURVE",
"149 177 OFFCURVE",
"137 121 CURVE SMOOTH",
"126 66 OFFCURVE",
"146 -1 OFFCURVE",
"227 -28 CURVE SMOOTH",
"340 -65 LINE SMOOTH",
"485 -113 OFFCURVE",
"516 -140 OFFCURVE",
"508 -178 CURVE SMOOTH",
"491 -256 OFFCURVE",
"367 -322 OFFCURVE",
"189 -322 CURVE SMOOTH",
"33 -322 OFFCURVE",
"1 -275 OFFCURVE",
"15 -213 CURVE SMOOTH",
"31 -137 OFFCURVE",
"94 -65 OFFCURVE",
"267 24 CURVE"
);
}
);
};
layerId = "CFF67ECA-3B2D-433B-B605-F38590C8F106";
paths = (
{
closed = 1;
nodes = (
"334 -30 OFFCURVE",
"507 176 OFFCURVE",
"629 478 CURVE",
"607 639 LINE",
"524 250 OFFCURVE",
"297 99 OFFCURVE",
"233 99 CURVE SMOOTH",
"190 99 OFFCURVE",
"179 205 OFFCURVE",
"179 266 CURVE SMOOTH",
"179 434 OFFCURVE",
"271 732 OFFCURVE",
"442 732 CURVE SMOOTH",
"494 732 OFFCURVE",
"553 697 OFFCURVE",
"647 619 CURVE",
"681 761 LINE",
"605 821 OFFCURVE",
"549 851 OFFCURVE",
"479 851 CURVE SMOOTH",
"247 851 OFFCURVE",
"45 487 OFFCURVE",
"45 198 CURVE SMOOTH",
"45 80 OFFCURVE",
"80 -30 OFFCURVE",
"189 -30 CURVE SMOOTH"
);
},
{
closed = 1;
nodes = (
"-44 -358 LINE",
"105 -412 OFFCURVE",
"181 -424 OFFCURVE",
"232 -424 CURVE SMOOTH",
"386 -424 OFFCURVE",
"529 -320 OFFCURVE",
"569 -131 CURVE SMOOTH",
"772 821 LINE",
"736 851 LINE",
"638 787 LINE",
"427 -211 LINE SMOOTH",
"409 -296 OFFCURVE",
"358 -328 OFFCURVE",
"287 -328 CURVE SMOOTH",
"232 -328 OFFCURVE",
"164 -308 OFFCURVE",
"29 -230 CURVE",
"8 -230 LINE",
"-44 -338 LINE"
);
}
);
width = 874;
}
);
note = ss03;
unicode = 0067;
},
{
glyphname = h;
lastChange = "2020-02-26 11:20:11 +0000";
layers = (
{
hints = (
{
origin = "{1, 6}";
scale = "{0.96, 0.96}";
type = Corner;
name = _corner.LeftSerif;
},
{
origin = "{1, 0}";
scale = "{0.96, 0.96}";
type = Corner;
name = _corner.RightSerif;
},
{
origin = "{0, 0}";
scale = "{0.96, 0.96}";
type = Corner;
name = _corner.RightSerif;
},
{
origin = "{0, 15}";
scale = "{0.96, 0.96}";
type = Corner;
name = _corner.LeftSerif;
}
);
layerId = "6B6AD122-EF8D-49FE-8C69-4BDE8C56BDD8";
paths = (
{
closed = 1;
nodes = (
"917 0 LINE",
"917 577 LINE SMOOTH",
"917 774 OFFCURVE",
"799 861 OFFCURVE",
"663 861 CURVE SMOOTH",
"526 861 OFFCURVE",
"418 773 OFFCURVE",
"351 693 CURVE",
"356 606 LINE",
"404 632 OFFCURVE",
"482 684 OFFCURVE",
"556 684 CURVE SMOOTH",
"640 684 OFFCURVE",
"681 617 OFFCURVE",
"681 506 CURVE SMOOTH",
"681 0 LINE"
);
},
{
closed = 1;
nodes = (
"370 0 LINE",
"370 1250 LINE",
"352 1266 LINE",
"85 1160 LINE",
"85 1108 LINE",
"135 1029 LINE",
"135 0 LINE"
);
}
);
width = 1045;
},
{
hints = (
{
origin = "{1, 0}";
scale = "{0.74227, 0.74227}";
type = Corner;
name = _corner.RightSerif;
},
{
origin = "{1, 6}";
scale = "{0.74227, 0.74227}";
type = Corner;
name = _corner.LeftSerif;
},
{
origin = "{0, 0}";
scale = "{0.74227, 0.74227}";
type = Corner;
name = _corner.RightSerif;
},
{
origin = "{0, 15}";
scale = "{0.74227, 0.74227}";
type = Corner;
name = _corner.LeftSerif;
}
);
layerId = "34301EF7-A2BE-469F-9697-D6100B11FDFE";
paths = (
{
closed = 1;
nodes = (
"864 0 LINE",
"864 508 LINE SMOOTH",
"864 699 OFFCURVE",
"748 780 OFFCURVE",
"626 780 CURVE SMOOTH",
"496 780 OFFCURVE",
"374 688 OFFCURVE",
"294 560 CURVE",
"313 510 LINE",
"414 673 OFFCURVE",
"516 712 OFFCURVE",
"588 712 CURVE SMOOTH",
"710 712 OFFCURVE",
"751 606 OFFCURVE",
"751 471 CURVE SMOOTH",
"751 0 LINE"
);
},
{
closed = 1;
nodes = (
"337 0 LINE",
"337 1257 LINE",
"327 1266 LINE",
"60 1190 LINE",
"60 1168 LINE",
"223 1147 LINE",
"223 0 LINE"
);
}
);
width = 1073;
},
{
layerId = "CFF67ECA-3B2D-433B-B605-F38590C8F106";
paths = (
{
closed = 1;
nodes = (
"220 15 LINE",
"297 373 LINE",
"495 1236 LINE",
"459 1266 LINE",
"128 1141 LINE",
"122 1081 LINE",
"138 1067 LINE",
"392 1116 LINE",
"348 1167 LINE",
"118 122 LINE",
"62 0 LINE",
"91 -30 LINE"
);
},
{
closed = 1;
nodes = (
"971 318 LINE",
"938 355 LINE",
"929 355 LINE",
"819 205 OFFCURVE",
"773 135 OFFCURVE",
"734 135 CURVE SMOOTH",
"726 135 OFFCURVE",
"722 140 OFFCURVE",
"722 149 CURVE SMOOTH",
"722 154 OFFCURVE",
"723 159 OFFCURVE",
"724 165 CURVE SMOOTH",
"826 583 LINE SMOOTH",
"868 753 OFFCURVE",
"792 851 OFFCURVE",
"676 851 CURVE SMOOTH",
"518 851 OFFCURVE",
"396 672 OFFCURVE",
"184 160 CURVE",
"217 125 LINE",
"449 633 OFFCURVE",
"551 727 OFFCURVE",
"620 727 CURVE SMOOTH",
"678 727 OFFCURVE",
"717 662 OFFCURVE",
"697 579 CURVE SMOOTH",
"575 85 LINE SMOOTH",
"559 21 OFFCURVE",
"614 -30 OFFCURVE",
"652 -30 CURVE SMOOTH",
"747 -30 OFFCURVE",
"857 115 OFFCURVE",
"971 310 CURVE"
);
}
);
width = 976;
}
);
leftMetricsKey = l;
rightMetricsKey = n;
unicode = 0068;
},
{
glyphname = i;
lastChange = "2020-02-26 11:20:11 +0000";
layers = (
{
hints = (
{
origin = "{0, 6}";
scale = "{0.96, 0.96}";
type = Corner;
name = _corner.LeftSerif;
},
{
origin = "{0, 0}";
scale = "{0.96, 0.96}";
type = Corner;
name = _corner.RightSerif;
}
);
layerId = "6B6AD122-EF8D-49FE-8C69-4BDE8C56BDD8";
paths = (
{
closed = 1;
nodes = (
"371 0 LINE",
"371 844 LINE",
"352 861 LINE",
"85 755 LINE",
"85 705 LINE",
"135 625 LINE",
"135 0 LINE"
);
},
{
closed = 1;
nodes = (
"335 975 OFFCURVE",
"401 1041 OFFCURVE",
"401 1116 CURVE SMOOTH",
"401 1189 OFFCURVE",
"335 1256 OFFCURVE",
"251 1256 CURVE SMOOTH",
"166 1256 OFFCURVE",
"99 1189 OFFCURVE",
"99 1116 CURVE SMOOTH",
"99 1041 OFFCURVE",
"166 975 OFFCURVE",
"251 975 CURVE SMOOTH"
);
}
);
width = 499;
},
{
hints = (
{
origin = "{0, 0}";
scale = "{0.74227, 0.74227}";
type = Corner;
name = _corner.RightSerif;
},
{
origin = "{0, 6}";
scale = "{0.74227, 0.74227}";
type = Corner;
name = _corner.LeftSerif;
}
);
layerId = "34301EF7-A2BE-469F-9697-D6100B11FDFE";
paths = (
{
closed = 1;
nodes = (
"337 0 LINE",
"337 772 LINE",
"327 780 LINE",
"60 707 LINE",
"60 683 LINE",
"224 661 LINE",
"224 0 LINE"
);
},
{
closed = 1;
nodes = (
"318 1007 OFFCURVE",
"362 1049 OFFCURVE",
"362 1096 CURVE SMOOTH",
"362 1144 OFFCURVE",
"318 1185 OFFCURVE",
"266 1185 CURVE SMOOTH",
"212 1185 OFFCURVE",
"169 1144 OFFCURVE",
"169 1096 CURVE SMOOTH",
"169 1049 OFFCURVE",
"212 1007 OFFCURVE",
"266 1007 CURVE SMOOTH"
);
}
);
width = 546;
},
{
background = {
hints = (
{
origin = "{0, 0}";
type = Corner;
name = _corner.RightSerif;
},
{
origin = "{0, 6}";
type = Corner;
name = _corner.LeftSerif;
}
);
paths = (
{
closed = 1;
nodes = (
"325 0 LINE",
"325 839 LINE",
"301 851 LINE",
"57 765 LINE",
"57 714 LINE",
"175 669 LINE",
"175 0 LINE"
);
},
{
closed = 1;
nodes = (
"307 973 OFFCURVE",
"359 1023 OFFCURVE",
"359 1080 CURVE SMOOTH",
"359 1136 OFFCURVE",
"307 1185 OFFCURVE",
"245 1185 CURVE SMOOTH",
"181 1185 OFFCURVE",
"130 1136 OFFCURVE",
"130 1080 CURVE SMOOTH",
"130 1023 OFFCURVE",
"181 973 OFFCURVE",
"245 973 CURVE SMOOTH"
);
}
);
};
layerId = "CFF67ECA-3B2D-433B-B605-F38590C8F106";
paths = (
{
closed = 1;
nodes = (
"421 973 OFFCURVE",
"475 1017 OFFCURVE",
"486 1067 CURVE SMOOTH",
"500 1130 OFFCURVE",
"457 1185 OFFCURVE",
"400 1185 CURVE SMOOTH",
"351 1185 OFFCURVE",
"299 1142 OFFCURVE",
"288 1093 CURVE SMOOTH",
"274 1029 OFFCURVE",
"315 973 OFFCURVE",
"374 973 CURVE SMOOTH"
);
},
{
closed = 1;
nodes = (
"529 320 LINE",
"497 355 LINE",
"488 355 LINE",
"357 170 OFFCURVE",
"306 135 OFFCURVE",
"285 135 CURVE SMOOTH",
"277 135 OFFCURVE",
"273 140 OFFCURVE",
"273 149 CURVE SMOOTH",
"273 154 OFFCURVE",
"274 159 OFFCURVE",
"275 165 CURVE SMOOTH",
"415 821 LINE",
"379 851 LINE",
"48 726 LINE",
"42 666 LINE",
"58 652 LINE",
"312 711 LINE",
"281 787 LINE",
"135 97 LINE SMOOTH",
"118 19 OFFCURVE",
"182 -30 OFFCURVE",
"230 -30 CURVE SMOOTH",
"299 -30 OFFCURVE",
"424 128 OFFCURVE",
"529 310 CURVE"
);
}
);
width = 534;
}
);
leftMetricsKey = n;
rightMetricsKey = n;
unicode = 0069;
},
{
glyphname = j;
lastChange = "2020-02-26 11:12:49 +0000";
layers = (
{
layerId = "6B6AD122-EF8D-49FE-8C69-4BDE8C56BDD8";
paths = (
{
closed = 1;
nodes = (
"224 -334 OFFCURVE",
"408 -92 OFFCURVE",
"408 132 CURVE SMOOTH",
"408 844 LINE",
"390 861 LINE",
"123 754 LINE",
"123 704 LINE",
"172 625 LINE",
"172 25 LINE SMOOTH",
"172 -64 OFFCURVE",
"165 -186 OFFCURVE",
"95 -386 CURVE",
"97 -398 LINE",
"158 -424 LINE"
);
},
{
closed = 1;
nodes = (
"365 1004 OFFCURVE",
"427 1066 OFFCURVE",
"427 1135 CURVE SMOOTH",
"427 1203 OFFCURVE",
"365 1266 OFFCURVE",
"288 1266 CURVE SMOOTH",
"209 1266 OFFCURVE",
"147 1203 OFFCURVE",
"147 1135 CURVE SMOOTH",
"147 1066 OFFCURVE",
"209 1004 OFFCURVE",
"288 1004 CURVE SMOOTH"
);
}
);
width = 547;
},
{
associatedMasterId = "6B6AD122-EF8D-49FE-8C69-4BDE8C56BDD8";
layerId = "C15B6B87-8A32-406C-B6EA-B2191BCD8B2B";
name = Text/Large;
paths = (
{
closed = 1;
nodes = (
"250 -420 OFFCURVE",
"434 -16 OFFCURVE",
"434 184 CURVE SMOOTH",
"434 1137 LINE",
"420 1147 LINE",
"61 1047 LINE",
"61 1016 LINE",
"281 987 LINE",
"281 102 LINE SMOOTH",
"281 -143 OFFCURVE",
"207 -315 OFFCURVE",
"113 -512 CURVE",
"162 -541 LINE"
);
},
{
closed = 1;
nodes = (
"408 1419 OFFCURVE",
"467 1475 OFFCURVE",
"467 1540 CURVE SMOOTH",
"467 1604 OFFCURVE",
"408 1659 OFFCURVE",
"338 1659 CURVE SMOOTH",
"266 1659 OFFCURVE",
"207 1604 OFFCURVE",
"207 1540 CURVE SMOOTH",
"207 1475 OFFCURVE",
"266 1419 OFFCURVE",
"338 1419 CURVE SMOOTH"
);
}
);
width = 662;
},
{
associatedMasterId = "6B6AD122-EF8D-49FE-8C69-4BDE8C56BDD8";
layerId = "C8815645-C473-45AD-B3EF-879FD1679DB8";
name = Bold/Small;
paths = (
{
closed = 1;
nodes = (
"215 -424 OFFCURVE",
"463 -98 OFFCURVE",
"463 102 CURVE SMOOTH",
"463 879 LINE",
"438 901 LINE",
"76 758 LINE",
"76 717 LINE",
"145 621 LINE",
"145 61 LINE SMOOTH",
"145 -61 OFFCURVE",
"135 -225 OFFCURVE",
"41 -494 CURVE",
"127 -545 LINE"
);
},
{
closed = 1;
nodes = (
"406 1120 OFFCURVE",
"489 1204 OFFCURVE",
"489 1298 CURVE SMOOTH",
"489 1391 OFFCURVE",
"406 1475 OFFCURVE",
"301 1475 CURVE SMOOTH",
"195 1475 OFFCURVE",
"111 1391 OFFCURVE",
"111 1298 CURVE SMOOTH",
"111 1204 OFFCURVE",
"195 1120 OFFCURVE",
"301 1120 CURVE SMOOTH"
);
}
);
width = 592;
},
{
associatedMasterId = "6B6AD122-EF8D-49FE-8C69-4BDE8C56BDD8";
layerId = "6400E7DD-72A7-4A80-ABEC-BBE29D62785D";
name = Text/Small;
paths = (
{
closed = 1;
nodes = (
"207 -420 OFFCURVE",
"391 -16 OFFCURVE",
"391 184 CURVE SMOOTH",
"391 891 LINE",
"377 901 LINE",
"41 801 LINE",
"41 770 LINE",
"238 741 LINE",
"238 102 LINE SMOOTH",
"238 -143 OFFCURVE",
"164 -315 OFFCURVE",
"70 -512 CURVE",
"119 -541 LINE"
);
},
{
closed = 1;
nodes = (
"365 1235 OFFCURVE",
"424 1290 OFFCURVE",
"424 1356 CURVE SMOOTH",
"424 1419 OFFCURVE",
"365 1475 OFFCURVE",
"295 1475 CURVE SMOOTH",
"223 1475 OFFCURVE",
"164 1419 OFFCURVE",
"164 1356 CURVE SMOOTH",
"164 1290 OFFCURVE",
"223 1235 OFFCURVE",
"295 1235 CURVE SMOOTH"
);
}
);
width = 578;
},
{
associatedMasterId = "6B6AD122-EF8D-49FE-8C69-4BDE8C56BDD8";
layerId = "221168A0-42AE-4060-A999-47FABC9AC537";
name = "new Layer";
width = 1229;
},
{
layerId = "34301EF7-A2BE-469F-9697-D6100B11FDFE";
paths = (
{
closed = 1;
nodes = (
"190 -334 OFFCURVE",
"327 -34 OFFCURVE",
"327 114 CURVE SMOOTH",
"327 772 LINE",
"317 780 LINE",
"50 705 LINE",
"50 683 LINE",
"214 661 LINE",
"214 53 LINE SMOOTH",
"214 -128 OFFCURVE",
"159 -257 OFFCURVE",
"89 -402 CURVE",
"89 -405 LINE",
"125 -424 LINE"
);
},
{
closed = 1;
nodes = (
"308 1006 OFFCURVE",
"352 1049 OFFCURVE",
"352 1096 CURVE SMOOTH",
"352 1144 OFFCURVE",
"308 1185 OFFCURVE",
"256 1185 CURVE SMOOTH",
"202 1185 OFFCURVE",
"159 1144 OFFCURVE",
"159 1096 CURVE SMOOTH",
"159 1049 OFFCURVE",
"202 1006 OFFCURVE",
"256 1006 CURVE SMOOTH"
);
}
);
width = 507;
},
{
background = {
paths = (
{
closed = 1;
nodes = (
"233 -222 OFFCURVE",
"322 -57 OFFCURVE",
"322 121 CURVE SMOOTH",
"322 839 LINE",
"299 851 LINE",
"53 763 LINE",
"53 714 LINE",
"171 669 LINE",
"171 42 LINE SMOOTH",
"171 -98 OFFCURVE",
"132 -220 OFFCURVE",
"41 -378 CURVE",
"41 -399 LINE",
"109 -424 LINE"
);
},
{
closed = 1;
nodes = (
"294 1005 OFFCURVE",
"345 1056 OFFCURVE",
"345 1112 CURVE SMOOTH",
"345 1168 OFFCURVE",
"294 1217 OFFCURVE",
"232 1217 CURVE SMOOTH",
"168 1217 OFFCURVE",
"117 1168 OFFCURVE",
"117 1112 CURVE SMOOTH",
"117 1056 OFFCURVE",
"168 1005 OFFCURVE",
"232 1005 CURVE SMOOTH"
);
}
);
};
layerId = "CFF67ECA-3B2D-433B-B605-F38590C8F106";
paths = (
{
closed = 1;
nodes = (
"122 85 LINE SMOOTH",
"90 -62 OFFCURVE",
"-3 -215 OFFCURVE",
"-108 -368 CURVE",
"-110 -394 LINE",
"-46 -424 LINE",
"100 -227 OFFCURVE",
"221 -63 OFFCURVE",
"267 155 CURVE SMOOTH",
"408 821 LINE",
"372 851 LINE",
"41 726 LINE",
"35 666 LINE",
"51 652 LINE",
"305 711 LINE",
"274 787 LINE"
);
},
{
closed = 1;
nodes = (
"425 1005 OFFCURVE",
"481 1050 OFFCURVE",
"491 1099 CURVE SMOOTH",
"505 1162 OFFCURVE",
"461 1217 OFFCURVE",
"394 1217 CURVE SMOOTH",
"335 1217 OFFCURVE",
"279 1174 OFFCURVE",
"269 1125 CURVE SMOOTH",
"256 1062 OFFCURVE",
"299 1005 OFFCURVE",
"368 1005 CURVE SMOOTH"
);
}
);
width = 513;
}
);
unicode = 006A;
},
{
glyphname = k;
lastChange = "2020-02-26 11:20:11 +0000";
layers = (
{
hints = (
{
origin = "{0, 6}";
scale = "{0.96, 0.96}";
type = Corner;
name = _corner.LeftSerif;
},
{
origin = "{0, 0}";
scale = "{0.96, 0.96}";
type = Corner;
name = _corner.RightSerif;
}
);
layerId = "6B6AD122-EF8D-49FE-8C69-4BDE8C56BDD8";
paths = (
{
closed = 1;
nodes = (
"371 0 LINE",
"371 1250 LINE",
"353 1266 LINE",
"85 1160 LINE",
"85 1108 LINE",
"136 1029 LINE",
"136 0 LINE"
);
},
{
closed = 1;
nodes = (
"901 0 LINE",
"916 51 LINE",
"916 68 LINE",
"893 88 OFFCURVE",
"843 141 OFFCURVE",
"816 193 CURVE SMOOTH",
"613 584 LINE",
"428 433 LINE",
"583 141 LINE SMOOTH",
"601 106 OFFCURVE",
"598 87 OFFCURVE",
"547 61 CURVE",
"547 48 LINE",
"570 0 LINE"
);
},
{
closed = 1;
nodes = (
"441 408 LINE",
"714 656 LINE SMOOTH",
"772 708 OFFCURVE",
"855 757 OFFCURVE",
"897 778 CURVE",
"901 784 LINE",
"895 831 LINE",
"586 831 LINE",
"567 790 LINE",
"567 781 LINE",
"622 754 OFFCURVE",
"593 710 OFFCURVE",
"567 685 CURVE SMOOTH",
"337 471 LINE",
"362 408 LINE"
);
}
);
width = 916;
},
{
hints = (
{
origin = "{0, 0}";
scale = "{0.74227, 0.742}";
type = Corner;
name = _corner.RightSerif;
},
{
origin = "{0, 6}";
scale = "{0.74227, 0.74227}";
type = Corner;
name = _corner.LeftSerif;
}
);
layerId = "34301EF7-A2BE-469F-9697-D6100B11FDFE";
paths = (
{
closed = 1;
nodes = (
"337 0 LINE",
"337 1257 LINE",
"326 1266 LINE",
"60 1190 LINE",
"60 1168 LINE",
"223 1147 LINE",
"223 0 LINE"
);
},
{
closed = 1;
nodes = (
"892 0 LINE",
"895 30 LINE",
"890 36 LINE",
"819 45 OFFCURVE",
"761 57 OFFCURVE",
"725 122 CURVE SMOOTH",
"501 523 LINE",
"432 446 LINE",
"602 112 LINE SMOOTH",
"633 51 OFFCURVE",
"619 55 OFFCURVE",
"533 34 CURVE",
"528 28 LINE",
"531 0 LINE"
);
},
{
closed = 1;
nodes = (
"327 352 LINE",
"676 628 LINE SMOOTH",
"751 687 OFFCURVE",
"822 704 OFFCURVE",
"886 712 CURVE",
"890 719 LINE",
"886 750 LINE",
"526 750 LINE",
"523 719 LINE",
"527 714 LINE",
"650 694 OFFCURVE",
"649 672 OFFCURVE",
"587 622 CURVE SMOOTH",
"268 361 LINE",
"268 352 LINE"
);
}
);
width = 905;
},
{
background = {
paths = (
{
closed = 1;
nodes = (
"225 15 LINE",
"495 1236 LINE",
"459 1266 LINE",
"128 1141 LINE",
"122 1081 LINE",
"138 1067 LINE",
"392 1116 LINE",
"348 1167 LINE",
"118 122 LINE SMOOTH",
"110 86 OFFCURVE",
"85 20 OFFCURVE",
"62 -26 CURVE",
"91 -57 LINE"
);
},
{
closed = 1;
nodes = (
"480 514 LINE",
"392 423 LINE",
"547 74 LINE SMOOTH",
"580 1 OFFCURVE",
"607 -30 OFFCURVE",
"646 -30 CURVE SMOOTH",
"725 -30 OFFCURVE",
"813 95 OFFCURVE",
"887 200 CURVE",
"887 208 LINE",
"854 245 LINE",
"845 245 LINE",
"775 185 OFFCURVE",
"718 133 OFFCURVE",
"680 133 CURVE SMOOTH",
"663 133 OFFCURVE",
"645 146 OFFCURVE",
"625 190 CURVE SMOOTH"
);
},
{
closed = 1;
nodes = (
"835 851 LINE",
"647 851 OFFCURVE",
"454 595 OFFCURVE",
"280 358 CURVE",
"258 242 LINE",
"388 407 OFFCURVE",
"618 670 OFFCURVE",
"707 670 CURVE SMOOTH",
"743 670 OFFCURVE",
"758 626 OFFCURVE",
"766 584 CURVE",
"815 584 LINE",
"864 821 LINE"
);
}
);
};
layerId = "CFF67ECA-3B2D-433B-B605-F38590C8F106";
paths = (
{
closed = 1;
nodes = (
"225 15 LINE",
"495 1236 LINE",
"459 1266 LINE",
"128 1141 LINE",
"122 1081 LINE",
"138 1067 LINE",
"392 1116 LINE",
"348 1167 LINE",
"118 122 LINE",
"65 0 LINE",
"91 -30 LINE"
);
},
{
closed = 1;
nodes = (
"480 514 LINE",
"392 423 LINE",
"547 74 LINE SMOOTH",
"580 1 OFFCURVE",
"607 -30 OFFCURVE",
"646 -30 CURVE SMOOTH",
"725 -30 OFFCURVE",
"813 95 OFFCURVE",
"887 200 CURVE",
"887 208 LINE",
"854 245 LINE",
"845 245 LINE",
"775 185 OFFCURVE",
"718 133 OFFCURVE",
"680 133 CURVE SMOOTH",
"663 133 OFFCURVE",
"645 146 OFFCURVE",
"625 190 CURVE SMOOTH"
);
},
{
closed = 1;
nodes = (
"835 851 LINE",
"647 851 OFFCURVE",
"454 595 OFFCURVE",
"280 358 CURVE",
"258 242 LINE",
"388 407 OFFCURVE",
"618 670 OFFCURVE",
"719 670 CURVE SMOOTH",
"743 670 OFFCURVE",
"768 656 OFFCURVE",
"796 634 CURVE",
"838 656 LINE",
"864 821 LINE"
);
}
);
width = 930;
}
);
leftMetricsKey = l;
unicode = 006B;
},
{
glyphname = l;
lastChange = "2020-02-26 11:13:57 +0000";
layers = (
{
hints = (
{
origin = "{0, 6}";
scale = "{0.96, 0.96}";
type = Corner;
name = _corner.LeftSerif;
},
{
origin = "{0, 0}";
scale = "{0.96, 0.96}";
type = Corner;
name = _corner.RightSerif;
}
);
layerId = "6B6AD122-EF8D-49FE-8C69-4BDE8C56BDD8";
paths = (
{
closed = 1;
nodes = (
"371 0 LINE",
"371 1250 LINE",
"353 1266 LINE",
"85 1160 LINE",
"85 1108 LINE",
"136 1030 LINE",
"136 0 LINE"
);
}
);
width = 499;
},
{
hints = (
{
origin = "{0, 0}";
scale = "{0.74227, 0.74227}";
type = Corner;
name = _corner.RightSerif;
},
{
origin = "{0, 6}";
scale = "{0.74227, 0.74227}";
type = Corner;
name = _corner.LeftSerif;
}
);
layerId = "34301EF7-A2BE-469F-9697-D6100B11FDFE";
paths = (
{
closed = 1;
nodes = (
"337 0 LINE",
"337 1257 LINE",
"327 1266 LINE",
"60 1190 LINE",
"60 1168 LINE",
"223 1147 LINE",
"223 0 LINE"
);
}
);
width = 546;
},
{
background = {
hints = (
{
origin = "{0, 4}";
type = Corner;
name = _corner.LeftSerif;
},
{
origin = "{0, 5}";
type = Corner;
name = _corner.RightSerif;
}
);
paths = (
{
closed = 1;
nodes = (
"307 1266 LINE",
"63 1173 LINE",
"63 1123 LINE",
"181 1084 LINE",
"181 0 LINE",
"331 0 LINE",
"331 1254 LINE"
);
}
);
};
layerId = "CFF67ECA-3B2D-433B-B605-F38590C8F106";
paths = (
{
closed = 1;
nodes = (
"525 315 LINE",
"491 355 LINE",
"482 355 LINE",
"351 170 OFFCURVE",
"300 135 OFFCURVE",
"279 135 CURVE SMOOTH",
"271 135 OFFCURVE",
"267 140 OFFCURVE",
"267 149 CURVE SMOOTH",
"267 154 OFFCURVE",
"268 159 OFFCURVE",
"269 165 CURVE SMOOTH",
"495 1236 LINE",
"459 1266 LINE",
"128 1141 LINE",
"122 1081 LINE",
"138 1067 LINE",
"392 1126 LINE",
"349 1143 LINE",
"127 97 LINE SMOOTH",
"112 28 OFFCURVE",
"172 -30 OFFCURVE",
"230 -30 CURVE SMOOTH",
"300 -30 OFFCURVE",
"429 126 OFFCURVE",
"525 309 CURVE"
);
}
);
width = 512;
}
);
rightMetricsKey = d;
unicode = 006C;
},
{
glyphname = m;
lastChange = "2020-02-26 11:14:02 +0000";
layers = (
{
hints = (
{
origin = "{1, 0}";
scale = "{0.96, 0.96}";
type = Corner;
name = _corner.RightSerif;
},
{
origin = "{1, 15}";
scale = "{0.96, 0.96}";
type = Corner;
name = _corner.LeftSerif;
},
{
origin = "{0, 0}";
scale = "{0.96, 0.96}";
type = Corner;
name = _corner.RightSerif;
},
{
origin = "{0, 15}";
scale = "{0.96, 0.96}";
type = Corner;
name = _corner.LeftSerif;
},
{
origin = "{2, 0}";
type = Corner;
name = _corner.RightSerif;
},
{
origin = "{2, 8}";
type = Corner;
name = _corner.LeftSerif;
}
);
layerId = "6B6AD122-EF8D-49FE-8C69-4BDE8C56BDD8";
paths = (
{
closed = 1;
nodes = (
"1381 0 LINE",
"1381 587 LINE SMOOTH",
"1381 770 OFFCURVE",
"1282 861 OFFCURVE",
"1141 861 CURVE SMOOTH",
"1005 861 OFFCURVE",
"908 773 OFFCURVE",
"842 691 CURVE",
"847 592 LINE",
"895 647 OFFCURVE",
"960 678 OFFCURVE",
"1021 678 CURVE SMOOTH",
"1106 678 OFFCURVE",
"1147 617 OFFCURVE",
"1147 506 CURVE SMOOTH",
"1147 0 LINE"
);
},
{
closed = 1;
nodes = (
"877 0 LINE",
"877 587 LINE SMOOTH",
"877 770 OFFCURVE",
"786 861 OFFCURVE",
"640 861 CURVE SMOOTH",
"492 861 OFFCURVE",
"403 767 OFFCURVE",
"338 677 CURVE",
"342 592 LINE",
"390 647 OFFCURVE",
"456 678 OFFCURVE",
"517 678 CURVE SMOOTH",
"602 678 OFFCURVE",
"643 617 OFFCURVE",
"643 506 CURVE SMOOTH",
"643 0 LINE"
);
},
{
closed = 1;
nodes = (
"371 0 LINE",
"371 666 LINE",
"371 699 LINE",
"330 861 LINE",
"282 861 LINE",
"85 774 LINE",
"85 722 LINE",
"136 638 LINE",
"136 0 LINE"
);
}
);
width = 1509;
},
{
components = (
{
name = nBAR;
transform = "{1, 0, 0, 1, -42, 0}";
}
);
hints = (
{
origin = "{1, 0}";
scale = "{0.74227, 0.74227}";
type = Corner;
name = _corner.RightSerif;
},
{
origin = "{1, 15}";
scale = "{0.74227, 0.74227}";
type = Corner;
name = _corner.LeftSerif;
},
{
origin = "{0, 0}";
scale = "{0.74227, 0.74227}";
type = Corner;
name = _corner.RightSerif;
},
{
origin = "{0, 15}";
scale = "{0.74227, 0.74227}";
type = Corner;
name = _corner.LeftSerif;
}
);
layerId = "34301EF7-A2BE-469F-9697-D6100B11FDFE";
paths = (
{
closed = 1;
nodes = (
"1305 0 LINE",
"1305 518 LINE SMOOTH",
"1305 709 OFFCURVE",
"1189 780 OFFCURVE",
"1081 780 CURVE SMOOTH",
"957 780 OFFCURVE",
"855 688 OFFCURVE",
"775 560 CURVE",
"794 510 LINE",
"895 673 OFFCURVE",
"977 712 OFFCURVE",
"1047 712 CURVE SMOOTH",
"1151 712 OFFCURVE",
"1192 626 OFFCURVE",
"1192 491 CURVE SMOOTH",
"1192 0 LINE"
);
},
{
closed = 1;
nodes = (
"819 0 LINE",
"819 518 LINE SMOOTH",
"819 709 OFFCURVE",
"703 780 OFFCURVE",
"595 780 CURVE SMOOTH",
"471 780 OFFCURVE",
"369 688 OFFCURVE",
"289 560 CURVE",
"308 510 LINE",
"409 673 OFFCURVE",
"491 712 OFFCURVE",
"561 712 CURVE SMOOTH",
"665 712 OFFCURVE",
"706 626 OFFCURVE",
"706 491 CURVE SMOOTH",
"706 0 LINE"
);
}
);
width = 1514;
},
{
background = {
hints = (
{
origin = "{0, 0}";
type = Corner;
name = _corner.RightSerif;
},
{
origin = "{0, 15}";
type = Corner;
name = _corner.LeftSerif;
},
{
origin = "{1, 0}";
type = Corner;
name = _corner.RightSerif;
},
{
origin = "{1, 15}";
type = Corner;
name = _corner.LeftSerif;
},
{
origin = "{2, 0}";
scale = "{1.3, 1.1}";
type = Corner;
name = _corner.RightSerif;
},
{
origin = "{2, 8}";
type = Corner;
name = _corner.LeftSerif;
}
);
paths = (
{
closed = 1;
nodes = (
"1382 0 LINE",
"1382 594 LINE SMOOTH",
"1382 740 OFFCURVE",
"1292 851 OFFCURVE",
"1134 851 CURVE SMOOTH",
"988 851 OFFCURVE",
"906 758 OFFCURVE",
"792 631 CURVE",
"809 542 LINE",
"919 654 OFFCURVE",
"985 713 OFFCURVE",
"1077 713 CURVE SMOOTH",
"1174 713 OFFCURVE",
"1231 647 OFFCURVE",
"1231 537 CURVE SMOOTH",
"1231 0 LINE"
);
},
{
closed = 1;
nodes = (
"852 0 LINE",
"852 594 LINE SMOOTH",
"852 740 OFFCURVE",
"762 851 OFFCURVE",
"604 851 CURVE SMOOTH",
"458 851 OFFCURVE",
"376 758 OFFCURVE",
"262 631 CURVE",
"279 542 LINE",
"389 654 OFFCURVE",
"455 713 OFFCURVE",
"547 713 CURVE SMOOTH",
"644 713 OFFCURVE",
"701 647 OFFCURVE",
"701 537 CURVE SMOOTH",
"701 0 LINE"
);
},
{
closed = 1;
nodes = (
"322 0 LINE",
"322 639 LINE",
"315 656 LINE",
"253 851 LINE",
"215 851 LINE",
"25 764 LINE",
"25 714 LINE",
"171 670 LINE",
"171 0 LINE"
);
}
);
};
layerId = "CFF67ECA-3B2D-433B-B605-F38590C8F106";
paths = (
{
closed = 1;
nodes = (
"379 851 LINE",
"48 726 LINE",
"42 666 LINE",
"58 652 LINE",
"312 701 LINE",
"268 752 LINE",
"133 122 LINE",
"77 0 LINE",
"106 -30 LINE",
"235 15 LINE",
"304 373 LINE",
"415 821 LINE"
);
},
{
closed = 1;
nodes = (
"1414 318 LINE",
"1381 355 LINE",
"1372 355 LINE",
"1262 205 OFFCURVE",
"1216 135 OFFCURVE",
"1177 135 CURVE SMOOTH",
"1169 135 OFFCURVE",
"1165 140 OFFCURVE",
"1165 149 CURVE SMOOTH",
"1165 154 OFFCURVE",
"1166 159 OFFCURVE",
"1167 165 CURVE SMOOTH",
"1269 583 LINE SMOOTH",
"1311 753 OFFCURVE",
"1235 851 OFFCURVE",
"1129 851 CURVE SMOOTH",
"981 851 OFFCURVE",
"859 672 OFFCURVE",
"647 160 CURVE",
"680 125 LINE",
"912 633 OFFCURVE",
"1014 727 OFFCURVE",
"1073 727 CURVE SMOOTH",
"1121 727 OFFCURVE",
"1160 662 OFFCURVE",
"1140 579 CURVE SMOOTH",
"1018 85 LINE SMOOTH",
"1002 21 OFFCURVE",
"1057 -30 OFFCURVE",
"1095 -30 CURVE SMOOTH",
"1190 -30 OFFCURVE",
"1300 115 OFFCURVE",
"1414 310 CURVE"
);
},
{
closed = 1;
nodes = (
"528 0 LINE",
"545 -30 LINE",
"682 0 LINE",
"824 583 LINE SMOOTH",
"866 754 OFFCURVE",
"790 851 OFFCURVE",
"684 851 CURVE SMOOTH",
"536 851 OFFCURVE",
"414 672 OFFCURVE",
"202 160 CURVE",
"235 125 LINE",
"467 633 OFFCURVE",
"569 727 OFFCURVE",
"628 727 CURVE SMOOTH",
"676 727 OFFCURVE",
"715 662 OFFCURVE",
"695 579 CURVE SMOOTH",
"584 122 LINE"
);
}
);
width = 1419;
}
);
leftMetricsKey = n;
rightMetricsKey = n;
unicode = 006D;
},
{
glyphname = n;
lastChange = "2020-02-26 11:19:56 +0000";
layers = (
{
hints = (
{
origin = "{0, 0}";
scale = "{0.83478, 0.83478}";
type = Corner;
name = _corner.RightSerif;
},
{
origin = "{0, 15}";
scale = "{0.83478, 0.83478}";
type = Corner;
name = _corner.LeftSerif;
},
{
origin = "{1, 0}";
type = Corner;
name = _corner.RightSerif;
},
{
origin = "{1, 8}";
type = Corner;
name = _corner.LeftSerif;
}
);
layerId = "6B6AD122-EF8D-49FE-8C69-4BDE8C56BDD8";
paths = (
{
closed = 1;
nodes = (
"917 0 LINE",
"917 587 LINE SMOOTH",
"917 785 OFFCURVE",
"776 861 OFFCURVE",
"658 861 CURVE SMOOTH",
"523 861 OFFCURVE",
"409 761 OFFCURVE",
"305 645 CURVE",
"310 556 LINE",
"415 653 OFFCURVE",
"483 683 OFFCURVE",
"546 683 CURVE SMOOTH",
"641 683 OFFCURVE",
"682 617 OFFCURVE",
"682 507 CURVE SMOOTH",
"682 0 LINE"
);
},
{
closed = 1;
nodes = (
"371 0 LINE",
"371 666 LINE",
"371 699 LINE",
"330 861 LINE",
"282 861 LINE",
"85 774 LINE",
"85 722 LINE",
"136 638 LINE",
"136 0 LINE"
);
}
);
width = 1040;
},
{
components = (
{
name = nBAR;
transform = "{1, 0, 0, 1, -42, 0}";
}
);
hints = (
{
origin = "{0, 0}";
scale = "{0.74227, 0.74227}";
type = Corner;
name = _corner.RightSerif;
},
{
origin = "{0, 15}";
scale = "{0.74227, 0.74227}";
type = Corner;
name = _corner.LeftSerif;
}
);
layerId = "34301EF7-A2BE-469F-9697-D6100B11FDFE";
paths = (
{
closed = 1;
nodes = (
"859 0 LINE",
"859 508 LINE SMOOTH",
"859 699 OFFCURVE",
"743 780 OFFCURVE",
"621 780 CURVE SMOOTH",
"491 780 OFFCURVE",
"369 688 OFFCURVE",
"289 560 CURVE",
"308 510 LINE",
"409 673 OFFCURVE",
"511 712 OFFCURVE",
"583 712 CURVE SMOOTH",
"705 712 OFFCURVE",
"746 606 OFFCURVE",
"746 471 CURVE SMOOTH",
"746 0 LINE"
);
}
);
width = 1068;
},
{
background = {
hints = (
{
origin = "{0, 0}";
type = Corner;
name = _corner.RightSerif;
},
{
origin = "{0, 15}";
type = Corner;
name = _corner.LeftSerif;
},
{
origin = "{1, 0}";
type = Corner;
name = _corner.RightSerif;
},
{
origin = "{1, 8}";
type = Corner;
name = _corner.LeftSerif;
}
);
paths = (
{
closed = 1;
nodes = (
"890 0 LINE",
"890 591 LINE SMOOTH",
"890 761 OFFCURVE",
"749 851 OFFCURVE",
"621 851 CURVE SMOOTH",
"494 851 OFFCURVE",
"399 763 OFFCURVE",
"310 671 CURVE",
"335 602 LINE",
"409 660 OFFCURVE",
"490 714 OFFCURVE",
"583 714 CURVE SMOOTH",
"687 714 OFFCURVE",
"739 643 OFFCURVE",
"739 542 CURVE SMOOTH",
"739 0 LINE"
);
},
{
closed = 1;
nodes = (
"342 0 LINE",
"342 639 LINE",
"333 664 LINE",
"273 851 LINE",
"235 851 LINE",
"45 764 LINE",
"45 714 LINE",
"191 670 LINE",
"191 0 LINE"
);
}
);
};
layerId = "CFF67ECA-3B2D-433B-B605-F38590C8F106";
paths = (
{
closed = 1;
nodes = (
"379 851 LINE",
"48 726 LINE",
"42 666 LINE",
"58 652 LINE",
"312 701 LINE",
"268 752 LINE",
"133 122 LINE",
"77 0 LINE",
"106 -30 LINE",
"235 15 LINE",
"304 373 LINE",
"415 821 LINE"
);
},
{
closed = 1;
nodes = (
"989 318 LINE",
"956 355 LINE",
"947 355 LINE",
"837 205 OFFCURVE",
"791 135 OFFCURVE",
"752 135 CURVE SMOOTH",
"744 135 OFFCURVE",
"740 140 OFFCURVE",
"740 149 CURVE SMOOTH",
"740 154 OFFCURVE",
"741 159 OFFCURVE",
"742 165 CURVE SMOOTH",
"844 583 LINE SMOOTH",
"886 753 OFFCURVE",
"810 851 OFFCURVE",
"694 851 CURVE SMOOTH",
"536 851 OFFCURVE",
"414 672 OFFCURVE",
"202 160 CURVE",
"235 125 LINE",
"467 633 OFFCURVE",
"569 727 OFFCURVE",
"638 727 CURVE SMOOTH",
"696 727 OFFCURVE",
"735 662 OFFCURVE",
"715 579 CURVE SMOOTH",
"593 85 LINE SMOOTH",
"577 21 OFFCURVE",
"632 -30 OFFCURVE",
"670 -30 CURVE SMOOTH",
"765 -30 OFFCURVE",
"875 115 OFFCURVE",
"989 310 CURVE"
);
}
);
width = 994;
}
);
unicode = 006E;
},
{
glyphname = o;
lastChange = "2020-02-25 14:04:46 +0000";
layers = (
{
layerId = "6B6AD122-EF8D-49FE-8C69-4BDE8C56BDD8";
paths = (
{
closed = 1;
nodes = (
"691 -30 OFFCURVE",
"856 141 OFFCURVE",
"856 411 CURVE SMOOTH",
"856 681 OFFCURVE",
"691 851 OFFCURVE",
"457 851 CURVE SMOOTH",
"220 851 OFFCURVE",
"55 681 OFFCURVE",
"55 411 CURVE SMOOTH",
"55 141 OFFCURVE",
"220 -30 OFFCURVE",
"457 -30 CURVE SMOOTH"
);
},
{
closed = 1;
nodes = (
"364 94 OFFCURVE",
"279 371 OFFCURVE",
"281 541 CURVE SMOOTH",
"283 660 OFFCURVE",
"334 730 OFFCURVE",
"410 729 CURVE SMOOTH",
"554 727 OFFCURVE",
"633 465 OFFCURVE",
"630 291 CURVE SMOOTH",
"628 161 OFFCURVE",
"579 91 OFFCURVE",
"503 92 CURVE SMOOTH"
);
}
);
width = 911;
},
{
layerId = "34301EF7-A2BE-469F-9697-D6100B11FDFE";
paths = (
{
closed = 1;
nodes = (
"625 -30 OFFCURVE",
"790 114 OFFCURVE",
"790 374 CURVE SMOOTH",
"790 636 OFFCURVE",
"635 780 OFFCURVE",
"431 780 CURVE SMOOTH",
"235 780 OFFCURVE",
"70 636 OFFCURVE",
"70 374 CURVE SMOOTH",
"70 114 OFFCURVE",
"225 -30 OFFCURVE",
"430 -30 CURVE SMOOTH"
);
},
{
closed = 1;
nodes = (
"291 26 OFFCURVE",
"191 156 OFFCURVE",
"191 374 CURVE SMOOTH",
"191 594 OFFCURVE",
"291 724 OFFCURVE",
"431 724 CURVE SMOOTH",
"569 724 OFFCURVE",
"669 594 OFFCURVE",
"669 374 CURVE SMOOTH",
"669 156 OFFCURVE",
"569 26 OFFCURVE",
"430 26 CURVE SMOOTH"
);
}
);
width = 860;
},
{
background = {
paths = (
{
closed = 1;
nodes = (
"298 704 OFFCURVE",
"228 509 OFFCURVE",
"228 361 CURVE SMOOTH",
"228 260 OFFCURVE",
"266 118 OFFCURVE",
"359 118 CURVE SMOOTH",
"483 118 OFFCURVE",
"553 313 OFFCURVE",
"553 461 CURVE SMOOTH",
"553 562 OFFCURVE",
"515 704 OFFCURVE",
"422 704 CURVE SMOOTH"
);
},
{
closed = 1;
nodes = (
"117 -30 OFFCURVE",
"64 140 OFFCURVE",
"64 278 CURVE SMOOTH",
"64 559 OFFCURVE",
"261 851 OFFCURVE",
"497 851 CURVE SMOOTH",
"664 851 OFFCURVE",
"717 681 OFFCURVE",
"717 543 CURVE SMOOTH",
"717 262 OFFCURVE",
"520 -30 OFFCURVE",
"284 -30 CURVE SMOOTH"
);
}
);
};
layerId = "CFF67ECA-3B2D-433B-B605-F38590C8F106";
paths = (
{
closed = 1;
nodes = (
"281 745 OFFCURVE",
"204 539 OFFCURVE",
"204 357 CURVE SMOOTH",
"204 212 OFFCURVE",
"264 77 OFFCURVE",
"365 77 CURVE SMOOTH",
"500 77 OFFCURVE",
"577 283 OFFCURVE",
"577 465 CURVE SMOOTH",
"577 610 OFFCURVE",
"517 745 OFFCURVE",
"416 745 CURVE SMOOTH"
);
},
{
closed = 1;
nodes = (
"137 -30 OFFCURVE",
"64 150 OFFCURVE",
"64 288 CURVE SMOOTH",
"64 569 OFFCURVE",
"241 851 OFFCURVE",
"467 851 CURVE SMOOTH",
"644 851 OFFCURVE",
"717 671 OFFCURVE",
"717 533 CURVE SMOOTH",
"717 252 OFFCURVE",
"540 -30 OFFCURVE",
"314 -30 CURVE SMOOTH"
);
}
);
width = 781;
}
);
unicode = 006F;
},
{
glyphname = p;
lastChange = "2020-02-26 11:14:14 +0000";
layers = (
{
hints = (
{
origin = "{1, 7}";
scale = "{1.2, 0.96}";
type = Corner;
name = _corner.RightSerif;
},
{
origin = "{1, 6}";
scale = "{0.96, 0.96}";
type = Corner;
name = _corner.LeftSerif;
}
);
layerId = "6B6AD122-EF8D-49FE-8C69-4BDE8C56BDD8";
paths = (
{
closed = 1;
nodes = (
"715 229 OFFCURVE",
"673 98 OFFCURVE",
"535 98 CURVE SMOOTH",
"469 98 OFFCURVE",
"400 126 OFFCURVE",
"373 171 CURVE",
"306 64 LINE",
"352 20 OFFCURVE",
"446 -30 OFFCURVE",
"553 -30 CURVE SMOOTH",
"773 -30 OFFCURVE",
"946 203 OFFCURVE",
"946 467 CURVE SMOOTH",
"946 674 OFFCURVE",
"841 861 OFFCURVE",
"644 861 CURVE SMOOTH",
"502 861 OFFCURVE",
"412 763 OFFCURVE",
"347 705 CURVE",
"378 638 LINE",
"407 664 OFFCURVE",
"433 691 OFFCURVE",
"491 691 CURVE SMOOTH",
"634 691 OFFCURVE",
"715 535 OFFCURVE",
"715 356 CURVE SMOOTH"
);
},
{
closed = 1;
nodes = (
"378 687 LINE",
"330 861 LINE",
"282 861 LINE",
"85 774 LINE",
"85 722 LINE",
"144 627 LINE",
"144 -394 LINE",
"378 -394 LINE",
"378 663 LINE"
);
}
);
width = 1001;
},
{
hints = (
{
origin = "{0, 0}";
scale = "{0.92784, 0.74227}";
type = Corner;
name = _corner.RightSerif;
},
{
origin = "{0, 9}";
scale = "{0.742, 0.74227}";
type = Corner;
name = _corner.LeftSerif;
}
);
layerId = "34301EF7-A2BE-469F-9697-D6100B11FDFE";
paths = (
{
closed = 1;
nodes = (
"334 -394 LINE",
"334 599 LINE",
"324 612 LINE",
"301 633 LINE",
"343 772 LINE",
"332 780 LINE",
"60 705 LINE",
"60 683 LINE",
"220 662 LINE",
"220 -394 LINE"
);
},
{
closed = 1;
nodes = (
"763 -30 OFFCURVE",
"912 131 OFFCURVE",
"912 388 CURVE SMOOTH",
"912 623 OFFCURVE",
"768 780 OFFCURVE",
"587 780 CURVE SMOOTH",
"436 780 OFFCURVE",
"324 668 OFFCURVE",
"275 548 CURVE",
"318 529 LINE",
"363 642 OFFCURVE",
"460 725 OFFCURVE",
"570 725 CURVE SMOOTH",
"730 725 OFFCURVE",
"795 553 OFFCURVE",
"795 367 CURVE SMOOTH",
"795 156 OFFCURVE",
"692 25 OFFCURVE",
"540 25 CURVE SMOOTH",
"459 25 OFFCURVE",
"377 63 OFFCURVE",
"325 92 CURVE",
"252 58 LINE",
"325 1 OFFCURVE",
"447 -30 OFFCURVE",
"544 -30 CURVE SMOOTH"
);
}
);
width = 982;
},
{
background = {
hints = (
{
origin = "{0, 0}";
scale = "{1.2, 1}";
type = Corner;
name = _corner.RightSerif;
},
{
origin = "{0, 8}";
type = Corner;
name = _corner.LeftSerif;
}
);
paths = (
{
closed = 1;
nodes = (
"256 -394 LINE",
"255 638 LINE",
"245 664 LINE",
"185 851 LINE",
"147 851 LINE",
"-43 764 LINE",
"-43 714 LINE",
"103 670 LINE",
"103 -394 LINE"
);
},
{
closed = 1;
nodes = (
"685 -30 OFFCURVE",
"858 148 OFFCURVE",
"858 434 CURVE SMOOTH",
"858 679 OFFCURVE",
"729 851 OFFCURVE",
"542 851 CURVE SMOOTH",
"412 851 OFFCURVE",
"304 768 OFFCURVE",
"216 665 CURVE",
"230 560 LINE",
"280 633 OFFCURVE",
"382 729 OFFCURVE",
"490 729 CURVE SMOOTH",
"609 729 OFFCURVE",
"691 614 OFFCURVE",
"691 396 CURVE SMOOTH",
"691 178 OFFCURVE",
"612 73 OFFCURVE",
"466 73 CURVE SMOOTH",
"368 73 OFFCURVE",
"292 121 OFFCURVE",
"252 170 CURVE",
"242 32 LINE",
"300 -9 OFFCURVE",
"377 -30 OFFCURVE",
"456 -30 CURVE SMOOTH"
);
}
);
};
layerId = "CFF67ECA-3B2D-433B-B605-F38590C8F106";
paths = (
{
closed = 1;
nodes = (
"415 821 LINE",
"379 851 LINE",
"48 726 LINE",
"42 666 LINE",
"58 652 LINE",
"312 711 LINE",
"269 728 LINE",
"94 -82 LINE",
"-28 -403 LINE",
"-6 -434 LINE",
"158 -380 LINE"
);
},
{
closed = 1;
nodes = (
"544 851 OFFCURVE",
"371 645 OFFCURVE",
"249 343 CURVE",
"271 182 LINE",
"354 571 OFFCURVE",
"581 722 OFFCURVE",
"645 722 CURVE SMOOTH",
"688 722 OFFCURVE",
"699 616 OFFCURVE",
"699 555 CURVE SMOOTH",
"699 387 OFFCURVE",
"607 89 OFFCURVE",
"436 89 CURVE SMOOTH",
"384 89 OFFCURVE",
"325 124 OFFCURVE",
"231 202 CURVE",
"197 60 LINE",
"273 0 OFFCURVE",
"329 -30 OFFCURVE",
"399 -30 CURVE SMOOTH",
"631 -30 OFFCURVE",
"833 334 OFFCURVE",
"833 623 CURVE SMOOTH",
"833 741 OFFCURVE",
"798 851 OFFCURVE",
"689 851 CURVE SMOOTH"
);
}
);
width = 878;
}
);
leftMetricsKey = n;
rightMetricsKey = o;
unicode = 0070;
},
{
glyphname = q;
lastChange = "2020-02-26 11:20:11 +0000";
layers = (
{
hints = (
{
origin = "{1, 0}";
type = Corner;
name = _corner.RightSerif;
},
{
origin = "{1, 4}";
type = Corner;
name = _corner.LeftSerif;
}
);
layerId = "6B6AD122-EF8D-49FE-8C69-4BDE8C56BDD8";
paths = (
{
closed = 1;
nodes = (
"512 -30 OFFCURVE",
"601 48 OFFCURVE",
"666 117 CURVE",
"623 210 LINE",
"592 161 OFFCURVE",
"549 117 OFFCURVE",
"492 117 CURVE SMOOTH",
"386 117 OFFCURVE",
"294 266 OFFCURVE",
"294 468 CURVE SMOOTH",
"294 633 OFFCURVE",
"356 728 OFFCURVE",
"485 728 CURVE SMOOTH",
"553 728 OFFCURVE",
"600 701 OFFCURVE",
"623 670 CURVE",
"758 815 LINE",
"666 851 OFFCURVE",
"598 861 OFFCURVE",
"539 861 CURVE SMOOTH",
"263 861 OFFCURVE",
"55 644 OFFCURVE",
"55 372 CURVE SMOOTH",
"55 154 OFFCURVE",
"190 -30 OFFCURVE",
"385 -30 CURVE SMOOTH"
);
},
{
closed = 1;
nodes = (
"858 -394 LINE",
"858 843 LINE",
"818 861 LINE",
"623 779 LINE",
"623 -394 LINE"
);
}
);
width = 988;
},
{
hints = (
{
origin = "{1, 4}";
scale = "{0.742, 0.742}";
type = Corner;
name = _corner.LeftSerif;
},
{
origin = "{1, 0}";
scale = "{0.742, 0.742}";
type = Corner;
name = _corner.RightSerif;
}
);
layerId = "34301EF7-A2BE-469F-9697-D6100B11FDFE";
paths = (
{
closed = 1;
nodes = (
"537 -30 OFFCURVE",
"650 67 OFFCURVE",
"681 129 CURVE",
"673 176 LINE",
"628 102 OFFCURVE",
"532 33 OFFCURVE",
"431 33 CURVE SMOOTH",
"274 33 OFFCURVE",
"183 204 OFFCURVE",
"183 388 CURVE SMOOTH",
"183 609 OFFCURVE",
"301 725 OFFCURVE",
"445 725 CURVE SMOOTH",
"548 725 OFFCURVE",
"631 661 OFFCURVE",
"673 553 CURVE",
"710 661 LINE",
"679 713 OFFCURVE",
"575 780 OFFCURVE",
"449 780 CURVE SMOOTH",
"253 780 OFFCURVE",
"70 635 OFFCURVE",
"70 371 CURVE SMOOTH",
"70 143 OFFCURVE",
"211 -30 OFFCURVE",
"397 -30 CURVE SMOOTH"
);
},
{
closed = 1;
nodes = (
"785 -394 LINE",
"785 773 LINE",
"761 780 LINE",
"671 660 LINE",
"671 -394 LINE"
);
}
);
width = 994;
},
{
background = {
hints = (
{
origin = "{1, 0}";
type = Corner;
name = _corner.RightSerif;
},
{
origin = "{1, 4}";
type = Corner;
name = _corner.LeftSerif;
}
);
paths = (
{
closed = 1;
nodes = (
"812 -30 OFFCURVE",
"896 35 OFFCURVE",
"956 97 CURVE",
"952 203 LINE",
"931 159 OFFCURVE",
"844 88 OFFCURVE",
"737 88 CURVE SMOOTH",
"597 88 OFFCURVE",
"502 211 OFFCURVE",
"502 433 CURVE SMOOTH",
"502 628 OFFCURVE",
"589 739 OFFCURVE",
"758 739 CURVE SMOOTH",
"833 739 OFFCURVE",
"898 717 OFFCURVE",
"955 690 CURVE",
"1045 804 LINE",
"953 837 OFFCURVE",
"864 851 OFFCURVE",
"793 851 CURVE SMOOTH",
"533 851 OFFCURVE",
"338 658 OFFCURVE",
"338 385 CURVE SMOOTH",
"338 146 OFFCURVE",
"482 -30 OFFCURVE",
"688 -30 CURVE SMOOTH"
);
},
{
closed = 1;
nodes = (
"1087 -394 LINE",
"1087 845 LINE",
"1047 856 LINE",
"933 745 LINE",
"933 -394 LINE"
);
}
);
};
layerId = "CFF67ECA-3B2D-433B-B605-F38590C8F106";
paths = (
{
closed = 1;
nodes = (
"334 -30 OFFCURVE",
"507 176 OFFCURVE",
"629 478 CURVE",
"607 639 LINE",
"524 250 OFFCURVE",
"297 99 OFFCURVE",
"233 99 CURVE SMOOTH",
"190 99 OFFCURVE",
"179 205 OFFCURVE",
"179 266 CURVE SMOOTH",
"179 434 OFFCURVE",
"271 732 OFFCURVE",
"442 732 CURVE SMOOTH",
"494 732 OFFCURVE",
"553 697 OFFCURVE",
"647 619 CURVE",
"681 761 LINE",
"605 821 OFFCURVE",
"549 851 OFFCURVE",
"479 851 CURVE SMOOTH",
"247 851 OFFCURVE",
"45 487 OFFCURVE",
"45 198 CURVE SMOOTH",
"45 80 OFFCURVE",
"80 -30 OFFCURVE",
"189 -30 CURVE SMOOTH"
);
},
{
closed = 1;
nodes = (
"408 -297 LINE SMOOTH",
"393 -366 OFFCURVE",
"453 -424 OFFCURVE",
"511 -424 CURVE SMOOTH",
"581 -424 OFFCURVE",
"710 -268 OFFCURVE",
"806 -85 CURVE",
"806 -79 LINE",
"772 -39 LINE",
"763 -39 LINE",
"632 -224 OFFCURVE",
"581 -259 OFFCURVE",
"560 -259 CURVE SMOOTH",
"552 -259 OFFCURVE",
"548 -254 OFFCURVE",
"548 -245 CURVE SMOOTH",
"548 -240 OFFCURVE",
"549 -235 OFFCURVE",
"550 -229 CURVE SMOOTH",
"772 821 LINE",
"736 851 LINE",
"638 787 LINE"
);
},
{
closed = 1;
nodes = (
"801 625 LINE",
"807 660 LINE",
"723 732 LINE",
"695 589 LINE"
);
}
);
width = 895;
}
);
leftMetricsKey = o;
rightMetricsKey = n;
unicode = 0071;
},
{
glyphname = r;
lastChange = "2020-02-26 11:14:35 +0000";
layers = (
{
hints = (
{
origin = "{1, 0}";
type = Corner;
name = _corner.RightSerif;
},
{
origin = "{1, 8}";
type = Corner;
name = _corner.LeftSerif;
}
);
layerId = "6B6AD122-EF8D-49FE-8C69-4BDE8C56BDD8";
paths = (
{
closed = 1;
nodes = (
"396 585 OFFCURVE",
"432 628 OFFCURVE",
"481 628 CURVE SMOOTH",
"522 628 OFFCURVE",
"569 597 OFFCURVE",
"636 549 CURVE",
"690 571 LINE",
"690 831 LINE",
"665 845 OFFCURVE",
"647 851 OFFCURVE",
"614 851 CURVE SMOOTH",
"535 851 OFFCURVE",
"456 819 OFFCURVE",
"331 628 CURVE",
"336 496 LINE"
);
},
{
closed = 1;
nodes = (
"371 0 LINE",
"371 666 LINE",
"345 669 LINE",
"330 861 LINE",
"282 861 LINE",
"85 774 LINE",
"85 722 LINE",
"136 638 LINE",
"136 0 LINE"
);
}
);
width = 755;
},
{
hints = (
{
origin = "{0, 0}";
scale = "{0.74227, 0.74227}";
type = Corner;
name = _corner.RightSerif;
},
{
origin = "{0, 9}";
scale = "{0.74227, 0.74227}";
type = Corner;
name = _corner.LeftSerif;
}
);
layerId = "34301EF7-A2BE-469F-9697-D6100B11FDFE";
paths = (
{
closed = 1;
nodes = (
"333 0 LINE",
"333 568 LINE",
"319 567 LINE",
"302 579 LINE",
"343 772 LINE",
"332 780 LINE",
"60 705 LINE",
"60 683 LINE",
"220 662 LINE",
"220 0 LINE"
);
},
{
closed = 1;
nodes = (
"384 643 OFFCURVE",
"457 680 OFFCURVE",
"517 680 CURVE SMOOTH",
"588 680 OFFCURVE",
"617 627 OFFCURVE",
"629 500 CURVE",
"666 503 LINE",
"666 746 LINE",
"640 769 OFFCURVE",
"608 780 OFFCURVE",
"566 780 CURVE SMOOTH",
"480 780 OFFCURVE",
"401 733 OFFCURVE",
"296 552 CURVE",
"320 519 LINE"
);
}
);
width = 706;
},
{
background = {
hints = (
{
origin = "{0, 0}";
scale = "{1.3, 1.12457}";
type = Corner;
name = _corner.RightSerif;
},
{
origin = "{0, 9}";
scale = "{1, 1.02234}";
type = Corner;
name = _corner.LeftSerif;
}
);
paths = (
{
closed = 1;
nodes = (
"255 0 LINE",
"390 639 LINE",
"395 705 LINE",
"367 715 LINE",
"370 851 LINE",
"330 851 LINE",
"119 764 LINE",
"110 714 LINE",
"247 670 LINE",
"104 0 LINE"
);
},
{
closed = 1;
nodes = (
"443 657 OFFCURVE",
"500 675 OFFCURVE",
"531 675 CURVE SMOOTH",
"555 675 OFFCURVE",
"587 656 OFFCURVE",
"605 600 CURVE",
"657 603 LINE",
"701 829 LINE",
"679 841 OFFCURVE",
"657 851 OFFCURVE",
"623 851 CURVE SMOOTH",
"595 851 OFFCURVE",
"494 851 OFFCURVE",
"313 645 CURVE",
"329 580 LINE"
);
}
);
};
layerId = "CFF67ECA-3B2D-433B-B605-F38590C8F106";
paths = (
{
closed = 1;
nodes = (
"379 851 LINE",
"48 726 LINE",
"42 666 LINE",
"58 652 LINE",
"312 701 LINE",
"268 752 LINE",
"133 122 LINE",
"77 -26 LINE",
"106 -57 LINE",
"235 15 LINE",
"326 460 LINE",
"415 821 LINE"
);
},
{
closed = 1;
nodes = (
"678 644 LINE",
"678 652 OFFCURVE",
"679 666 OFFCURVE",
"679 682 CURVE SMOOTH",
"679 745 OFFCURVE",
"670 851 OFFCURVE",
"595 851 CURVE SMOOTH",
"473 851 OFFCURVE",
"362 565 OFFCURVE",
"228 277 CURVE",
"247 202 LINE",
"349 437 OFFCURVE",
"486 694 OFFCURVE",
"526 694 CURVE",
"534 562 OFFCURVE",
"571 534 OFFCURVE",
"611 534 CURVE SMOOTH",
"680 534 OFFCURVE",
"747 615 OFFCURVE",
"803 667 CURVE",
"805 674 LINE",
"786 712 LINE",
"778 714 LINE",
"733 693 OFFCURVE",
"676 649 OFFCURVE",
"641 649 CURVE"
);
}
);
width = 759;
}
);
leftMetricsKey = n;
unicode = 0072;
},
{
glyphname = s;
lastChange = "2020-02-24 13:38:38 +0000";
layers = (
{
layerId = "6B6AD122-EF8D-49FE-8C69-4BDE8C56BDD8";
paths = (
{
closed = 1;
nodes = (
"580 -30 OFFCURVE",
"694 78 OFFCURVE",
"694 221 CURVE SMOOTH",
"694 506 OFFCURVE",
"272 507 OFFCURVE",
"272 658 CURVE SMOOTH",
"272 698 OFFCURVE",
"302 723 OFFCURVE",
"350 723 CURVE SMOOTH",
"427 723 OFFCURVE",
"509 671 OFFCURVE",
"583 569 CURVE",
"652 577 LINE",
"652 827 LINE",
"611 840 OFFCURVE",
"528 861 OFFCURVE",
"440 861 CURVE SMOOTH",
"252 861 OFFCURVE",
"95 760 OFFCURVE",
"95 587 CURVE SMOOTH",
"95 307 OFFCURVE",
"492 347 OFFCURVE",
"492 161 CURVE SMOOTH",
"492 108 OFFCURVE",
"461 82 OFFCURVE",
"413 82 CURVE SMOOTH",
"367 82 OFFCURVE",
"317 106 OFFCURVE",
"282 144 CURVE SMOOTH",
"255 174 OFFCURVE",
"236 211 OFFCURVE",
"235 253 CURVE",
"204 273 LINE",
"111 257 OFFCURVE",
"60 201 OFFCURVE",
"60 135 CURVE SMOOTH",
"60 20 OFFCURVE",
"218 -30 OFFCURVE",
"361 -30 CURVE SMOOTH"
);
}
);
width = 754;
},
{
layerId = "34301EF7-A2BE-469F-9697-D6100B11FDFE";
paths = (
{
closed = 1;
nodes = (
"552 -30 OFFCURVE",
"648 81 OFFCURVE",
"648 200 CURVE SMOOTH",
"648 461 OFFCURVE",
"212 394 OFFCURVE",
"212 603 CURVE SMOOTH",
"212 690 OFFCURVE",
"283 723 OFFCURVE",
"363 723 CURVE SMOOTH",
"458 723 OFFCURVE",
"533 675 OFFCURVE",
"562 489 CURVE",
"596 492 LINE",
"596 734 LINE",
"547 758 OFFCURVE",
"474 780 OFFCURVE",
"395 780 CURVE SMOOTH",
"244 780 OFFCURVE",
"127 699 OFFCURVE",
"127 558 CURVE SMOOTH",
"127 289 OFFCURVE",
"557 377 OFFCURVE",
"557 156 CURVE SMOOTH",
"557 64 OFFCURVE",
"482 24 OFFCURVE",
"392 24 CURVE SMOOTH",
"275 24 OFFCURVE",
"208 94 OFFCURVE",
"208 173 CURVE SMOOTH",
"208 206 OFFCURVE",
"220 226 OFFCURVE",
"232 239 CURVE",
"232 250 LINE",
"194 267 OFFCURVE",
"107 221 OFFCURVE",
"107 130 CURVE SMOOTH",
"107 23 OFFCURVE",
"225 -30 OFFCURVE",
"357 -30 CURVE SMOOTH"
);
}
);
width = 713;
},
{
layerId = "CFF67ECA-3B2D-433B-B605-F38590C8F106";
paths = (
{
closed = 1;
nodes = (
"539 -30 OFFCURVE",
"645 104 OFFCURVE",
"645 239 CURVE SMOOTH",
"645 521 OFFCURVE",
"193 443 OFFCURVE",
"193 636 CURVE SMOOTH",
"193 708 OFFCURVE",
"257 737 OFFCURVE",
"324 737 CURVE SMOOTH",
"406 737 OFFCURVE",
"473 693 OFFCURVE",
"535 577 CURVE",
"585 583 LINE",
"585 823 LINE",
"539 837 OFFCURVE",
"477 851 OFFCURVE",
"402 851 CURVE SMOOTH",
"218 851 OFFCURVE",
"62 764 OFFCURVE",
"62 590 CURVE SMOOTH",
"62 294 OFFCURVE",
"498 387 OFFCURVE",
"498 184 CURVE SMOOTH",
"498 92 OFFCURVE",
"412 67 OFFCURVE",
"334 67 CURVE SMOOTH",
"245 67 OFFCURVE",
"193 102 OFFCURVE",
"182 177 CURVE SMOOTH",
"178 204 OFFCURVE",
"181 228 OFFCURVE",
"185 247 CURVE",
"171 262 LINE",
"109 262 OFFCURVE",
"40 210 OFFCURVE",
"40 131 CURVE SMOOTH",
"40 20 OFFCURVE",
"177 -30 OFFCURVE",
"315 -30 CURVE SMOOTH"
);
}
);
width = 690;
}
);
unicode = 0073;
},
{
glyphname = t;
lastChange = "2020-02-26 11:14:59 +0000";
layers = (
{
layerId = "6B6AD122-EF8D-49FE-8C69-4BDE8C56BDD8";
paths = (
{
closed = 1;
nodes = (
"455 -30 OFFCURVE",
"570 35 OFFCURVE",
"642 85 CURVE",
"613 180 LINE",
"568 169 OFFCURVE",
"524 159 OFFCURVE",
"487 159 CURVE SMOOTH",
"427 159 OFFCURVE",
"394 183 OFFCURVE",
"394 248 CURVE SMOOTH",
"394 996 LINE",
"346 1014 LINE",
"164 844 LINE",
"55 800 LINE",
"55 707 LINE",
"159 686 LINE",
"159 167 LINE SMOOTH",
"159 29 OFFCURVE",
"267 -30 OFFCURVE",
"359 -30 CURVE SMOOTH"
);
},
{
closed = 1;
nodes = (
"636 699 LINE",
"636 831 LINE",
"170 831 LINE",
"196 699 LINE"
);
}
);
width = 692;
},
{
layerId = "34301EF7-A2BE-469F-9697-D6100B11FDFE";
paths = (
{
closed = 1;
nodes = (
"507 -30 OFFCURVE",
"572 45 OFFCURVE",
"627 100 CURVE",
"607 118 LINE",
"574 85 OFFCURVE",
"509 28 OFFCURVE",
"433 28 CURVE SMOOTH",
"353 28 OFFCURVE",
"297 90 OFFCURVE",
"297 200 CURVE SMOOTH",
"297 957 LINE",
"271 966 LINE",
"174 765 LINE",
"30 735 LINE",
"30 701 LINE",
"184 686 LINE",
"184 183 LINE SMOOTH",
"184 25 OFFCURVE",
"286 -30 OFFCURVE",
"387 -30 CURVE SMOOTH"
);
},
{
closed = 1;
nodes = (
"611 700 LINE",
"611 750 LINE",
"195 750 LINE",
"221 700 LINE"
);
}
);
width = 677;
},
{
background = {
paths = (
{
closed = 1;
nodes = (
"441 -30 OFFCURVE",
"536 16 OFFCURVE",
"605 63 CURVE",
"584 127 LINE",
"535 108 OFFCURVE",
"486 97 OFFCURVE",
"444 97 CURVE SMOOTH",
"364 97 OFFCURVE",
"318 137 OFFCURVE",
"318 229 CURVE SMOOTH",
"318 987 LINE",
"286 999 LINE",
"162 842 LINE",
"26 800 LINE",
"26 734 LINE",
"166 713 LINE",
"166 177 LINE SMOOTH",
"166 39 OFFCURVE",
"264 -30 OFFCURVE",
"362 -30 CURVE SMOOTH"
);
},
{
closed = 1;
nodes = (
"585 730 LINE",
"585 821 LINE",
"262 821 LINE",
"262 730 LINE"
);
}
);
};
layerId = "CFF67ECA-3B2D-433B-B605-F38590C8F106";
paths = (
{
closed = 1;
nodes = (
"431 1016 LINE",
"353 1016 LINE",
"259 792 LINE",
"330 839 LINE",
"108 800 LINE",
"95 734 LINE",
"261 734 LINE",
"126 101 LINE SMOOTH",
"109 20 OFFCURVE",
"181 -30 OFFCURVE",
"229 -30 CURVE SMOOTH",
"298 -30 OFFCURVE",
"423 128 OFFCURVE",
"528 280 CURVE",
"528 290 LINE",
"496 325 LINE",
"487 325 LINE",
"356 170 OFFCURVE",
"303 133 OFFCURVE",
"282 133 CURVE SMOOTH",
"274 133 OFFCURVE",
"264 140 OFFCURVE",
"264 149 CURVE SMOOTH",
"264 154 OFFCURVE",
"265 159 OFFCURVE",
"266 165 CURVE SMOOTH",
"438 1006 LINE"
);
},
{
closed = 1;
nodes = (
"599 731 LINE",
"625 828 LINE",
"616 840 LINE",
"398 822 LINE",
"363 731 LINE"
);
}
);
width = 576;
}
);
unicode = 0074;
},
{
glyphname = u;
lastChange = "2020-02-26 11:16:35 +0000";
layers = (
{
layerId = "6B6AD122-EF8D-49FE-8C69-4BDE8C56BDD8";
paths = (
{
closed = 1;
nodes = (
"502 -30 OFFCURVE",
"609 51 OFFCURVE",
"667 118 CURVE",
"667 228 LINE",
"619 182 OFFCURVE",
"559 157 OFFCURVE",
"505 157 CURVE SMOOTH",
"420 157 OFFCURVE",
"379 216 OFFCURVE",
"379 328 CURVE SMOOTH",
"379 852 LINE",
"365 861 LINE",
"85 773 LINE",
"85 726 LINE",
"87 721 LINE",
"140 689 OFFCURVE",
"145 646 OFFCURVE",
"145 592 CURVE SMOOTH",
"145 238 LINE SMOOTH",
"145 55 OFFCURVE",
"251 -30 OFFCURVE",
"379 -30 CURVE SMOOTH"
);
},
{
closed = 1;
nodes = (
"966 81 LINE",
"966 141 LINE",
"941 152 OFFCURVE",
"894 178 OFFCURVE",
"894 242 CURVE SMOOTH",
"894 852 LINE",
"880 861 LINE",
"599 773 LINE",
"599 726 LINE",
"601 721 LINE",
"654 689 OFFCURVE",
"659 646 OFFCURVE",
"659 592 CURVE SMOOTH",
"659 146 LINE",
"699 -13 LINE",
"725 -31 LINE"
);
}
);
width = 1051;
},
{
layerId = "34301EF7-A2BE-469F-9697-D6100B11FDFE";
paths = (
{
closed = 1;
nodes = (
"560 -30 OFFCURVE",
"661 52 OFFCURVE",
"741 160 CURVE",
"722 210 LINE",
"621 67 OFFCURVE",
"532 38 OFFCURVE",
"470 38 CURVE SMOOTH",
"368 38 OFFCURVE",
"313 115 OFFCURVE",
"314 250 CURVE SMOOTH",
"316 774 LINE",
"308 780 LINE",
"60 712 LINE",
"60 684 LINE",
"65 680 LINE",
"203 698 OFFCURVE",
"201 689 OFFCURVE",
"201 660 CURVE SMOOTH",
"201 242 LINE SMOOTH",
"201 51 OFFCURVE",
"318 -30 OFFCURVE",
"440 -30 CURVE SMOOTH"
);
},
{
closed = 1;
nodes = (
"984 41 LINE",
"984 68 LINE",
"869 72 OFFCURVE",
"821 90 OFFCURVE",
"821 130 CURVE SMOOTH",
"821 772 LINE",
"813 780 LINE",
"566 712 LINE",
"566 683 LINE",
"570 679 LINE",
"709 698 OFFCURVE",
"708 689 OFFCURVE",
"708 660 CURVE SMOOTH",
"708 119 LINE",
"738 -21 LINE",
"749 -29 LINE"
);
}
);
width = 1039;
},
{
layerId = "CFF67ECA-3B2D-433B-B605-F38590C8F106";
paths = (
{
closed = 1;
nodes = (
"831 651 LINE",
"887 821 LINE",
"858 851 LINE",
"743 821 LINE",
"579 85 LINE SMOOTH",
"565 21 OFFCURVE",
"628 -30 OFFCURVE",
"666 -30 CURVE SMOOTH",
"761 -30 OFFCURVE",
"861 125 OFFCURVE",
"975 310 CURVE",
"975 318 LINE",
"942 355 LINE",
"933 355 LINE",
"823 205 OFFCURVE",
"774 135 OFFCURVE",
"735 135 CURVE SMOOTH",
"727 135 OFFCURVE",
"723 140 OFFCURVE",
"723 149 CURVE SMOOTH",
"723 154 OFFCURVE",
"724 159 OFFCURVE",
"725 165 CURVE SMOOTH"
);
},
{
closed = 1;
nodes = (
"141 193 LINE SMOOTH",
"99 22 OFFCURVE",
"198 -57 OFFCURVE",
"300 -57 CURVE SMOOTH",
"452 -57 OFFCURVE",
"555 122 OFFCURVE",
"741 502 CURVE",
"696 531 LINE",
"502 151 OFFCURVE",
"420 67 OFFCURVE",
"347 67 CURVE SMOOTH",
"293 67 OFFCURVE",
"249 113 OFFCURVE",
"274 216 CURVE SMOOTH",
"424 821 LINE",
"388 851 LINE",
"57 726 LINE",
"51 666 LINE",
"67 652 LINE",
"321 701 LINE",
"278 752 LINE"
);
}
);
width = 961;
}
);
note = "Fix foot to have cut in it!!";
rightMetricsKey = d;
unicode = 0075;
},
{
glyphname = v;
lastChange = "2020-02-26 11:50:22 +0000";
layers = (
{
layerId = "6B6AD122-EF8D-49FE-8C69-4BDE8C56BDD8";
paths = (
{
closed = 1;
nodes = (
"483 0 LINE",
"534 99 LINE",
"341 594 LINE SMOOTH",
"317 655 OFFCURVE",
"305 752 OFFCURVE",
"351 781 CURVE",
"351 787 LINE",
"339 831 LINE",
"17 831 LINE",
"0 792 LINE",
"0 779 LINE",
"16 763 OFFCURVE",
"54 693 OFFCURVE",
"98 581 CURVE SMOOTH",
"325 0 LINE"
);
},
{
closed = 1;
nodes = (
"524 0 LINE",
"714 546 LINE SMOOTH",
"764 690 OFFCURVE",
"809 754 OFFCURVE",
"834 779 CURVE",
"834 790 LINE",
"818 831 LINE",
"594 831 LINE",
"582 787 LINE",
"582 781 LINE",
"626 752 OFFCURVE",
"602 656 OFFCURVE",
"581 595 CURVE SMOOTH",
"377 0 LINE"
);
}
);
width = 834;
},
{
layerId = "34301EF7-A2BE-469F-9697-D6100B11FDFE";
paths = (
{
closed = 1;
nodes = (
"462 0 LINE",
"466 51 LINE",
"237 662 LINE SMOOTH",
"227 688 OFFCURVE",
"217 698 OFFCURVE",
"357 712 CURVE",
"360 717 LINE",
"357 750 LINE",
"-6 750 LINE",
"-10 717 LINE",
"-5 711 LINE",
"40 703 OFFCURVE",
"97 686 OFFCURVE",
"121 628 CURVE SMOOTH",
"376 0 LINE"
);
},
{
closed = 1;
nodes = (
"463 0 LINE",
"701 628 LINE SMOOTH",
"724 688 OFFCURVE",
"785 703 OFFCURVE",
"846 712 CURVE",
"849 718 LINE",
"845 750 LINE",
"536 750 LINE",
"533 717 LINE",
"536 712 LINE",
"676 698 OFFCURVE",
"664 688 OFFCURVE",
"655 662 CURVE SMOOTH",
"418 0 LINE"
);
}
);
width = 839;
},
{
background = {
paths = (
{
closed = 1;
nodes = (
"323 0 LINE",
"353 102 LINE",
"243 686 LINE SMOOTH",
"238 719 OFFCURVE",
"237 745 OFFCURVE",
"368 768 CURVE",
"366 775 LINE",
"371 821 LINE",
"8 821 LINE",
"-6 776 LINE",
"2 771 LINE",
"54 756 OFFCURVE",
"76 734 OFFCURVE",
"89 662 CURVE SMOOTH",
"212 0 LINE"
);
},
{
closed = 1;
nodes = (
"341 0 LINE",
"723 654 LINE SMOOTH",
"756 715 OFFCURVE",
"801 754 OFFCURVE",
"855 767 CURVE",
"855 776 LINE",
"860 821 LINE",
"564 821 LINE",
"550 775 LINE",
"555 770 LINE",
"668 756 OFFCURVE",
"649 732 OFFCURVE",
"630 699 CURVE SMOOTH",
"228 0 LINE"
);
}
);
};
layerId = "CFF67ECA-3B2D-433B-B605-F38590C8F106";
paths = (
{
closed = 1;
nodes = (
"581 716 LINE",
"603 676 OFFCURVE",
"611 618 OFFCURVE",
"611 562 CURVE SMOOTH",
"611 356 OFFCURVE",
"512 75 OFFCURVE",
"284 75 CURVE SMOOTH",
"273 75 OFFCURVE",
"266 84 OFFCURVE",
"266 103 CURVE SMOOTH",
"266 146 OFFCURVE",
"310 420 OFFCURVE",
"310 600 CURVE SMOOTH",
"310 690 OFFCURVE",
"300 760 OFFCURVE",
"212 821 CURVE",
"200 821 LINE",
"101 706 LINE",
"101 689 LINE",
"185 623 OFFCURVE",
"188 570 OFFCURVE",
"189 518 CURVE SMOOTH",
"191 420 OFFCURVE",
"148 142 OFFCURVE",
"148 80 CURVE SMOOTH",
"148 17 OFFCURVE",
"227 -30 OFFCURVE",
"265 -30 CURVE SMOOTH",
"476 -30 OFFCURVE",
"758 260 OFFCURVE",
"758 622 CURVE SMOOTH",
"758 684 OFFCURVE",
"753 737 OFFCURVE",
"715 844 CURVE",
"701 851 LINE",
"581 734 LINE"
);
}
);
width = 827;
}
);
unicode = 0076;
},
{
glyphname = w;
lastChange = "2020-02-19 16:10:00 +0000";
layers = (
{
layerId = "6B6AD122-EF8D-49FE-8C69-4BDE8C56BDD8";
paths = (
{
closed = 1;
nodes = (
"453 0 LINE",
"504 99 LINE",
"341 594 LINE SMOOTH",
"321 656 OFFCURVE",
"305 732 OFFCURVE",
"361 781 CURVE",
"361 787 LINE",
"349 831 LINE",
"17 831 LINE",
"0 792 LINE",
"0 779 LINE",
"16 763 OFFCURVE",
"59 695 OFFCURVE",
"98 581 CURVE SMOOTH",
"295 0 LINE"
);
},
{
closed = 1;
nodes = (
"488 0 LINE",
"694 841 LINE",
"567 841 LINE",
"357 0 LINE"
);
},
{
closed = 1;
nodes = (
"904 0 LINE",
"955 99 LINE",
"718 841 LINE",
"575 841 LINE",
"541 635 LINE",
"746 0 LINE"
);
},
{
closed = 1;
nodes = (
"945 0 LINE",
"1105 546 LINE SMOOTH",
"1148 693 OFFCURVE",
"1200 754 OFFCURVE",
"1225 779 CURVE",
"1225 790 LINE",
"1209 831 LINE",
"975 831 LINE",
"963 787 LINE",
"963 781 LINE",
"1017 732 OFFCURVE",
"990 656 OFFCURVE",
"972 595 CURVE SMOOTH",
"798 0 LINE"
);
}
);
width = 1225;
},
{
layerId = "34301EF7-A2BE-469F-9697-D6100B11FDFE";
paths = (
{
closed = 1;
nodes = (
"442 0 LINE",
"446 51 LINE",
"237 662 LINE SMOOTH",
"228 688 OFFCURVE",
"217 698 OFFCURVE",
"337 712 CURVE",
"340 717 LINE",
"337 750 LINE",
"-6 750 LINE",
"-10 717 LINE",
"-5 711 LINE",
"40 703 OFFCURVE",
"99 686 OFFCURVE",
"121 628 CURVE SMOOTH",
"356 0 LINE"
);
},
{
closed = 1;
nodes = (
"443 0 LINE",
"633 545 LINE",
"605 612 LINE",
"391 0 LINE"
);
},
{
closed = 1;
nodes = (
"864 0 LINE",
"868 51 LINE",
"679 662 LINE SMOOTH",
"671 688 OFFCURVE",
"659 698 OFFCURVE",
"769 712 CURVE",
"772 717 LINE",
"769 750 LINE",
"436 750 LINE",
"432 717 LINE",
"437 711 LINE",
"482 703 OFFCURVE",
"543 686 OFFCURVE",
"563 628 CURVE SMOOTH",
"778 0 LINE"
);
},
{
closed = 1;
nodes = (
"865 0 LINE",
"1073 628 LINE SMOOTH",
"1093 688 OFFCURVE",
"1157 703 OFFCURVE",
"1218 712 CURVE",
"1221 718 LINE",
"1217 750 LINE",
"908 750 LINE",
"905 717 LINE",
"908 712 LINE",
"1048 698 OFFCURVE",
"1035 688 OFFCURVE",
"1027 662 CURVE SMOOTH",
"820 0 LINE"
);
}
);
width = 1211;
},
{
layerId = "CFF67ECA-3B2D-433B-B605-F38590C8F106";
paths = (
{
closed = 1;
nodes = (
"454 0 LINE",
"467 102 LINE",
"276 692 LINE SMOOTH",
"265 725 OFFCURVE",
"261 746 OFFCURVE",
"407 769 CURVE",
"410 775 LINE",
"404 821 LINE",
"11 821 LINE",
"5 776 LINE",
"9 769 LINE",
"66 754 OFFCURVE",
"100 728 OFFCURVE",
"124 656 CURVE SMOOTH",
"342 0 LINE"
);
},
{
closed = 1;
nodes = (
"468 0 LINE",
"710 771 LINE",
"700 835 LINE",
"626 835 LINE",
"365 0 LINE"
);
},
{
closed = 1;
nodes = (
"956 0 LINE",
"969 102 LINE",
"700 835 LINE",
"597 676 LINE",
"844 0 LINE"
);
},
{
closed = 1;
nodes = (
"970 0 LINE",
"1147 660 LINE SMOOTH",
"1163 721 OFFCURVE",
"1203 756 OFFCURVE",
"1254 769 CURVE",
"1258 776 LINE",
"1253 821 LINE",
"927 821 LINE",
"921 775 LINE",
"923 769 LINE",
"1060 755 OFFCURVE",
"1059 726 OFFCURVE",
"1050 693 CURVE SMOOTH",
"863 0 LINE"
);
}
);
width = 1263;
}
);
leftMetricsKey = v;
rightMetricsKey = v;
unicode = 0077;
},
{
glyphname = x;
lastChange = "2020-02-26 11:20:11 +0000";
layers = (
{
layerId = "6B6AD122-EF8D-49FE-8C69-4BDE8C56BDD8";
paths = (
{
closed = 1;
nodes = (
"797 0 LINE",
"806 40 LINE",
"806 51 LINE",
"766 83 OFFCURVE",
"713 140 OFFCURVE",
"668 211 CURVE SMOOTH",
"376 671 LINE SMOOTH",
"347 716 OFFCURVE",
"318 751 OFFCURVE",
"356 784 CURVE",
"356 797 LINE",
"344 831 LINE",
"11 831 LINE",
"1 794 LINE",
"1 779 LINE",
"37 742 OFFCURVE",
"84 700 OFFCURVE",
"135 620 CURVE SMOOTH",
"439 139 LINE SMOOTH",
"458 110 OFFCURVE",
"462 78 OFFCURVE",
"434 47 CURVE",
"434 38 LINE",
"447 0 LINE"
);
},
{
closed = 1;
nodes = (
"256 0 LINE",
"273 38 LINE",
"273 47 LINE",
"235 72 OFFCURVE",
"260 111 OFFCURVE",
"291 170 CURVE SMOOTH",
"479 526 LINE",
"379 526 LINE",
"141 180 LINE SMOOTH",
"99 120 OFFCURVE",
"40 81 OFFCURVE",
"0 51 CURVE",
"0 40 LINE",
"10 0 LINE"
);
},
{
closed = 1;
nodes = (
"414 361 LINE",
"649 660 LINE SMOOTH",
"693 716 OFFCURVE",
"752 754 OFFCURVE",
"794 783 CURVE",
"794 794 LINE",
"783 831 LINE",
"541 831 LINE",
"522 795 LINE",
"522 784 LINE",
"551 756 OFFCURVE",
"530 719 OFFCURVE",
"501 671 CURVE SMOOTH",
"312 361 LINE"
);
}
);
width = 806;
},
{
layerId = "34301EF7-A2BE-469F-9697-D6100B11FDFE";
paths = (
{
closed = 1;
nodes = (
"727 0 LINE",
"729 30 LINE",
"725 36 LINE",
"667 44 OFFCURVE",
"624 63 OFFCURVE",
"592 112 CURVE SMOOTH",
"237 657 LINE SMOOTH",
"216 689 OFFCURVE",
"206 705 OFFCURVE",
"311 714 CURVE",
"317 721 LINE",
"314 746 LINE",
"-7 746 LINE",
"-9 719 LINE",
"-2 714 LINE",
"56 704 OFFCURVE",
"97 686 OFFCURVE",
"128 638 CURVE SMOOTH",
"482 91 LINE SMOOTH",
"503 59 OFFCURVE",
"510 44 OFFCURVE",
"406 35 CURVE",
"402 27 LINE",
"404 0 LINE"
);
},
{
closed = 1;
nodes = (
"261 0 LINE",
"263 28 LINE",
"257 36 LINE",
"160 52 OFFCURVE",
"166 60 OFFCURVE",
"188 93 CURVE SMOOTH",
"401 413 LINE",
"351 413 LINE",
"128 95 LINE SMOOTH",
"104 61 OFFCURVE",
"66 44 OFFCURVE",
"-7 36 CURVE",
"-10 31 LINE",
"-7 0 LINE"
);
},
{
closed = 1;
nodes = (
"373 346 LINE",
"591 655 LINE SMOOTH",
"614 687 OFFCURVE",
"652 705 OFFCURVE",
"722 714 CURVE",
"728 721 LINE",
"727 746 LINE",
"457 746 LINE",
"455 721 LINE",
"461 714 LINE",
"559 703 OFFCURVE",
"553 689 OFFCURVE",
"532 657 CURVE SMOOTH",
"324 346 LINE"
);
}
);
width = 719;
},
{
layerId = "CFF67ECA-3B2D-433B-B605-F38590C8F106";
paths = (
{
closed = 1;
nodes = (
"809 0 LINE",
"813 39 LINE",
"809 46 LINE",
"764 64 OFFCURVE",
"724 82 OFFCURVE",
"691 130 CURVE SMOOTH",
"288 710 LINE SMOOTH",
"263 746 OFFCURVE",
"262 758 OFFCURVE",
"356 776 CURVE",
"360 782 LINE",
"354 821 LINE",
"11 821 LINE",
"6 783 LINE",
"10 775 LINE",
"58 756 OFFCURVE",
"95 738 OFFCURVE",
"128 691 CURVE SMOOTH",
"531 110 LINE SMOOTH",
"556 74 OFFCURVE",
"552 60 OFFCURVE",
"459 46 CURVE",
"455 39 LINE",
"461 0 LINE"
);
},
{
closed = 1;
nodes = (
"310 0 LINE",
"315 39 LINE",
"312 46 LINE",
"219 67 OFFCURVE",
"226 73 OFFCURVE",
"250 111 CURVE SMOOTH",
"401 346 LINE",
"329 407 LINE",
"135 117 LINE SMOOTH",
"110 79 OFFCURVE",
"68 64 OFFCURVE",
"11 46 CURVE",
"6 39 LINE",
"11 0 LINE"
);
},
{
closed = 1;
nodes = (
"494 821 LINE",
"489 782 LINE",
"492 775 LINE",
"585 754 OFFCURVE",
"578 748 OFFCURVE",
"554 710 CURVE SMOOTH",
"403 475 LINE",
"475 414 LINE",
"669 704 LINE SMOOTH",
"694 742 OFFCURVE",
"736 757 OFFCURVE",
"793 775 CURVE",
"798 782 LINE",
"793 821 LINE"
);
}
);
width = 979;
}
);
leftMetricsKey = v;
rightMetricsKey = v;
unicode = 0078;
},
{
glyphname = y;
lastChange = "2020-02-26 11:19:07 +0000";
layers = (
{
layerId = "6B6AD122-EF8D-49FE-8C69-4BDE8C56BDD8";
paths = (
{
closed = 1;
nodes = (
"326 -423 OFFCURVE",
"416 -357 OFFCURVE",
"468 -211 CURVE SMOOTH",
"737 546 LINE SMOOTH",
"788 690 OFFCURVE",
"830 742 OFFCURVE",
"865 779 CURVE",
"865 790 LINE",
"856 831 LINE",
"627 831 LINE",
"615 788 LINE",
"615 781 LINE",
"641 740 OFFCURVE",
"628 655 OFFCURVE",
"606 595 CURVE SMOOTH",
"396 15 LINE SMOOTH",
"354 -101 OFFCURVE",
"310 -171 OFFCURVE",
"248 -206 CURVE SMOOTH",
"201 -232 OFFCURVE",
"144 -237 OFFCURVE",
"71 -227 CURVE",
"58 -250 LINE",
"59 -328 OFFCURVE",
"121 -423 OFFCURVE",
"231 -423 CURVE SMOOTH"
);
},
{
closed = 1;
nodes = (
"482 -5 LINE",
"533 94 LINE",
"350 594 LINE SMOOTH",
"328 655 OFFCURVE",
"314 752 OFFCURVE",
"360 781 CURVE",
"360 787 LINE",
"348 831 LINE",
"17 831 LINE",
"0 792 LINE",
"0 779 LINE",
"16 763 OFFCURVE",
"54 693 OFFCURVE",
"98 581 CURVE SMOOTH",
"360 -91 LINE"
);
}
);
width = 865;
},
{
layerId = "34301EF7-A2BE-469F-9697-D6100B11FDFE";
paths = (
{
closed = 1;
nodes = (
"313 -423 OFFCURVE",
"359 -360 OFFCURVE",
"419 -205 CURVE SMOOTH",
"741 628 LINE SMOOTH",
"764 688 OFFCURVE",
"825 703 OFFCURVE",
"886 712 CURVE",
"889 718 LINE",
"885 750 LINE",
"576 750 LINE",
"573 717 LINE",
"576 712 LINE",
"716 698 OFFCURVE",
"705 688 OFFCURVE",
"695 662 CURVE SMOOTH",
"373 -192 LINE SMOOTH",
"343 -272 OFFCURVE",
"295 -296 OFFCURVE",
"244 -296 CURVE SMOOTH",
"207 -296 OFFCURVE",
"173 -283 OFFCURVE",
"137 -264 CURVE",
"118 -275 LINE",
"105 -385 OFFCURVE",
"181 -423 OFFCURVE",
"238 -423 CURVE SMOOTH"
);
},
{
closed = 1;
nodes = (
"486 51 LINE",
"237 662 LINE SMOOTH",
"226 688 OFFCURVE",
"217 698 OFFCURVE",
"357 712 CURVE",
"360 717 LINE",
"357 750 LINE",
"-6 750 LINE",
"-10 717 LINE",
"-5 711 LINE",
"40 703 OFFCURVE",
"96 686 OFFCURVE",
"121 628 CURVE SMOOTH",
"423 -66 LINE"
);
}
);
width = 879;
},
{
background = {
paths = (
{
closed = 1;
nodes = (
"380 -424 OFFCURVE",
"461 -362 OFFCURVE",
"512 -208 CURVE SMOOTH",
"802 669 LINE SMOOTH",
"826 742 OFFCURVE",
"859 754 OFFCURVE",
"903 769 CURVE",
"907 776 LINE",
"903 821 LINE",
"587 821 LINE",
"581 775 LINE",
"583 769 LINE",
"714 746 OFFCURVE",
"711 726 OFFCURVE",
"700 693 CURVE SMOOTH",
"443 -92 LINE SMOOTH",
"408 -200 OFFCURVE",
"353 -260 OFFCURVE",
"281 -270 CURVE SMOOTH",
"248 -275 OFFCURVE",
"209 -270 OFFCURVE",
"171 -256 CURVE",
"153 -272 LINE",
"146 -365 OFFCURVE",
"219 -424 OFFCURVE",
"298 -424 CURVE SMOOTH"
);
},
{
closed = 1;
nodes = (
"540 122 LINE",
"296 692 LINE SMOOTH",
"282 725 OFFCURVE",
"270 746 OFFCURVE",
"400 769 CURVE",
"403 775 LINE",
"397 821 LINE",
"34 821 LINE",
"29 776 LINE",
"33 769 LINE",
"85 756 OFFCURVE",
"106 743 OFFCURVE",
"136 674 CURVE SMOOTH",
"469 -82 LINE"
);
}
);
};
layerId = "CFF67ECA-3B2D-433B-B605-F38590C8F106";
paths = (
{
closed = 1;
nodes = (
"75 193 LINE SMOOTH",
"33 22 OFFCURVE",
"132 -57 OFFCURVE",
"234 -57 CURVE SMOOTH",
"386 -57 OFFCURVE",
"489 122 OFFCURVE",
"675 502 CURVE",
"630 531 LINE",
"436 151 OFFCURVE",
"354 67 OFFCURVE",
"281 67 CURVE SMOOTH",
"227 67 OFFCURVE",
"182 113 OFFCURVE",
"208 216 CURVE SMOOTH",
"358 821 LINE",
"322 851 LINE",
"-9 726 LINE",
"-15 666 LINE",
"1 652 LINE",
"255 701 LINE",
"212 752 LINE"
);
},
{
closed = 1;
nodes = (
"815 826 LINE",
"783 853 LINE",
"667 821 LINE",
"451 -211 LINE SMOOTH",
"433 -296 OFFCURVE",
"382 -328 OFFCURVE",
"311 -328 CURVE SMOOTH",
"256 -328 OFFCURVE",
"188 -308 OFFCURVE",
"53 -230 CURVE",
"32 -230 LINE",
"-20 -338 LINE",
"-20 -358 LINE",
"129 -412 OFFCURVE",
"205 -424 OFFCURVE",
"256 -424 CURVE SMOOTH",
"410 -424 OFFCURVE",
"553 -320 OFFCURVE",
"593 -131 CURVE SMOOTH",
"759 651 LINE"
);
}
);
width = 872;
}
);
unicode = 0079;
},
{
glyphname = z;
lastChange = "2020-02-19 14:22:13 +0000";
layers = (
{
layerId = "6B6AD122-EF8D-49FE-8C69-4BDE8C56BDD8";
paths = (
{
closed = 1;
nodes = (
"339 0 LINE",
"782 794 LINE",
"764 831 LINE",
"544 831 LINE",
"100 36 LINE",
"117 0 LINE"
);
},
{
closed = 1;
nodes = (
"754 0 LINE",
"785 288 LINE",
"735 302 LINE",
"680 193 OFFCURVE",
"516 87 OFFCURVE",
"388 87 CURVE SMOOTH",
"277 87 LINE",
"277 0 LINE"
);
},
{
closed = 1;
nodes = (
"241 668 OFFCURVE",
"352 727 OFFCURVE",
"452 727 CURVE SMOOTH",
"622 727 LINE",
"622 831 LINE",
"120 831 LINE",
"120 545 LINE",
"170 538 LINE"
);
}
);
width = 880;
},
{
layerId = "34301EF7-A2BE-469F-9697-D6100B11FDFE";
paths = (
{
closed = 1;
nodes = (
"184 0 LINE",
"667 732 LINE",
"657 750 LINE",
"550 750 LINE",
"65 20 LINE",
"77 0 LINE"
);
},
{
closed = 1;
nodes = (
"627 0 LINE",
"661 236 LINE",
"627 244 LINE",
"569 104 OFFCURVE",
"511 52 OFFCURVE",
"414 52 CURVE SMOOTH",
"122 52 LINE",
"122 0 LINE"
);
},
{
closed = 1;
nodes = (
"157 678 OFFCURVE",
"207 698 OFFCURVE",
"326 698 CURVE SMOOTH",
"594 698 LINE",
"594 750 LINE",
"96 750 LINE",
"96 491 LINE",
"133 490 LINE"
);
}
);
width = 762;
},
{
layerId = "CFF67ECA-3B2D-433B-B605-F38590C8F106";
paths = (
{
closed = 1;
nodes = (
"195 0 LINE",
"691 791 LINE",
"678 821 LINE",
"534 821 LINE",
"40 33 LINE",
"52 0 LINE"
);
},
{
closed = 1;
nodes = (
"668 0 LINE",
"703 267 LINE",
"658 278 LINE",
"598 153 OFFCURVE",
"518 84 OFFCURVE",
"392 84 CURVE SMOOTH",
"144 84 LINE",
"145 0 LINE"
);
},
{
closed = 1;
nodes = (
"149 699 OFFCURVE",
"230 735 OFFCURVE",
"344 735 CURVE SMOOTH",
"604 735 LINE",
"604 821 LINE",
"58 821 LINE",
"58 560 LINE",
"109 557 LINE"
);
}
);
width = 743;
}
);
unicode = 007A;
},
{
glyphname = a.001;
layers = (
{
layerId = "6B6AD122-EF8D-49FE-8C69-4BDE8C56BDD8";
paths = (
{
closed = 1;
nodes = (
"842 57 LINE",
"842 112 LINE",
"838 117 LINE",
"812 122 OFFCURVE",
"787 130 OFFCURVE",
"769 144 CURVE SMOOTH",
"748 160 OFFCURVE",
"735 183 OFFCURVE",
"736 217 CURVE SMOOTH",
"746 575 LINE SMOOTH",
"751 747 OFFCURVE",
"639 861 OFFCURVE",
"413 861 CURVE SMOOTH",
"319 861 OFFCURVE",
"216 841 OFFCURVE",
"95 789 CURVE",
"95 609 LINE",
"116 595 LINE",
"219 635 OFFCURVE",
"306 650 OFFCURVE",
"379 650 CURVE SMOOTH",
"491 650 OFFCURVE",
"560 614 OFFCURVE",
"556 498 CURVE SMOOTH",
"545 134 LINE SMOOTH",
"542 29 OFFCURVE",
"605 -30 OFFCURVE",
"690 -30 CURVE"
);
},
{
closed = 1;
nodes = (
"373 -30 OFFCURVE",
"486 21 OFFCURVE",
"560 130 CURVE",
"560 198 LINE",
"496 138 OFFCURVE",
"426 121 OFFCURVE",
"391 121 CURVE SMOOTH",
"340 121 OFFCURVE",
"302 158 OFFCURVE",
"302 227 CURVE SMOOTH",
"302 276 OFFCURVE",
"321 333 OFFCURVE",
"566 449 CURVE",
"553 563 LINE",
"395 488 LINE SMOOTH",
"170 381 OFFCURVE",
"75 283 OFFCURVE",
"75 161 CURVE SMOOTH",
"75 65 OFFCURVE",
"136 -30 OFFCURVE",
"273 -30 CURVE SMOOTH"
);
}
);
width = 897;
},
{
layerId = "34301EF7-A2BE-469F-9697-D6100B11FDFE";
paths = (
{
closed = 1;
nodes = (
"815 63 LINE",
"810 86 LINE",
"806 88 LINE",
"771 75 OFFCURVE",
"740 67 OFFCURVE",
"712 67 CURVE SMOOTH",
"650 67 OFFCURVE",
"608 105 OFFCURVE",
"609 187 CURVE SMOOTH",
"612 503 LINE SMOOTH",
"614 669 OFFCURVE",
"560 780 OFFCURVE",
"353 780 CURVE SMOOTH",
"247 780 OFFCURVE",
"143 750 OFFCURVE",
"57 701 CURVE",
"57 621 LINE",
"71 611 LINE",
"140 638 OFFCURVE",
"235 677 OFFCURVE",
"338 677 CURVE SMOOTH",
"391 677 OFFCURVE",
"526 669 OFFCURVE",
"524 500 CURVE SMOOTH",
"520 99 LINE SMOOTH",
"519 16 OFFCURVE",
"584 -30 OFFCURVE",
"659 -30 CURVE"
);
},
{
closed = 1;
nodes = (
"351 -30 OFFCURVE",
"432 19 OFFCURVE",
"520 99 CURVE",
"524 150 LINE",
"460 99 OFFCURVE",
"367 40 OFFCURVE",
"296 40 CURVE SMOOTH",
"236 40 OFFCURVE",
"172 82 OFFCURVE",
"172 180 CURVE SMOOTH",
"172 269 OFFCURVE",
"224 341 OFFCURVE",
"549 490 CURVE",
"529 544 LINE",
"444 501 LINE SMOOTH",
"142 348 OFFCURVE",
"63 256 OFFCURVE",
"63 147 CURVE SMOOTH",
"63 38 OFFCURVE",
"145 -30 OFFCURVE",
"256 -30 CURVE SMOOTH"
);
}
);
width = 834;
},
{
background = {
paths = (
{
closed = 1;
nodes = (
"845 59 LINE",
"845 97 LINE",
"837 104 LINE",
"797 107 OFFCURVE",
"763 114 OFFCURVE",
"736 128 CURVE SMOOTH",
"700 146 OFFCURVE",
"680 178 OFFCURVE",
"680 231 CURVE SMOOTH",
"683 592 LINE SMOOTH",
"684 735 OFFCURVE",
"603 851 OFFCURVE",
"395 851 CURVE SMOOTH",
"299 851 OFFCURVE",
"191 827 OFFCURVE",
"98 783 CURVE",
"98 657 LINE",
"114 647 LINE",
"179 678 OFFCURVE",
"275 706 OFFCURVE",
"358 706 CURVE SMOOTH",
"439 706 OFFCURVE",
"550 679 OFFCURVE",
"547 528 CURVE SMOOTH",
"540 162 LINE SMOOTH",
"538 39 OFFCURVE",
"639 -30 OFFCURVE",
"725 -30 CURVE"
);
},
{
closed = 1;
nodes = (
"373 -30 OFFCURVE",
"464 13 OFFCURVE",
"557 125 CURVE",
"555 209 LINE",
"497 145 OFFCURVE",
"411 75 OFFCURVE",
"327 75 CURVE SMOOTH",
"273 75 OFFCURVE",
"226 101 OFFCURVE",
"226 177 CURVE SMOOTH",
"226 262 OFFCURVE",
"286 357 OFFCURVE",
"574 476 CURVE",
"558 569 LINE",
"395 495 LINE SMOOTH",
"157 387 OFFCURVE",
"75 266 OFFCURVE",
"75 154 CURVE SMOOTH",
"75 48 OFFCURVE",
"142 -30 OFFCURVE",
"274 -30 CURVE SMOOTH"
);
}
);
};
layerId = "CFF67ECA-3B2D-433B-B605-F38590C8F106";
paths = (
{
closed = 1;
nodes = (
"412 -30 OFFCURVE",
"518 175 OFFCURVE",
"590 318 CURVE",
"590 573 LINE",
"512 210 OFFCURVE",
"349 100 OFFCURVE",
"260 100 CURVE SMOOTH",
"208 100 OFFCURVE",
"172 129 OFFCURVE",
"172 268 CURVE SMOOTH",
"172 561 OFFCURVE",
"309 735 OFFCURVE",
"423 735 CURVE SMOOTH",
"476 735 OFFCURVE",
"545 695 OFFCURVE",
"608 647 CURVE",
"653 808 LINE",
"594 830 OFFCURVE",
"534 851 OFFCURVE",
"466 851 CURVE SMOOTH",
"201 851 OFFCURVE",
"29 514 OFFCURVE",
"29 220 CURVE SMOOTH",
"29 69 OFFCURVE",
"108 -30 OFFCURVE",
"237 -30 CURVE SMOOTH"
);
},
{
closed = 1;
nodes = (
"772 851 LINE",
"637 802 LINE",
"505 183 LINE",
"505 66 OFFCURVE",
"569 -30 OFFCURVE",
"605 -30 CURVE",
"622 -30 LINE",
"662 -30 OFFCURVE",
"813 130 OFFCURVE",
"859 205 CURVE",
"823 245 LINE",
"814 245 LINE",
"703 142 OFFCURVE",
"649 114 OFFCURVE",
"649 149 CURVE SMOOTH",
"649 154 OFFCURVE",
"650 159 OFFCURVE",
"651 165 CURVE SMOOTH",
"792 834 LINE"
);
}
);
width = 867;
}
);
},
{
glyphname = d.001;
lastChange = "2020-02-24 21:37:52 +0000";
layers = (
{
background = {
paths = (
{
closed = 1;
nodes = (
"410 -30 OFFCURVE",
"494 79 OFFCURVE",
"560 147 CURVE",
"528 236 LINE",
"528 207 OFFCURVE",
"473 145 OFFCURVE",
"395 145 CURVE SMOOTH",
"281 145 OFFCURVE",
"181 279 OFFCURVE",
"181 482 CURVE SMOOTH",
"181 653 OFFCURVE",
"245 719 OFFCURVE",
"334 719 CURVE SMOOTH",
"411 719 OFFCURVE",
"489 669 OFFCURVE",
"527 605 CURVE",
"629 730 LINE",
"553 800 OFFCURVE",
"494 861 OFFCURVE",
"383 861 CURVE SMOOTH",
"207 861 OFFCURVE",
"-44 726 OFFCURVE",
"-44 390 CURVE SMOOTH",
"-44 126 OFFCURVE",
"110 -30 OFFCURVE",
"274 -30 CURVE SMOOTH"
);
},
{
closed = 1;
nodes = (
"833 81 LINE",
"833 130 LINE",
"809 141 OFFCURVE",
"761 167 OFFCURVE",
"761 231 CURVE SMOOTH",
"761 1230 LINE",
"744 1247 LINE",
"476 1141 LINE",
"476 1091 LINE",
"527 1012 LINE",
"527 125 LINE",
"580 -13 LINE",
"606 -31 LINE"
);
}
);
};
layerId = "6B6AD122-EF8D-49FE-8C69-4BDE8C56BDD8";
paths = (
{
closed = 1;
nodes = (
"391 -30 OFFCURVE",
"499 93 OFFCURVE",
"580 328 CURVE",
"599 573 LINE",
"521 209 OFFCURVE",
"383 145 OFFCURVE",
"316 145 CURVE SMOOTH",
"282 145 OFFCURVE",
"251 164 OFFCURVE",
"251 233 CURVE SMOOTH",
"251 496 OFFCURVE",
"298 703 OFFCURVE",
"402 703 CURVE SMOOTH",
"465 703 OFFCURVE",
"562 624 OFFCURVE",
"617 517 CURVE",
"713 544 LINE",
"665 754 OFFCURVE",
"603 861 OFFCURVE",
"482 861 CURVE SMOOTH",
"270 861 OFFCURVE",
"17 514 OFFCURVE",
"17 250 CURVE SMOOTH",
"17 69 OFFCURVE",
"117 -30 OFFCURVE",
"246 -30 CURVE SMOOTH"
);
},
{
closed = 1;
nodes = (
"897 310 LINE",
"786 207 OFFCURVE",
"732 179 OFFCURVE",
"732 214 CURVE SMOOTH",
"732 219 OFFCURVE",
"733 224 OFFCURVE",
"734 230 CURVE SMOOTH",
"950 1254 LINE",
"927 1266 LINE",
"565 1121 LINE",
"547 1029 LINE",
"769 1029 LINE",
"718 1143 LINE",
"518 197 LINE",
"530 139 OFFCURVE",
"578 -30 OFFCURVE",
"614 -30 CURVE",
"631 -30 LINE",
"671 -30 OFFCURVE",
"912 160 OFFCURVE",
"958 235 CURVE",
"906 310 LINE"
);
}
);
width = 1001;
},
{
background = {
paths = (
{
closed = 1;
nodes = (
"522 -30 OFFCURVE",
"635 67 OFFCURVE",
"666 129 CURVE",
"658 176 LINE",
"613 102 OFFCURVE",
"517 33 OFFCURVE",
"415 33 CURVE SMOOTH",
"259 33 OFFCURVE",
"168 194 OFFCURVE",
"168 378 CURVE SMOOTH",
"168 599 OFFCURVE",
"276 725 OFFCURVE",
"420 725 CURVE SMOOTH",
"523 725 OFFCURVE",
"616 661 OFFCURVE",
"658 553 CURVE",
"695 661 LINE",
"664 713 OFFCURVE",
"560 780 OFFCURVE",
"434 780 CURVE SMOOTH",
"238 780 OFFCURVE",
"55 628 OFFCURVE",
"55 364 CURVE SMOOTH",
"55 136 OFFCURVE",
"196 -30 OFFCURVE",
"380 -30 CURVE SMOOTH"
);
},
{
closed = 1;
nodes = (
"934 37 LINE",
"934 61 LINE",
"819 65 OFFCURVE",
"772 79 OFFCURVE",
"772 119 CURVE SMOOTH",
"772 1257 LINE",
"762 1266 LINE",
"496 1191 LINE",
"496 1169 LINE",
"658 1147 LINE",
"658 116 LINE",
"678 -31 LINE",
"689 -39 LINE"
);
}
);
};
layerId = "34301EF7-A2BE-469F-9697-D6100B11FDFE";
paths = (
{
closed = 1;
nodes = (
"328 -30 OFFCURVE",
"454 86 OFFCURVE",
"576 277 CURVE",
"576 359 LINE",
"392 152 OFFCURVE",
"293 81 OFFCURVE",
"254 81 CURVE SMOOTH",
"192 81 OFFCURVE",
"162 145 OFFCURVE",
"162 224 CURVE SMOOTH",
"162 517 OFFCURVE",
"326 674 OFFCURVE",
"445 674 CURVE SMOOTH",
"483 674 OFFCURVE",
"540 658 OFFCURVE",
"623 630 CURVE",
"656 723 LINE",
"577 755 OFFCURVE",
"520 780 OFFCURVE",
"452 780 CURVE SMOOTH",
"217 780 OFFCURVE",
"39 492 OFFCURVE",
"39 218 CURVE SMOOTH",
"39 47 OFFCURVE",
"114 -30 OFFCURVE",
"214 -30 CURVE SMOOTH"
);
},
{
closed = 1;
nodes = (
"780 235 LINE",
"679 142 OFFCURVE",
"583 54 OFFCURVE",
"583 89 CURVE SMOOTH",
"583 94 OFFCURVE",
"584 99 OFFCURVE",
"585 105 CURVE SMOOTH",
"827 1254 LINE",
"804 1266 LINE",
"542 1201 LINE",
"534 1153 LINE",
"746 1153 LINE",
"704 1187 LINE",
"481 133 LINE SMOOTH",
"455 11 OFFCURVE",
"504 -30 OFFCURVE",
"541 -30 CURVE SMOOTH",
"542 -30 LINE SMOOTH",
"582 -30 OFFCURVE",
"668 30 OFFCURVE",
"825 195 CURVE",
"789 235 LINE"
);
}
);
width = 841;
},
{
background = {
paths = (
{
closed = 1;
nodes = (
"416 -30 OFFCURVE",
"509 62 OFFCURVE",
"560 115 CURVE",
"557 231 LINE",
"536 187 OFFCURVE",
"439 80 OFFCURVE",
"331 80 CURVE SMOOTH",
"202 80 OFFCURVE",
"107 214 OFFCURVE",
"107 428 CURVE SMOOTH",
"107 650 OFFCURVE",
"217 735 OFFCURVE",
"349 735 CURVE SMOOTH",
"452 735 OFFCURVE",
"525 684 OFFCURVE",
"558 616 CURVE",
"563 785 LINE",
"517 817 OFFCURVE",
"450 851 OFFCURVE",
"356 851 CURVE SMOOTH",
"146 851 OFFCURVE",
"-56 678 OFFCURVE",
"-56 384 CURVE SMOOTH",
"-56 128 OFFCURVE",
"87 -30 OFFCURVE",
"279 -30 CURVE SMOOTH"
);
},
{
closed = 1;
nodes = (
"435 1171 LINE",
"435 1122 LINE",
"552 1077 LINE",
"552 149 LINE",
"594 -26 LINE",
"614 -36 LINE",
"829 35 LINE",
"829 83 LINE",
"751 110 OFFCURVE",
"703 129 OFFCURVE",
"703 178 CURVE SMOOTH",
"703 1254 LINE",
"679 1266 LINE"
);
}
);
};
layerId = "CFF67ECA-3B2D-433B-B605-F38590C8F106";
paths = (
{
closed = 1;
nodes = (
"412 -30 OFFCURVE",
"518 175 OFFCURVE",
"590 318 CURVE",
"590 573 LINE",
"512 210 OFFCURVE",
"286 117 OFFCURVE",
"227 117 CURVE SMOOTH",
"185 117 OFFCURVE",
"172 124 OFFCURVE",
"172 173 CURVE SMOOTH",
"172 496 OFFCURVE",
"309 735 OFFCURVE",
"423 735 CURVE SMOOTH",
"476 735 OFFCURVE",
"545 695 OFFCURVE",
"608 647 CURVE",
"653 808 LINE",
"594 830 OFFCURVE",
"534 851 OFFCURVE",
"466 851 CURVE SMOOTH",
"201 851 OFFCURVE",
"29 514 OFFCURVE",
"29 220 CURVE SMOOTH",
"29 69 OFFCURVE",
"108 -30 OFFCURVE",
"237 -30 CURVE SMOOTH"
);
},
{
closed = 1;
nodes = (
"652 1155 LINE",
"666 1100 OFFCURVE",
"688 1040 OFFCURVE",
"671 962 CURVE SMOOTH",
"505 183 LINE",
"511 91 OFFCURVE",
"569 -30 OFFCURVE",
"605 -30 CURVE SMOOTH",
"622 -30 LINE SMOOTH",
"662 -30 OFFCURVE",
"813 130 OFFCURVE",
"859 205 CURVE",
"823 245 LINE",
"814 245 LINE",
"703 142 OFFCURVE",
"649 114 OFFCURVE",
"649 149 CURVE SMOOTH",
"649 154 OFFCURVE",
"650 159 OFFCURVE",
"651 165 CURVE SMOOTH",
"786 800 LINE SMOOTH",
"814 931 OFFCURVE",
"897 1155 OFFCURVE",
"873 1266 CURVE",
"838 1266 LINE",
"666 1209 LINE"
);
}
);
width = 867;
}
);
leftMetricsKey = o;
note = "Fix foot to have cut in it!!";
rightMetricsKey = n;
},
{
glyphname = e.001;
lastChange = "2020-02-26 08:01:34 +0000";
layers = (
{
layerId = "6B6AD122-EF8D-49FE-8C69-4BDE8C56BDD8";
paths = (
{
closed = 1;
nodes = (
"562 -30 OFFCURVE",
"675 45 OFFCURVE",
"745 102 CURVE",
"712 190 LINE",
"668 175 OFFCURVE",
"612 163 OFFCURVE",
"565 163 CURVE SMOOTH",
"383 163 OFFCURVE",
"229 300 OFFCURVE",
"229 509 CURVE SMOOTH",
"229 640 OFFCURVE",
"291 692 OFFCURVE",
"366 692 CURVE SMOOTH",
"424 692 OFFCURVE",
"493 661 OFFCURVE",
"530 546 CURVE",
"720 527 LINE",
"750 553 LINE",
"707 772 OFFCURVE",
"586 861 OFFCURVE",
"449 861 CURVE SMOOTH",
"247 861 OFFCURVE",
"55 663 OFFCURVE",
"55 407 CURVE SMOOTH",
"55 183 OFFCURVE",
"202 -30 OFFCURVE",
"426 -30 CURVE SMOOTH"
);
},
{
closed = 1;
nodes = (
"720 478 LINE",
"750 553 LINE",
"605 580 LINE",
"140 472 LINE",
"140 346 LINE"
);
}
);
width = 840;
},
{
layerId = "34301EF7-A2BE-469F-9697-D6100B11FDFE";
paths = (
{
closed = 1;
nodes = (
"560 -30 OFFCURVE",
"636 46 OFFCURVE",
"712 143 CURVE",
"685 164 LINE",
"631 86 OFFCURVE",
"551 22 OFFCURVE",
"444 22 CURVE SMOOTH",
"260 22 OFFCURVE",
"187 209 OFFCURVE",
"187 387 CURVE SMOOTH",
"187 556 OFFCURVE",
"254 727 OFFCURVE",
"403 727 CURVE SMOOTH",
"535 727 OFFCURVE",
"588 592 OFFCURVE",
"588 465 CURVE",
"600 462 LINE",
"701 445 LINE",
"701 698 OFFCURVE",
"548 780 OFFCURVE",
"409 780 CURVE SMOOTH",
"218 780 OFFCURVE",
"70 625 OFFCURVE",
"70 368 CURVE SMOOTH",
"70 121 OFFCURVE",
"208 -30 OFFCURVE",
"414 -30 CURVE SMOOTH"
);
},
{
closed = 1;
nodes = (
"682 424 LINE",
"701 445 LINE",
"590 465 LINE",
"145 465 LINE",
"145 424 LINE"
);
}
);
width = 773;
},
{
background = {
paths = (
{
closed = 1;
nodes = (
"174 424 LINE",
"660 500 LINE",
"679 544 LINE",
"699 712 OFFCURVE",
"625 851 OFFCURVE",
"473 851 CURVE SMOOTH",
"225 851 OFFCURVE",
"56 509 OFFCURVE",
"56 250 CURVE SMOOTH",
"56 82 OFFCURVE",
"133 -30 OFFCURVE",
"276 -30 CURVE SMOOTH",
"413 -30 OFFCURVE",
"518 73 OFFCURVE",
"612 175 CURVE",
"612 188 LINE",
"582 236 LINE",
"571 238 LINE",
"470 142 OFFCURVE",
"382 94 OFFCURVE",
"316 94 CURVE SMOOTH",
"213 94 OFFCURVE",
"190 225 OFFCURVE",
"190 313 CURVE SMOOTH",
"190 503 OFFCURVE",
"270 736 OFFCURVE",
"419 736 CURVE SMOOTH",
"512 736 OFFCURVE",
"558 642 OFFCURVE",
"544 510 CURVE",
"613 581 LINE",
"174 513 LINE"
);
}
);
};
layerId = "CFF67ECA-3B2D-433B-B605-F38590C8F106";
paths = (
{
closed = 1;
nodes = (
"174 334 LINE",
"511 403 OFFCURVE",
"677 521 OFFCURVE",
"677 664 CURVE SMOOTH",
"677 767 OFFCURVE",
"596 851 OFFCURVE",
"473 851 CURVE SMOOTH",
"225 851 OFFCURVE",
"56 509 OFFCURVE",
"56 250 CURVE SMOOTH",
"56 82 OFFCURVE",
"133 -30 OFFCURVE",
"276 -30 CURVE SMOOTH",
"413 -30 OFFCURVE",
"518 73 OFFCURVE",
"612 175 CURVE",
"612 188 LINE",
"582 236 LINE",
"571 238 LINE",
"470 142 OFFCURVE",
"382 94 OFFCURVE",
"319 94 CURVE SMOOTH",
"213 94 OFFCURVE",
"190 225 OFFCURVE",
"190 313 CURVE SMOOTH",
"190 503 OFFCURVE",
"270 736 OFFCURVE",
"428 736 CURVE SMOOTH",
"501 736 OFFCURVE",
"546 683 OFFCURVE",
"546 632 CURVE SMOOTH",
"546 539 OFFCURVE",
"393 474 OFFCURVE",
"174 414 CURVE"
);
}
);
width = 783;
}
);
leftMetricsKey = o;
},
{
glyphname = f.001;
layers = (
{
hints = (
{
origin = "{0, 0}";
scale = "{1.344, 0.96}";
type = Corner;
name = _corner.RightSerif;
},
{
origin = "{0, 26}";
scale = "{0.96, 0.96}";
type = Corner;
name = _corner.LeftSerif;
}
);
layerId = "6B6AD122-EF8D-49FE-8C69-4BDE8C56BDD8";
paths = (
{
closed = 1;
nodes = (
"400 0 LINE",
"401 699 LINE",
"618 699 LINE",
"618 831 LINE",
"401 831 LINE",
"390 911 OFFCURVE",
"354 947 OFFCURVE",
"354 1008 CURVE SMOOTH",
"354 1091 OFFCURVE",
"418 1113 OFFCURVE",
"459 1113 CURVE SMOOTH",
"517 1113 OFFCURVE",
"577 1072 OFFCURVE",
"618 983 CURVE",
"678 994 LINE",
"678 1239 LINE",
"652 1250 OFFCURVE",
"603 1266 OFFCURVE",
"541 1266 CURVE SMOOTH",
"375 1266 OFFCURVE",
"165 1152 OFFCURVE",
"165 897 CURVE SMOOTH",
"165 833 LINE",
"50 812 LINE",
"50 700 LINE",
"165 689 LINE",
"165 0 LINE"
);
}
);
width = 613;
},
{
hints = (
{
origin = "{0, 0}";
scale = "{0.96495, 0.74227}";
type = Corner;
name = _corner.RightSerif;
},
{
origin = "{0, 26}";
scale = "{0.74227, 0.74227}";
type = Corner;
name = _corner.LeftSerif;
}
);
layerId = "34301EF7-A2BE-469F-9697-D6100B11FDFE";
paths = (
{
closed = 1;
nodes = (
"307 0 LINE",
"307 692 LINE",
"555 692 LINE",
"555 750 LINE",
"307 750 LINE",
"306 834 OFFCURVE",
"306 919 OFFCURVE",
"307 1040 CURVE SMOOTH",
"308 1171 OFFCURVE",
"364 1213 OFFCURVE",
"429 1213 CURVE SMOOTH",
"554 1213 OFFCURVE",
"592 1057 OFFCURVE",
"595 973 CURVE",
"633 973 LINE",
"633 1221 LINE",
"585 1253 OFFCURVE",
"522 1266 OFFCURVE",
"471 1266 CURVE SMOOTH",
"347 1266 OFFCURVE",
"194 1194 OFFCURVE",
"194 970 CURVE SMOOTH",
"194 750 LINE",
"20 729 LINE",
"20 704 LINE",
"194 686 LINE",
"194 0 LINE"
);
}
);
width = 578;
},
{
background = {
hints = (
{
origin = "{0, 0}";
scale = "{1.4, 1.1}";
type = Corner;
name = _corner.RightSerif;
},
{
origin = "{0, 26}";
type = Corner;
name = _corner.LeftSerif;
}
);
paths = (
{
closed = 1;
nodes = (
"321 0 LINE",
"322 731 LINE",
"557 731 LINE",
"557 821 LINE",
"321 821 LINE",
"315 888 OFFCURVE",
"289 952 OFFCURVE",
"289 1012 CURVE SMOOTH",
"289 1113 OFFCURVE",
"355 1154 OFFCURVE",
"414 1154 CURVE SMOOTH",
"498 1154 OFFCURVE",
"543 1071 OFFCURVE",
"571 991 CURVE",
"623 995 LINE",
"623 1238 LINE",
"578 1255 OFFCURVE",
"535 1266 OFFCURVE",
"490 1266 CURVE SMOOTH",
"345 1266 OFFCURVE",
"165 1153 OFFCURVE",
"165 923 CURVE SMOOTH",
"165 837 LINE",
"20 800 LINE",
"20 735 LINE",
"170 715 LINE",
"170 0 LINE"
);
}
);
};
layerId = "CFF67ECA-3B2D-433B-B605-F38590C8F106";
paths = (
{
closed = 1;
nodes = (
"789 1137 LINE",
"713 1066 LINE",
"695 1066 LINE",
"654 1108 OFFCURVE",
"616 1141 OFFCURVE",
"554 1141 CURVE SMOOTH",
"468 1141 OFFCURVE",
"417 1070 OFFCURVE",
"387 815 CURVE",
"625 840 LINE",
"634 828 LINE",
"608 731 LINE",
"382 731 LINE",
"249 -77 LINE SMOOTH",
"208 -324 OFFCURVE",
"74 -424 OFFCURVE",
"-52 -424 CURVE SMOOTH",
"-116 -424 OFFCURVE",
"-193 -397 OFFCURVE",
"-230 -314 CURVE",
"-188 -213 LINE",
"-158 -213 LINE",
"-127 -266 OFFCURVE",
"-72 -303 OFFCURVE",
"-16 -303 CURVE SMOOTH",
"55 -303 OFFCURVE",
"93 -243 OFFCURVE",
"103 -183 CURVE SMOOTH",
"258 735 LINE",
"106 735 LINE",
"120 800 LINE",
"275 827 LINE",
"288 899 LINE SMOOTH",
"336 1162 OFFCURVE",
"492 1266 OFFCURVE",
"603 1266 CURVE SMOOTH",
"669 1266 OFFCURVE",
"732 1228 OFFCURVE",
"789 1154 CURVE"
);
}
);
width = 635;
}
);
},
{
glyphname = g.001;
layers = (
{
background = {
paths = (
{
closed = 1;
nodes = (
"557 291 OFFCURVE",
"691 416 OFFCURVE",
"691 571 CURVE SMOOTH",
"691 732 OFFCURVE",
"547 851 OFFCURVE",
"381 851 CURVE SMOOTH",
"206 851 OFFCURVE",
"63 725 OFFCURVE",
"63 571 CURVE SMOOTH",
"63 409 OFFCURVE",
"215 291 OFFCURVE",
"381 291 CURVE SMOOTH"
);
},
{
closed = 1;
nodes = (
"279 383 OFFCURVE",
"221 496 OFFCURVE",
"221 600 CURVE SMOOTH",
"221 688 OFFCURVE",
"267 759 OFFCURVE",
"366 759 CURVE SMOOTH",
"488 759 OFFCURVE",
"543 647 OFFCURVE",
"543 545 CURVE SMOOTH",
"543 457 OFFCURVE",
"500 383 OFFCURVE",
"398 383 CURVE SMOOTH"
);
},
{
closed = 1;
nodes = (
"824 711 LINE",
"824 835 LINE",
"807 851 LINE",
"530 808 LINE",
"542 711 LINE"
);
},
{
closed = 1;
nodes = (
"289 82 LINE",
"158 -11 LINE SMOOTH",
"53 -86 OFFCURVE",
"10 -154 OFFCURVE",
"10 -232 CURVE SMOOTH",
"10 -347 OFFCURVE",
"106 -424 OFFCURVE",
"337 -424 CURVE SMOOTH",
"610 -424 OFFCURVE",
"774 -318 OFFCURVE",
"774 -158 CURVE SMOOTH",
"774 -47 OFFCURVE",
"696 20 OFFCURVE",
"565 64 CURVE SMOOTH",
"412 116 LINE SMOOTH",
"368 131 OFFCURVE",
"341 140 OFFCURVE",
"341 175 CURVE SMOOTH",
"341 192 OFFCURVE",
"347 214 OFFCURVE",
"405 299 CURVE",
"334 332 LINE",
"247 231 OFFCURVE",
"199 171 OFFCURVE",
"199 108 CURVE SMOOTH",
"199 60 OFFCURVE",
"229 -3 OFFCURVE",
"316 -30 CURVE SMOOTH",
"436 -67 LINE SMOOTH",
"592 -115 OFFCURVE",
"633 -146 OFFCURVE",
"633 -191 CURVE SMOOTH",
"633 -262 OFFCURVE",
"528 -322 OFFCURVE",
"354 -322 CURVE SMOOTH",
"194 -322 OFFCURVE",
"147 -269 OFFCURVE",
"147 -200 CURVE SMOOTH",
"147 -131 OFFCURVE",
"191 -62 OFFCURVE",
"345 27 CURVE"
);
}
);
};
layerId = "6B6AD122-EF8D-49FE-8C69-4BDE8C56BDD8";
paths = (
{
closed = 1;
nodes = (
"672 -424 OFFCURVE",
"813 -294 OFFCURVE",
"813 -125 CURVE SMOOTH",
"813 32 OFFCURVE",
"686 91 OFFCURVE",
"388 175 CURVE SMOOTH",
"328 192 OFFCURVE",
"311 205 OFFCURVE",
"311 227 CURVE SMOOTH",
"311 238 OFFCURVE",
"316 278 OFFCURVE",
"373 333 CURVE",
"305 375 LINE",
"172 250 OFFCURVE",
"129 169 OFFCURVE",
"129 98 CURVE SMOOTH",
"129 23 OFFCURVE",
"178 -19 OFFCURVE",
"249 -38 CURVE SMOOTH",
"562 -122 OFFCURVE",
"633 -145 OFFCURVE",
"633 -208 CURVE SMOOTH",
"633 -266 OFFCURVE",
"573 -292 OFFCURVE",
"436 -292 CURVE SMOOTH",
"303 -292 OFFCURVE",
"192 -268 OFFCURVE",
"192 -169 CURVE SMOOTH",
"192 -115 OFFCURVE",
"227 -16 OFFCURVE",
"281 27 CURVE",
"242 79 LINE",
"143 4 LINE SMOOTH",
"63 -57 OFFCURVE",
"0 -133 OFFCURVE",
"0 -225 CURVE SMOOTH",
"0 -377 OFFCURVE",
"171 -424 OFFCURVE",
"363 -424 CURVE SMOOTH"
);
},
{
closed = 1;
nodes = (
"595 283 OFFCURVE",
"750 412 OFFCURVE",
"750 571 CURVE SMOOTH",
"750 731 OFFCURVE",
"595 861 OFFCURVE",
"403 861 CURVE SMOOTH",
"211 861 OFFCURVE",
"56 731 OFFCURVE",
"56 571 CURVE SMOOTH",
"56 412 OFFCURVE",
"211 283 OFFCURVE",
"403 283 CURVE SMOOTH"
);
},
{
closed = 1;
nodes = (
"348 401 OFFCURVE",
"255 535 OFFCURVE",
"255 638 CURVE SMOOTH",
"255 701 OFFCURVE",
"290 742 OFFCURVE",
"352 742 CURVE SMOOTH",
"460 742 OFFCURVE",
"554 613 OFFCURVE",
"554 508 CURVE SMOOTH",
"554 445 OFFCURVE",
"519 401 OFFCURVE",
"456 401 CURVE SMOOTH"
);
},
{
closed = 1;
nodes = (
"880 668 LINE",
"880 842 LINE",
"846 861 LINE",
"566 765 LINE",
"578 668 LINE"
);
}
);
width = 935;
},
{
layerId = "34301EF7-A2BE-469F-9697-D6100B11FDFE";
paths = (
{
closed = 1;
nodes = (
"651 -424 OFFCURVE",
"797 -301 OFFCURVE",
"797 -166 CURVE SMOOTH",
"797 -41 OFFCURVE",
"678 57 OFFCURVE",
"361 83 CURVE SMOOTH",
"267 91 OFFCURVE",
"255 126 OFFCURVE",
"255 149 CURVE SMOOTH",
"255 209 OFFCURVE",
"334 247 OFFCURVE",
"390 253 CURVE",
"349 286 LINE",
"305 286 OFFCURVE",
"152 230 OFFCURVE",
"152 118 CURVE SMOOTH",
"152 85 OFFCURVE",
"166 2 OFFCURVE",
"296 -14 CURVE SMOOTH",
"598 -50 OFFCURVE",
"696 -115 OFFCURVE",
"696 -204 CURVE SMOOTH",
"696 -286 OFFCURVE",
"610 -365 OFFCURVE",
"434 -365 CURVE SMOOTH",
"237 -365 OFFCURVE",
"137 -285 OFFCURVE",
"137 -164 CURVE SMOOTH",
"137 -84 OFFCURVE",
"189 -4 OFFCURVE",
"257 -1 CURVE",
"246 20 LINE",
"183 42 OFFCURVE",
"20 -40 OFFCURVE",
"20 -174 CURVE SMOOTH",
"20 -305 OFFCURVE",
"172 -424 OFFCURVE",
"405 -424 CURVE SMOOTH"
);
},
{
closed = 1;
nodes = (
"556 253 OFFCURVE",
"692 376 OFFCURVE",
"692 512 CURVE SMOOTH",
"692 646 OFFCURVE",
"556 780 OFFCURVE",
"390 780 CURVE SMOOTH",
"226 780 OFFCURVE",
"91 646 OFFCURVE",
"91 512 CURVE SMOOTH",
"91 376 OFFCURVE",
"226 253 OFFCURVE",
"390 253 CURVE SMOOTH"
);
},
{
closed = 1;
nodes = (
"291 307 OFFCURVE",
"209 389 OFFCURVE",
"209 517 CURVE SMOOTH",
"209 644 OFFCURVE",
"291 726 OFFCURVE",
"391 726 CURVE SMOOTH",
"490 726 OFFCURVE",
"574 644 OFFCURVE",
"574 517 CURVE SMOOTH",
"574 389 OFFCURVE",
"490 307 OFFCURVE",
"391 307 CURVE SMOOTH"
);
},
{
closed = 1;
nodes = (
"825 680 LINE",
"825 767 LINE",
"808 780 LINE",
"531 727 LINE",
"543 680 LINE"
);
}
);
width = 861;
},
{
background = {
paths = (
{
closed = 1;
nodes = (
"536 291 OFFCURVE",
"691 410 OFFCURVE",
"722 558 CURVE SMOOTH",
"758 726 OFFCURVE",
"636 851 OFFCURVE",
"465 851 CURVE SMOOTH",
"295 851 OFFCURVE",
"131 731 OFFCURVE",
"100 584 CURVE SMOOTH",
"64 415 OFFCURVE",
"194 291 OFFCURVE",
"365 291 CURVE SMOOTH"
);
},
{
closed = 1;
nodes = (
"268 383 OFFCURVE",
"238 490 OFFCURVE",
"259 587 CURVE SMOOTH",
"279 682 OFFCURVE",
"346 759 OFFCURVE",
"450 759 CURVE SMOOTH",
"567 759 OFFCURVE",
"595 653 OFFCURVE",
"574 558 CURVE SMOOTH",
"554 463 OFFCURVE",
"489 383 OFFCURVE",
"383 383 CURVE SMOOTH"
);
},
{
closed = 1;
nodes = (
"888 711 LINE",
"913 835 LINE",
"899 851 LINE",
"615 808 LINE",
"606 711 LINE"
);
},
{
closed = 1;
nodes = (
"216 82 LINE",
"64 -7 LINE SMOOTH",
"-56 -82 OFFCURVE",
"-109 -148 OFFCURVE",
"-124 -219 CURVE SMOOTH",
"-150 -341 OFFCURVE",
"-67 -424 OFFCURVE",
"169 -424 CURVE SMOOTH",
"437 -424 OFFCURVE",
"618 -324 OFFCURVE",
"650 -171 CURVE SMOOTH",
"675 -53 OFFCURVE",
"608 18 OFFCURVE",
"486 62 CURVE SMOOTH",
"344 114 LINE SMOOTH",
"304 129 OFFCURVE",
"282 134 OFFCURVE",
"288 162 CURVE SMOOTH",
"293 186 OFFCURVE",
"307 209 OFFCURVE",
"383 294 CURVE",
"314 337 LINE",
"207 236 OFFCURVE",
"149 177 OFFCURVE",
"137 121 CURVE SMOOTH",
"126 66 OFFCURVE",
"146 -1 OFFCURVE",
"227 -28 CURVE SMOOTH",
"340 -65 LINE SMOOTH",
"485 -113 OFFCURVE",
"516 -140 OFFCURVE",
"508 -178 CURVE SMOOTH",
"491 -256 OFFCURVE",
"367 -322 OFFCURVE",
"189 -322 CURVE SMOOTH",
"33 -322 OFFCURVE",
"1 -275 OFFCURVE",
"15 -213 CURVE SMOOTH",
"31 -137 OFFCURVE",
"94 -65 OFFCURVE",
"267 24 CURVE"
);
}
);
};
layerId = "CFF67ECA-3B2D-433B-B605-F38590C8F106";
paths = (
{
closed = 1;
nodes = (
"376 -424 OFFCURVE",
"529 -320 OFFCURVE",
"569 -131 CURVE SMOOTH",
"772 821 LINE",
"736 851 LINE",
"638 787 LINE",
"427 -211 LINE SMOOTH",
"409 -296 OFFCURVE",
"358 -328 OFFCURVE",
"297 -328 CURVE SMOOTH",
"202 -328 OFFCURVE",
"106 -254 OFFCURVE",
"-21 -110 CURVE",
"-45 -110 LINE",
"-100 -224 LINE",
"56 -382 OFFCURVE",
"149 -424 OFFCURVE",
"237 -424 CURVE SMOOTH"
);
},
{
closed = 1;
nodes = (
"334 -30 OFFCURVE",
"507 176 OFFCURVE",
"629 478 CURVE",
"607 639 LINE",
"524 250 OFFCURVE",
"297 99 OFFCURVE",
"233 99 CURVE SMOOTH",
"190 99 OFFCURVE",
"179 205 OFFCURVE",
"179 266 CURVE SMOOTH",
"179 434 OFFCURVE",
"271 732 OFFCURVE",
"442 732 CURVE SMOOTH",
"494 732 OFFCURVE",
"553 697 OFFCURVE",
"647 619 CURVE",
"681 761 LINE",
"605 821 OFFCURVE",
"549 851 OFFCURVE",
"479 851 CURVE SMOOTH",
"247 851 OFFCURVE",
"45 487 OFFCURVE",
"45 198 CURVE SMOOTH",
"45 80 OFFCURVE",
"80 -30 OFFCURVE",
"189 -30 CURVE SMOOTH"
);
}
);
width = 900;
}
);
note = ss03;
},
{
glyphname = k.001;
layers = (
{
hints = (
{
origin = "{0, 6}";
scale = "{0.96, 0.96}";
type = Corner;
name = _corner.LeftSerif;
},
{
origin = "{0, 0}";
scale = "{0.96, 0.96}";
type = Corner;
name = _corner.RightSerif;
}
);
layerId = "6B6AD122-EF8D-49FE-8C69-4BDE8C56BDD8";
paths = (
{
closed = 1;
nodes = (
"371 0 LINE",
"371 1250 LINE",
"353 1266 LINE",
"85 1160 LINE",
"85 1108 LINE",
"136 1029 LINE",
"136 0 LINE"
);
},
{
closed = 1;
nodes = (
"901 0 LINE",
"916 51 LINE",
"916 68 LINE",
"893 88 OFFCURVE",
"843 141 OFFCURVE",
"816 193 CURVE SMOOTH",
"613 584 LINE",
"428 433 LINE",
"583 141 LINE SMOOTH",
"601 106 OFFCURVE",
"598 87 OFFCURVE",
"547 61 CURVE",
"547 48 LINE",
"570 0 LINE"
);
},
{
closed = 1;
nodes = (
"441 408 LINE",
"714 656 LINE SMOOTH",
"772 708 OFFCURVE",
"855 757 OFFCURVE",
"897 778 CURVE",
"901 784 LINE",
"895 831 LINE",
"586 831 LINE",
"567 790 LINE",
"567 781 LINE",
"622 754 OFFCURVE",
"593 710 OFFCURVE",
"567 685 CURVE SMOOTH",
"337 471 LINE",
"362 408 LINE"
);
}
);
width = 916;
},
{
hints = (
{
origin = "{0, 0}";
scale = "{0.74227, 0.742}";
type = Corner;
name = _corner.RightSerif;
},
{
origin = "{0, 6}";
scale = "{0.74227, 0.74227}";
type = Corner;
name = _corner.LeftSerif;
}
);
layerId = "34301EF7-A2BE-469F-9697-D6100B11FDFE";
paths = (
{
closed = 1;
nodes = (
"337 0 LINE",
"337 1257 LINE",
"326 1266 LINE",
"60 1190 LINE",
"60 1168 LINE",
"223 1147 LINE",
"223 0 LINE"
);
},
{
closed = 1;
nodes = (
"892 0 LINE",
"895 30 LINE",
"890 36 LINE",
"819 45 OFFCURVE",
"761 57 OFFCURVE",
"725 122 CURVE SMOOTH",
"501 523 LINE",
"432 446 LINE",
"602 112 LINE SMOOTH",
"633 51 OFFCURVE",
"619 55 OFFCURVE",
"533 34 CURVE",
"528 28 LINE",
"531 0 LINE"
);
},
{
closed = 1;
nodes = (
"327 352 LINE",
"676 628 LINE SMOOTH",
"751 687 OFFCURVE",
"822 704 OFFCURVE",
"886 712 CURVE",
"890 719 LINE",
"886 750 LINE",
"526 750 LINE",
"523 719 LINE",
"527 714 LINE",
"650 694 OFFCURVE",
"649 672 OFFCURVE",
"587 622 CURVE SMOOTH",
"268 361 LINE",
"268 352 LINE"
);
}
);
width = 905;
},
{
background = {
paths = (
{
closed = 1;
nodes = (
"89 1213 LINE",
"89 1166 LINE",
"247 1156 LINE",
"15 -2 LINE",
"158 -2 LINE",
"213 328 LINE",
"310 418 LINE",
"457 122 LINE SMOOTH",
"491 53 OFFCURVE",
"569 -10 OFFCURVE",
"618 -10 QCURVE SMOOTH",
"646 -10 OFFCURVE",
"752 14 OFFCURVE",
"820 36 QCURVE",
"820 84 LINE",
"785 77 OFFCURVE",
"746 72 OFFCURVE",
"730 72 QCURVE SMOOTH",
"660 72 OFFCURVE",
"541 223 OFFCURVE",
"412 514 QCURVE",
"488 583 OFFCURVE",
"590 667 OFFCURVE",
"633 700 QCURVE",
"696 633 LINE",
"743 651 OFFCURVE",
"790 705 OFFCURVE",
"790 739 QCURVE SMOOTH",
"790 777 OFFCURVE",
"734 827 OFFCURVE",
"692 827 QCURVE SMOOTH",
"661 827 OFFCURVE",
"585 782 OFFCURVE",
"541 736 QCURVE SMOOTH",
"223 407 LINE",
"407 1263 LINE",
"359 1263 LINE",
"359 1263 LINE"
);
}
);
};
layerId = "CFF67ECA-3B2D-433B-B605-F38590C8F106";
paths = (
{
closed = 1;
nodes = (
"133 15 LINE",
"403 1236 LINE",
"367 1266 LINE",
"36 1141 LINE",
"30 1081 LINE",
"46 1067 LINE",
"300 1116 LINE",
"256 1167 LINE",
"26 122 LINE SMOOTH",
"18 86 OFFCURVE",
"-7 20 OFFCURVE",
"-30 -26 CURVE",
"-1 -57 LINE"
);
},
{
closed = 1;
nodes = (
"690 -7 OFFCURVE",
"737 9 OFFCURVE",
"788 32 CURVE",
"770 90 LINE",
"740 80 OFFCURVE",
"714 73 OFFCURVE",
"689 73 CURVE SMOOTH",
"623 73 OFFCURVE",
"603 122 OFFCURVE",
"578 174 CURVE SMOOTH",
"393 561 LINE",
"283 473 LINE",
"424 154 LINE SMOOTH",
"482 24 OFFCURVE",
"568 -7 OFFCURVE",
"639 -7 CURVE SMOOTH"
);
},
{
closed = 1;
nodes = (
"176 332 LINE",
"758 821 LINE",
"666 821 LINE",
"198 428 LINE"
);
}
);
width = 780;
}
);
leftMetricsKey = l;
},
{
glyphname = n.001;
lastChange = "2020-02-26 09:25:28 +0000";
layers = (
{
hints = (
{
origin = "{0, 0}";
scale = "{0.83478, 0.83478}";
type = Corner;
name = _corner.RightSerif;
},
{
origin = "{0, 15}";
scale = "{0.83478, 0.83478}";
type = Corner;
name = _corner.LeftSerif;
},
{
origin = "{1, 0}";
type = Corner;
name = _corner.RightSerif;
},
{
origin = "{1, 8}";
type = Corner;
name = _corner.LeftSerif;
}
);
layerId = "6B6AD122-EF8D-49FE-8C69-4BDE8C56BDD8";
paths = (
{
closed = 1;
nodes = (
"917 0 LINE",
"917 587 LINE SMOOTH",
"917 785 OFFCURVE",
"776 861 OFFCURVE",
"658 861 CURVE SMOOTH",
"523 861 OFFCURVE",
"409 761 OFFCURVE",
"305 645 CURVE",
"310 556 LINE",
"415 653 OFFCURVE",
"483 683 OFFCURVE",
"546 683 CURVE SMOOTH",
"641 683 OFFCURVE",
"682 617 OFFCURVE",
"682 507 CURVE SMOOTH",
"682 0 LINE"
);
},
{
closed = 1;
nodes = (
"371 0 LINE",
"371 666 LINE",
"371 699 LINE",
"330 861 LINE",
"282 861 LINE",
"85 774 LINE",
"85 722 LINE",
"136 638 LINE",
"136 0 LINE"
);
}
);
width = 1040;
},
{
components = (
{
name = nBAR;
transform = "{1, 0, 0, 1, -42, 0}";
}
);
hints = (
{
origin = "{0, 0}";
scale = "{0.74227, 0.74227}";
type = Corner;
name = _corner.RightSerif;
},
{
origin = "{0, 15}";
scale = "{0.74227, 0.74227}";
type = Corner;
name = _corner.LeftSerif;
}
);
layerId = "34301EF7-A2BE-469F-9697-D6100B11FDFE";
paths = (
{
closed = 1;
nodes = (
"859 0 LINE",
"859 508 LINE SMOOTH",
"859 699 OFFCURVE",
"743 780 OFFCURVE",
"621 780 CURVE SMOOTH",
"491 780 OFFCURVE",
"369 688 OFFCURVE",
"289 560 CURVE",
"308 510 LINE",
"409 673 OFFCURVE",
"511 712 OFFCURVE",
"583 712 CURVE SMOOTH",
"705 712 OFFCURVE",
"746 606 OFFCURVE",
"746 471 CURVE SMOOTH",
"746 0 LINE"
);
}
);
width = 1068;
},
{
background = {
hints = (
{
origin = "{0, 0}";
type = Corner;
name = _corner.RightSerif;
},
{
origin = "{0, 15}";
type = Corner;
name = _corner.LeftSerif;
},
{
origin = "{1, 0}";
type = Corner;
name = _corner.RightSerif;
},
{
origin = "{1, 8}";
type = Corner;
name = _corner.LeftSerif;
}
);
paths = (
{
closed = 1;
nodes = (
"890 0 LINE",
"890 591 LINE SMOOTH",
"890 761 OFFCURVE",
"749 851 OFFCURVE",
"621 851 CURVE SMOOTH",
"494 851 OFFCURVE",
"399 763 OFFCURVE",
"310 671 CURVE",
"335 602 LINE",
"409 660 OFFCURVE",
"490 714 OFFCURVE",
"583 714 CURVE SMOOTH",
"687 714 OFFCURVE",
"739 643 OFFCURVE",
"739 542 CURVE SMOOTH",
"739 0 LINE"
);
},
{
closed = 1;
nodes = (
"342 0 LINE",
"342 639 LINE",
"333 664 LINE",
"273 851 LINE",
"235 851 LINE",
"45 764 LINE",
"45 714 LINE",
"191 670 LINE",
"191 0 LINE"
);
}
);
};
layerId = "CFF67ECA-3B2D-433B-B605-F38590C8F106";
paths = (
{
closed = 1;
nodes = (
"379 851 LINE",
"48 726 LINE",
"42 666 LINE",
"58 652 LINE",
"312 701 LINE",
"268 752 LINE",
"133 122 LINE SMOOTH",
"125 86 OFFCURVE",
"100 20 OFFCURVE",
"77 -26 CURVE",
"106 -57 LINE",
"235 15 LINE",
"312 373 LINE",
"415 821 LINE"
);
},
{
closed = 1;
nodes = (
"989 318 LINE",
"956 355 LINE",
"947 355 LINE",
"837 205 OFFCURVE",
"791 135 OFFCURVE",
"752 135 CURVE SMOOTH",
"744 135 OFFCURVE",
"740 140 OFFCURVE",
"740 149 CURVE SMOOTH",
"740 154 OFFCURVE",
"741 159 OFFCURVE",
"742 165 CURVE SMOOTH",
"844 583 LINE SMOOTH",
"886 753 OFFCURVE",
"810 851 OFFCURVE",
"694 851 CURVE SMOOTH",
"536 851 OFFCURVE",
"414 672 OFFCURVE",
"261 222 CURVE",
"235 15 LINE",
"467 633 OFFCURVE",
"569 727 OFFCURVE",
"638 727 CURVE SMOOTH",
"696 727 OFFCURVE",
"735 662 OFFCURVE",
"715 579 CURVE SMOOTH",
"593 85 LINE SMOOTH",
"577 21 OFFCURVE",
"632 -30 OFFCURVE",
"670 -30 CURVE SMOOTH",
"765 -30 OFFCURVE",
"875 115 OFFCURVE",
"989 310 CURVE"
);
}
);
width = 1000;
}
);
},
{
glyphname = r.001;
layers = (
{
hints = (
{
origin = "{1, 0}";
type = Corner;
name = _corner.RightSerif;
},
{
origin = "{1, 8}";
type = Corner;
name = _corner.LeftSerif;
}
);
layerId = "6B6AD122-EF8D-49FE-8C69-4BDE8C56BDD8";
paths = (
{
closed = 1;
nodes = (
"396 585 OFFCURVE",
"432 628 OFFCURVE",
"481 628 CURVE SMOOTH",
"522 628 OFFCURVE",
"569 597 OFFCURVE",
"636 549 CURVE",
"690 571 LINE",
"690 831 LINE",
"665 845 OFFCURVE",
"647 851 OFFCURVE",
"614 851 CURVE SMOOTH",
"535 851 OFFCURVE",
"456 819 OFFCURVE",
"331 628 CURVE",
"336 496 LINE"
);
},
{
closed = 1;
nodes = (
"371 0 LINE",
"371 666 LINE",
"345 669 LINE",
"330 861 LINE",
"282 861 LINE",
"85 774 LINE",
"85 722 LINE",
"136 638 LINE",
"136 0 LINE"
);
}
);
width = 755;
},
{
hints = (
{
origin = "{0, 0}";
scale = "{0.74227, 0.74227}";
type = Corner;
name = _corner.RightSerif;
},
{
origin = "{0, 9}";
scale = "{0.74227, 0.74227}";
type = Corner;
name = _corner.LeftSerif;
}
);
layerId = "34301EF7-A2BE-469F-9697-D6100B11FDFE";
paths = (
{
closed = 1;
nodes = (
"333 0 LINE",
"333 568 LINE",
"319 567 LINE",
"302 579 LINE",
"343 772 LINE",
"332 780 LINE",
"60 705 LINE",
"60 683 LINE",
"220 662 LINE",
"220 0 LINE"
);
},
{
closed = 1;
nodes = (
"384 643 OFFCURVE",
"457 680 OFFCURVE",
"517 680 CURVE SMOOTH",
"588 680 OFFCURVE",
"617 627 OFFCURVE",
"629 500 CURVE",
"666 503 LINE",
"666 746 LINE",
"640 769 OFFCURVE",
"608 780 OFFCURVE",
"566 780 CURVE SMOOTH",
"480 780 OFFCURVE",
"401 733 OFFCURVE",
"296 552 CURVE",
"320 519 LINE"
);
}
);
width = 706;
},
{
background = {
hints = (
{
origin = "{0, 0}";
scale = "{1.3, 1.12457}";
type = Corner;
name = _corner.RightSerif;
},
{
origin = "{0, 9}";
scale = "{1, 1.02234}";
type = Corner;
name = _corner.LeftSerif;
}
);
paths = (
{
closed = 1;
nodes = (
"255 0 LINE",
"390 639 LINE",
"395 705 LINE",
"367 715 LINE",
"370 851 LINE",
"330 851 LINE",
"119 764 LINE",
"110 714 LINE",
"247 670 LINE",
"104 0 LINE"
);
},
{
closed = 1;
nodes = (
"443 657 OFFCURVE",
"500 675 OFFCURVE",
"531 675 CURVE SMOOTH",
"555 675 OFFCURVE",
"587 656 OFFCURVE",
"605 600 CURVE",
"657 603 LINE",
"701 829 LINE",
"679 841 OFFCURVE",
"657 851 OFFCURVE",
"623 851 CURVE SMOOTH",
"595 851 OFFCURVE",
"494 851 OFFCURVE",
"313 645 CURVE",
"329 580 LINE"
);
}
);
};
layerId = "CFF67ECA-3B2D-433B-B605-F38590C8F106";
paths = (
{
closed = 1;
nodes = (
"379 851 LINE",
"48 726 LINE",
"42 666 LINE",
"58 652 LINE",
"312 701 LINE",
"268 752 LINE",
"133 122 LINE",
"77 -26 LINE",
"106 -57 LINE",
"235 15 LINE",
"326 460 LINE",
"415 821 LINE"
);
},
{
closed = 1;
nodes = (
"704 643 LINE",
"698 643 OFFCURVE",
"688 644 OFFCURVE",
"678 644 CURVE SMOOTH",
"649 644 OFFCURVE",
"691 851 OFFCURVE",
"590 851 CURVE SMOOTH",
"473 851 OFFCURVE",
"362 565 OFFCURVE",
"228 277 CURVE",
"247 202 LINE",
"349 437 OFFCURVE",
"466 652 OFFCURVE",
"506 652 CURVE SMOOTH",
"531 652 OFFCURVE",
"525 554 OFFCURVE",
"544 554 CURVE SMOOTH",
"558 554 OFFCURVE",
"661 578 OFFCURVE",
"703 588 CURVE",
"708 633 LINE"
);
}
);
width = 636;
}
);
leftMetricsKey = n;
},
{
glyphname = v.001;
lastChange = "2020-02-26 11:33:03 +0000";
layers = (
{
layerId = "6B6AD122-EF8D-49FE-8C69-4BDE8C56BDD8";
paths = (
{
closed = 1;
nodes = (
"483 0 LINE",
"534 99 LINE",
"341 594 LINE SMOOTH",
"317 655 OFFCURVE",
"305 752 OFFCURVE",
"351 781 CURVE",
"351 787 LINE",
"339 831 LINE",
"17 831 LINE",
"0 792 LINE",
"0 779 LINE",
"16 763 OFFCURVE",
"54 693 OFFCURVE",
"98 581 CURVE SMOOTH",
"325 0 LINE"
);
},
{
closed = 1;
nodes = (
"524 0 LINE",
"714 546 LINE SMOOTH",
"764 690 OFFCURVE",
"809 754 OFFCURVE",
"834 779 CURVE",
"834 790 LINE",
"818 831 LINE",
"594 831 LINE",
"582 787 LINE",
"582 781 LINE",
"626 752 OFFCURVE",
"602 656 OFFCURVE",
"581 595 CURVE SMOOTH",
"377 0 LINE"
);
}
);
width = 834;
},
{
layerId = "34301EF7-A2BE-469F-9697-D6100B11FDFE";
paths = (
{
closed = 1;
nodes = (
"462 0 LINE",
"466 51 LINE",
"237 662 LINE SMOOTH",
"227 688 OFFCURVE",
"217 698 OFFCURVE",
"357 712 CURVE",
"360 717 LINE",
"357 750 LINE",
"-6 750 LINE",
"-10 717 LINE",
"-5 711 LINE",
"40 703 OFFCURVE",
"97 686 OFFCURVE",
"121 628 CURVE SMOOTH",
"376 0 LINE"
);
},
{
closed = 1;
nodes = (
"463 0 LINE",
"701 628 LINE SMOOTH",
"724 688 OFFCURVE",
"785 703 OFFCURVE",
"846 712 CURVE",
"849 718 LINE",
"845 750 LINE",
"536 750 LINE",
"533 717 LINE",
"536 712 LINE",
"676 698 OFFCURVE",
"664 688 OFFCURVE",
"655 662 CURVE SMOOTH",
"418 0 LINE"
);
}
);
width = 839;
},
{
background = {
paths = (
{
closed = 1;
nodes = (
"413 0 LINE",
"443 102 LINE",
"333 686 LINE SMOOTH",
"328 719 OFFCURVE",
"327 745 OFFCURVE",
"458 768 CURVE",
"456 775 LINE",
"461 821 LINE",
"98 821 LINE",
"84 776 LINE",
"92 771 LINE",
"144 756 OFFCURVE",
"166 734 OFFCURVE",
"179 662 CURVE SMOOTH",
"302 0 LINE"
);
},
{
closed = 1;
nodes = (
"431 0 LINE",
"813 654 LINE SMOOTH",
"846 715 OFFCURVE",
"891 754 OFFCURVE",
"945 767 CURVE",
"945 776 LINE",
"950 821 LINE",
"654 821 LINE",
"640 775 LINE",
"645 770 LINE",
"758 756 OFFCURVE",
"739 732 OFFCURVE",
"720 699 CURVE SMOOTH",
"318 0 LINE"
);
}
);
};
layerId = "CFF67ECA-3B2D-433B-B605-F38590C8F106";
paths = (
{
closed = 1;
nodes = (
"655 726 LINE",
"678 686 OFFCURVE",
"675 638 OFFCURVE",
"675 587 CURVE SMOOTH",
"675 476 OFFCURVE",
"644 327 OFFCURVE",
"579 225 CURVE SMOOTH",
"526 143 OFFCURVE",
"443 75 OFFCURVE",
"389 75 CURVE SMOOTH",
"378 75 OFFCURVE",
"371 84 OFFCURVE",
"371 103 CURVE SMOOTH",
"371 146 OFFCURVE",
"415 300 OFFCURVE",
"415 560 CURVE SMOOTH",
"415 650 OFFCURVE",
"390 760 OFFCURVE",
"302 821 CURVE",
"290 821 LINE",
"191 716 LINE",
"191 699 LINE",
"275 653 OFFCURVE",
"278 600 OFFCURVE",
"279 548 CURVE SMOOTH",
"281 450 OFFCURVE",
"238 142 OFFCURVE",
"238 80 CURVE SMOOTH",
"238 17 OFFCURVE",
"317 -30 OFFCURVE",
"355 -30 CURVE SMOOTH",
"566 -30 OFFCURVE",
"819 360 OFFCURVE",
"819 649 CURVE SMOOTH",
"819 744 OFFCURVE",
"798 809 OFFCURVE",
"789 844 CURVE",
"775 851 LINE",
"655 744 LINE"
);
}
);
width = 873;
}
);
},
